<svg width="728" height="463" viewBox="0 0 728 463" fill="none" xmlns="http://www.w3.org/2000/svg">
<path d="M141.594 254.321H164.226" stroke="black" stroke-width="8"/>
<path d="M566.386 257.81H589.018" stroke="black" stroke-width="8"/>
<path d="M577.702 246.471L577.702 269.149" stroke="black" stroke-width="8"/>
<g filter="url(#filter0_f_1699_977)">
<path d="M185.987 263.304C185.987 259.464 185.987 250.633 185.987 246.025" stroke="#FDEA2E" stroke-width="3"/>
<path d="M187.442 236.077C188.898 226.652 193.069 205.29 198.114 195.237" stroke="#FDEA2E" stroke-width="4"/>
<path d="M231.585 138.689C237.891 131.359 252.055 115.861 258.264 112.51" stroke="#FDEA2E" stroke-width="8"/>
<path d="M270.877 105.179C276.536 101.34 291.153 92.2989 304.348 86.8536" stroke="#FDEA2E" stroke-width="10"/>
<path d="M316.475 84.7595C328.117 81.6179 341.99 79.8377 352.856 79" stroke="#FDEA2E" stroke-width="12"/>
<path d="M367.895 79C377.596 79.6981 398.067 81.4085 402.335 82.6651" stroke="#FDEA2E" stroke-width="14"/>
<path d="M203.453 183.195C206.849 175.515 215.289 158.062 221.886 149.685" stroke="#FDEA2E" stroke-width="6"/>
<path d="M413.492 86.3306C425.134 89.9957 449.388 104.656 449.388 104.656" stroke="#FDEA2E" stroke-width="16"/>
<path d="M461.029 113.034C467.982 119.84 482.761 134.396 486.254 138.166" stroke="#FDEA2E" stroke-width="18"/>
<path d="M496.927 150.732C502.101 159.109 513.031 177.33 515.36 183.194" stroke="#FDEA2E" stroke-width="20"/>
<path d="M524.09 197.331C526.515 206.93 531.463 227.699 531.851 233.982" stroke="#FDEA2E" stroke-width="22"/>
<path d="M533.308 249.167V266.969" stroke="#FDEA2E" stroke-width="24"/>
</g>
<path d="M185.987 263.304C185.987 259.464 185.987 250.633 185.987 246.025" stroke="#FDEA2E" stroke-width="3"/>
<path d="M187.442 236.077C188.898 226.652 193.069 205.29 198.114 195.237" stroke="#FDEA2E" stroke-width="4"/>
<path d="M231.585 138.689C237.891 131.359 252.055 115.861 258.264 112.51" stroke="#FDEA2E" stroke-width="8"/>
<path d="M270.877 105.179C276.536 101.34 291.153 92.2989 304.348 86.8536" stroke="#FDEA2E" stroke-width="10"/>
<path d="M316.475 84.7595C328.117 81.6179 341.99 79.8377 352.856 79" stroke="#FDEA2E" stroke-width="12"/>
<path d="M367.895 79C377.596 79.6981 398.067 81.4085 402.335 82.6651" stroke="#FDEA2E" stroke-width="14"/>
<path d="M203.453 183.195C206.849 175.515 215.289 158.062 221.886 149.685" stroke="#FDEA2E" stroke-width="6"/>
<path d="M413.492 86.3306C425.134 89.9957 449.388 104.656 449.388 104.656" stroke="#FDEA2E" stroke-width="16"/>
<path d="M461.029 113.034C467.982 119.84 482.761 134.396 486.254 138.166" stroke="#FDEA2E" stroke-width="18"/>
<path d="M496.927 150.732C502.101 159.109 513.031 177.33 515.36 183.194" stroke="#FDEA2E" stroke-width="20"/>
<path d="M524.09 197.331C526.515 206.93 531.463 227.699 531.851 233.982" stroke="#FDEA2E" stroke-width="22"/>
<path d="M533.308 249.167V266.969" stroke="#FDEA2E" stroke-width="24"/>
<path d="M499.593 243.15C499.67 246.459 499.631 249.794 499.473 253.148L498.474 253.101C498.396 254.751 498.289 256.407 498.152 258.067C498.015 259.727 497.849 261.378 497.656 263.019L498.649 263.136C498.256 266.471 497.748 269.767 497.13 273.019L496.148 272.832C495.525 276.108 494.789 279.339 493.945 282.522L494.912 282.779C494.053 286.019 493.083 289.209 492.006 292.346L491.06 292.021C489.979 295.168 488.79 298.261 487.498 301.295L488.418 301.688C487.107 304.767 485.69 307.786 484.172 310.743L483.282 310.286C481.765 313.24 480.147 316.131 478.432 318.953L479.286 319.473C477.551 322.329 475.717 325.116 473.79 327.83L472.975 327.25C471.054 329.955 469.041 332.585 466.94 335.138L467.712 335.774C465.59 338.351 463.379 340.85 461.084 343.266L460.359 342.577C458.076 344.979 455.711 347.298 453.266 349.529L453.941 350.268C451.477 352.517 448.935 354.678 446.319 356.746L445.699 355.961C443.102 358.014 440.432 359.975 437.694 361.84L438.257 362.667C435.503 364.542 432.68 366.321 429.794 367.999L429.291 367.135C426.433 368.797 423.512 370.359 420.533 371.818L420.973 372.716C417.983 374.179 414.937 375.538 411.838 376.789L411.463 375.862C408.4 377.098 405.286 378.227 402.125 379.245L402.432 380.197C399.268 381.216 396.059 382.124 392.808 382.918L392.57 381.947C389.366 382.729 386.121 383.4 382.84 383.954L383.007 384.94C379.737 385.492 376.431 385.93 373.095 386.249L372.999 385.253C369.721 385.567 366.413 385.765 363.08 385.844L363.104 386.844C359.795 386.922 356.46 386.883 353.106 386.724L353.153 385.725C351.502 385.647 349.847 385.539 348.187 385.402C346.527 385.265 344.876 385.098 343.235 384.904L343.118 385.897C339.783 385.502 336.488 384.992 333.236 384.371L333.423 383.388C330.148 382.763 326.918 382.023 323.735 381.175L323.478 382.141C320.239 381.278 317.05 380.302 313.915 379.22L314.241 378.274C311.095 377.188 308.004 375.993 304.971 374.694L304.578 375.614C301.501 374.296 298.484 372.872 295.53 371.346L295.989 370.458C293.038 368.934 290.15 367.308 287.331 365.585L286.81 366.438C283.958 364.695 281.175 362.853 278.466 360.918L279.047 360.104C276.348 358.176 273.722 356.154 271.174 354.044L270.537 354.815C267.965 352.685 265.472 350.466 263.062 348.162L263.753 347.439C261.358 345.15 259.045 342.776 256.82 340.324L256.079 340.996C253.837 338.525 251.683 335.976 249.622 333.352L250.408 332.735C248.362 330.131 246.409 327.455 244.551 324.71L243.723 325.27C241.854 322.51 240.083 319.682 238.412 316.79L239.277 316.29C237.623 313.426 236.067 310.5 234.616 307.517L233.717 307.954C232.26 304.96 230.908 301.91 229.664 298.806L230.592 298.434C229.362 295.368 228.239 292.251 227.227 289.087L226.274 289.391C225.261 286.226 224.358 283.014 223.569 279.761L224.541 279.525C223.763 276.319 223.097 273.073 222.546 269.79L221.56 269.956C221.011 266.684 220.577 263.378 220.26 260.041L221.256 259.946C220.945 256.668 220.748 253.359 220.67 250.025L219.671 250.048C219.594 246.739 219.632 243.404 219.791 240.05L220.79 240.097C220.868 238.447 220.975 236.791 221.112 235.131C221.249 233.471 221.414 231.82 221.608 230.179L220.615 230.062C221.008 226.727 221.515 223.431 222.134 220.179L223.116 220.366C223.739 217.09 224.474 213.859 225.318 210.676L224.352 210.419C225.211 207.179 226.181 203.989 227.258 200.852L228.204 201.177C229.284 198.03 230.473 194.937 231.766 191.903L230.846 191.511C232.157 188.431 233.574 185.412 235.092 182.455L235.981 182.912C237.498 179.958 239.117 177.067 240.832 174.245L239.977 173.725C241.713 170.869 243.547 168.082 245.474 165.368L246.289 165.948C248.209 163.243 250.223 160.613 252.324 158.06L251.552 157.424C253.674 154.847 255.885 152.348 258.18 149.932L258.905 150.621C261.187 148.219 263.553 145.901 265.997 143.669L265.323 142.93C267.786 140.681 270.329 138.521 272.945 136.452L273.565 137.237C276.162 135.184 278.832 133.223 281.57 131.358L281.007 130.531C283.761 128.656 286.584 126.877 289.469 125.199L289.972 126.063C292.831 124.401 295.752 122.839 298.731 121.38L298.291 120.482C301.28 119.019 304.327 117.66 307.426 116.409L307.801 117.336C310.864 116.1 313.978 114.971 317.139 113.953L316.832 113.001C319.995 111.982 323.205 111.074 326.456 110.28L326.693 111.251C329.898 110.469 333.143 109.798 336.423 109.244L336.257 108.258C339.527 107.706 342.833 107.268 346.169 106.949L346.264 107.945C349.543 107.631 352.85 107.433 356.184 107.354L356.16 106.355C359.469 106.276 362.803 106.315 366.158 106.474L366.111 107.473C367.761 107.551 369.417 107.659 371.077 107.796C372.737 107.933 374.387 108.1 376.028 108.294L376.146 107.301C379.481 107.696 382.776 108.206 386.028 108.827L385.84 109.81C389.115 110.435 392.346 111.175 395.529 112.023L395.786 111.057C399.024 111.92 402.214 112.896 405.349 113.978L405.023 114.924C408.168 116.01 411.26 117.205 414.293 118.504L414.686 117.584C417.763 118.902 420.78 120.326 423.733 121.852L423.275 122.74C426.226 124.264 429.113 125.89 431.932 127.613L432.454 126.76C435.306 128.503 438.089 130.345 440.798 132.28L440.217 133.094C442.916 135.022 445.542 137.044 448.09 139.154L448.727 138.384C451.299 140.513 453.792 142.733 456.202 145.036L455.511 145.759C457.906 148.048 460.219 150.422 462.444 152.874L463.185 152.202C465.426 154.673 467.58 157.222 469.642 159.846L468.856 160.464C470.901 163.067 472.855 165.743 474.713 168.488L475.541 167.928C477.409 170.688 479.181 173.516 480.852 176.408L479.986 176.908C481.641 179.772 483.196 182.698 484.648 185.681L485.547 185.244C487.003 188.238 488.356 191.288 489.6 194.392L488.672 194.764C489.901 197.83 491.024 200.947 492.037 204.111L492.989 203.807C494.002 206.972 494.906 210.184 495.695 213.437L494.723 213.673C495.501 216.879 496.167 220.126 496.717 223.408L497.704 223.242C498.252 226.514 498.687 229.82 499.004 233.157L498.008 233.252C498.319 236.53 498.516 239.839 498.593 243.173L499.593 243.15Z" stroke="#858586" stroke-width="2" stroke-dasharray="10 10"/>
<path d="M475.569 256.309C470.217 321.217 413.367 369.485 348.595 364.122C283.823 358.76 235.65 301.797 241.002 236.889C246.354 171.981 303.204 123.713 367.976 129.075C432.748 134.438 480.921 191.4 475.569 256.309Z" stroke="black" stroke-width="2"/>
<ellipse cx="13.3232" cy="13.3499" rx="13.3232" ry="13.3499" transform="matrix(0.99659 0.0825075 -0.0821757 0.996618 442.788 237.609)" fill="black"/>
<defs>
<filter id="filter0_f_1699_977" x="169.487" y="57.0181" width="390.82" height="224.951" filterUnits="userSpaceOnUse" color-interpolation-filters="sRGB">
<feFlood flood-opacity="0" result="BackgroundImageFix"/>
<feBlend mode="normal" in="SourceGraphic" in2="BackgroundImageFix" result="shape"/>
<feGaussianBlur stdDeviation="7.5" result="effect1_foregroundBlur_1699_977"/>
</filter>
</defs>
</svg>
