<svg width="728" height="463" viewBox="0 0 728 463" fill="none" xmlns="http://www.w3.org/2000/svg">
<path d="M259.369 74.4106C256.436 75.627 254.09 77.9733 252.873 80.9066L253.797 81.2896C253.26 82.5852 252.963 84.0067 252.963 85.5V89.4438H251.963V97.3313H252.963V105.219H251.963V113.106H252.963V120.994H251.963V128.882H252.963V136.769H251.963V144.657H252.963V152.544H251.963V160.432H252.963V168.319H251.963V176.207H252.963V184.094H251.963V191.982H252.963V194.926H255.944V195.926H263.905V194.926H271.866V195.926H279.828V194.926H287.789V195.926H295.751V194.926H303.712V195.926H311.674V194.926H319.635V195.926H327.597V194.926H335.558V195.926H343.519V194.926H351.481V195.926H359.442V194.926H367.404V195.926H375.365V194.926H383.327V195.926H391.288V194.926H399.25V195.926H407.211V194.926H415.172V195.926H423.134V194.926H431.095V195.926H439.057V194.926H447.018V195.926H454.98V194.926H462.941V195.926H470.903V194.926H473.883V191.982H474.883V184.094H473.883V176.207H474.883V168.319H473.883V160.432H474.883V152.544H473.883V144.657H474.883V136.769H473.883V128.882H474.883V120.994H473.883V113.106H474.883V105.219H473.883V97.3313H474.883V89.4438H473.883V85.5C473.883 84.0066 473.586 82.5852 473.049 81.2896L473.973 80.9065C472.756 77.9733 470.41 75.627 467.477 74.4106L467.094 75.3343C465.798 74.797 464.377 74.5 462.883 74.5H458.739V73.5H450.451V74.5H442.162V73.5H433.874V74.5H425.586V73.5H417.297V74.5H409.009V73.5H400.721V74.5H392.432V73.5H384.144V74.5H375.856V73.5H367.567V74.5H359.279V73.5H350.991V74.5H342.702V73.5H334.414V74.5H326.126V73.5H317.837V74.5H309.549V73.5H301.26V74.5H292.972V73.5H284.684V74.5H276.395V73.5H268.107V74.5H263.963C262.47 74.5 261.048 74.797 259.752 75.3343L259.369 74.4106Z" stroke="black" stroke-width="2" stroke-dasharray="8 8"/>
<path d="M252.873 382.094C254.09 385.027 256.436 387.373 259.369 388.59L259.752 387.666C261.048 388.203 262.47 388.5 263.963 388.5H268.107V389.5H276.395V388.5H284.684V389.5H292.972V388.5H301.26V389.5H309.549V388.5H317.837V389.5H326.126V388.5H334.414V389.5H342.702V388.5H350.991V389.5H359.279V388.5H367.567V389.5H375.856V388.5H384.144V389.5H392.432V388.5H400.721V389.5H409.009V388.5H417.297V389.5H425.586V388.5H433.874V389.5H442.162V388.5H450.451V389.5H458.739V388.5H462.883C464.377 388.5 465.798 388.203 467.094 387.666L467.477 388.59C470.41 387.373 472.756 385.027 473.973 382.094L473.049 381.71C473.586 380.415 473.883 378.993 473.883 377.5V373.581H474.883V365.743H473.883V357.904H474.883V350.066H473.883V342.228H474.883V334.389H473.883V326.551H474.883V318.713H473.883V310.874H474.883V303.036H473.883V295.198H474.883V287.359H473.883V279.521H474.883V271.683H473.883V263.844H474.883V256.006H473.883V253.087H470.903V252.087H462.941V253.087H454.98V252.087H447.018V253.087H439.057V252.087H431.095V253.087H423.134V252.087H415.172V253.087H407.211V252.087H399.25V253.087H391.288V252.087H383.327V253.087H375.365V252.087H367.404V253.087H359.442V252.087H351.481V253.087H343.519V252.087H335.558V253.087H327.597V252.087H319.635V253.087H311.674V252.087H303.712V253.087H295.751V252.087H287.789V253.087H279.828V252.087H271.867V253.087H263.905V252.087H255.944V253.087H252.963V256.006H251.963V263.844H252.963V271.683H251.963V279.521H252.963V287.359H251.963V295.198H252.963V303.036H251.963V310.874H252.963V318.713H251.963V326.551H252.963V334.389H251.963V342.228H252.963V350.066H251.963V357.904H252.963V365.743H251.963V373.581H252.963V377.5C252.963 378.993 253.26 380.415 253.797 381.71L252.873 382.094Z" stroke="black" stroke-width="2" stroke-dasharray="8 8"/>
<path d="M147.907 160.47C144.974 161.687 142.627 164.033 141.411 166.966L142.335 167.349C141.797 168.645 141.5 170.066 141.5 171.56V175.321H140.5V182.843H141.5V190.365H140.5V197.886H141.5V205.408H140.5V212.93H141.5V220.452H140.5V227.974H141.5V235.496H140.5V243.018H141.5V250.54H140.5V258.062H141.5V265.583H140.5V273.105H141.5V280.627H140.5V288.149H141.5V291.91C141.5 293.403 141.797 294.825 142.335 296.12L141.411 296.503C142.627 299.437 144.974 301.783 147.907 302.999L148.29 302.076C149.586 302.613 151.007 302.91 152.5 302.91H156.578V303.91H164.734V302.91H172.89V303.91H181.046V302.91H189.202V303.91H197.358V302.91H205.514V303.91H213.67V302.91H221.826V303.91H229.982V302.91H238.138V303.91H246.293V302.91H254.449V303.91H262.605V302.91H270.761V303.91H278.917V302.91H281.995V299.9H282.995V291.881H281.995V283.861H282.995V275.842H281.995V267.822H282.995V259.803H281.995V251.784H282.995V243.764H281.995V235.745H282.995V227.725H281.995V219.706H282.995V211.686H281.995V203.667H282.995V195.647H281.995V187.628H282.995V179.608H281.995V171.589H282.995V163.57H281.995V160.56H278.917V159.56H270.761V160.56H262.605V159.56H254.449V160.56H246.293V159.56H238.138V160.56H229.982V159.56H221.826V160.56H213.67V159.56H205.514V160.56H197.358V159.56H189.202V160.56H181.046V159.56H172.89V160.56H164.734V159.56H156.578V160.56H152.5C151.007 160.56 149.586 160.857 148.29 161.394L147.907 160.47Z" stroke="black" stroke-width="2" stroke-dasharray="8 8"/>
<path d="M586.589 166.955C585.373 164.021 583.027 161.675 580.093 160.459L579.71 161.382C578.415 160.845 576.993 160.548 575.5 160.548H571.422V159.548H563.266V160.548H555.11V159.548H546.954V160.548H538.798V159.548H530.642V160.548H522.487V159.548H514.331V160.548H506.175V159.548H498.019V160.548H489.863V159.548H481.707V160.548H473.551V159.548H465.395V160.548H457.239V159.548H449.083V160.548H446.005V163.558H445.005V171.577H446.005V179.597H445.005V187.616H446.005V195.636H445.005V203.655H446.005V211.675H445.005V219.694H446.005V227.713H445.005V235.733H446.005V243.752H445.005V251.772H446.005V259.791H445.005V267.811H446.005V275.83H445.005V283.85H446.005V291.869H445.005V299.889H446.005V302.898H449.083V303.898H457.239V302.898H465.395V303.898H473.551V302.898H481.707V303.898H489.863V302.898H498.019V303.898H506.175V302.898H514.331V303.898H522.487V302.898H530.642V303.898H538.798V302.898H546.954V303.898H555.11V302.898H563.266V303.898H571.422V302.898H575.5C576.993 302.898 578.415 302.601 579.71 302.064L580.093 302.988C583.027 301.771 585.373 299.425 586.589 296.492L585.666 296.109C586.203 294.813 586.5 293.392 586.5 291.898V288.137H587.5V280.615H586.5V273.094H587.5V265.572H586.5V258.05H587.5V250.528H586.5V243.006H587.5V235.484H586.5V227.962H587.5V220.44H586.5V212.918H587.5V205.397H586.5V197.875H587.5V190.353H586.5V182.831H587.5V175.309H586.5V171.548C586.5 170.055 586.203 168.633 585.666 167.338L586.589 166.955Z" stroke="black" stroke-width="2" stroke-dasharray="8 8"/>
<g filter="url(#filter0_f_1699_1157)">
<path d="M455.686 232.652C455.686 222.001 464.258 213.36 474.883 213.229V165.548C474.883 162.234 472.197 159.548 468.883 159.548H382.85V165.567C382.85 176.295 374.157 185.001 363.423 185.001C352.689 185.001 343.996 176.306 343.996 165.567V159.548H257.963C254.649 159.548 251.963 162.234 251.963 165.548V213.218H252.662C263.385 213.218 272.088 221.913 272.088 232.652C272.088 243.379 263.396 252.086 252.662 252.086H251.963V297.909C251.963 301.223 254.649 303.909 257.963 303.909H343.996V297.89C343.996 287.163 352.689 278.456 363.423 278.456C374.157 278.456 382.85 287.152 382.85 297.89V303.909H468.883C472.197 303.909 474.883 301.223 474.883 297.909V252.075C464.258 251.955 455.686 243.314 455.686 232.652Z" fill="#FDEA2E"/>
</g>
<path d="M455.684 232.652C455.684 222.001 464.256 213.36 474.881 213.229V165.548C474.881 162.234 472.195 159.548 468.881 159.548H382.848V165.567C382.848 176.295 374.155 185.001 363.421 185.001C352.687 185.001 343.995 176.306 343.995 165.567V159.548H257.961C254.647 159.548 251.961 162.234 251.961 165.548V213.218H252.66C263.383 213.218 272.086 221.913 272.086 232.652C272.086 243.379 263.394 252.086 252.66 252.086H251.961V297.909C251.961 301.223 254.647 303.909 257.961 303.909H343.995V297.89C343.995 287.163 352.687 278.456 363.421 278.456C374.155 278.456 382.848 287.152 382.848 297.89V303.909H468.881C472.195 303.909 474.881 301.223 474.881 297.909V252.075C464.256 251.955 455.684 243.314 455.684 232.652Z" fill="#FDEA2E"/>
<path fill-rule="evenodd" clip-rule="evenodd" d="M380.013 212.963H345.797C341.597 212.963 338.739 212.97 336.599 213.257C334.543 213.534 333.591 214.022 332.943 214.67C332.295 215.318 331.807 216.271 331.531 218.328C331.243 220.468 331.237 223.327 331.237 227.529V236.268C331.237 240.47 331.243 243.329 331.531 245.469C331.807 247.526 332.295 248.479 332.943 249.127C333.591 249.775 334.543 250.263 336.599 250.539C338.739 250.827 341.597 250.833 345.797 250.833H380.013C384.214 250.833 387.071 250.827 389.211 250.539C391.267 250.263 392.219 249.775 392.867 249.127C393.515 248.479 394.003 247.526 394.279 245.469C394.567 243.329 394.573 240.47 394.573 236.268V227.529C394.573 223.327 394.567 220.468 394.279 218.328C394.003 216.271 393.515 215.318 392.867 214.67C392.219 214.022 391.267 213.534 389.211 213.257C387.071 212.97 384.214 212.963 380.013 212.963ZM330.884 212.61C328.325 215.17 328.325 219.289 328.325 227.529V236.268C328.325 244.508 328.325 248.627 330.884 251.187C333.443 253.747 337.561 253.747 345.797 253.747H380.013C388.249 253.747 392.368 253.747 394.926 251.187C397.485 248.627 397.485 244.508 397.485 236.268V227.529C397.485 219.289 397.485 215.17 394.926 212.61C392.368 210.05 388.249 210.05 380.013 210.05H345.797C337.561 210.05 333.443 210.05 330.884 212.61Z" fill="#121315"/>
<path fill-rule="evenodd" clip-rule="evenodd" d="M346.022 221.563C346.702 220.883 347.804 220.883 348.484 221.563L357.584 230.667C358.264 231.347 358.264 232.45 357.584 233.13L348.484 242.233C347.804 242.914 346.702 242.914 346.022 242.233C345.342 241.553 345.342 240.45 346.022 239.77L353.891 231.898L346.022 224.027C345.342 223.347 345.342 222.244 346.022 221.563Z" fill="#121315"/>
<path d="M362.631 241.054C362.631 240.088 363.413 239.305 364.378 239.305H379.334C380.305 239.305 381.092 240.093 381.092 241.064C381.092 242.035 380.305 242.823 379.334 242.823H371.861L364.374 242.802C363.41 242.8 362.631 242.018 362.631 241.054Z" fill="#121315"/>
<defs>
<filter id="filter0_f_1699_1157" x="231.963" y="139.548" width="262.92" height="184.361" filterUnits="userSpaceOnUse" color-interpolation-filters="sRGB">
<feFlood flood-opacity="0" result="BackgroundImageFix"/>
<feBlend mode="normal" in="SourceGraphic" in2="BackgroundImageFix" result="shape"/>
<feGaussianBlur stdDeviation="10" result="effect1_foregroundBlur_1699_1157"/>
</filter>
</defs>
</svg>
