<svg version="1.1" xmlns="http://www.w3.org/2000/svg" viewBox="0 0 1205.6367449843199 741.3645206988655" width="3616.9102349529594" height="2224.0935620965965">
  <!-- svg-source:excalidraw -->
  
  <defs>
    <style class="style-fonts">
      @font-face {
        font-family: "Virgil";
        src: url("https://excalidraw.com/Virgil.woff2");
      }
      @font-face {
        font-family: "Cascadia";
        src: url("https://excalidraw.com/Cascadia.woff2");
      }
    </style>
  </defs>
  <rect x="0" y="0" width="1205.6367449843199" height="741.3645206988655" fill="#fff"></rect><g stroke-linecap="round"><g transform="translate(210 370) rotate(0 492.81837249215994 0.6822603494329655)" fill-rule="evenodd"><path d="M0 0 L5.35 -9.7 L27.5 -56.44 L37.7 -74.37 L49.69 -91.71 L63.71 -107.4 L80 -120.39 L97.63 -129.96 L115.98 -136.84 L135.75 -142.07 L210.45 -158.43 L242.79 -167.6 L280 -180.39 L301.27 -188.89 L350.77 -211.11 L498.9 -282.22 L560.6 -310.21 L619.55 -334.12 L647.11 -343.75 L672.95 -351.41 L696.71 -356.77 L718.04 -359.52 L737.4 -359.93 L755.55 -358.56 L772.54 -355.54 L788.45 -351 L803.35 -345.05 L817.3 -337.83 L842.65 -320.08 L865.04 -298.73 L885.02 -274.81 L903.16 -249.31 L920 -223.24 L935.93 -195.25 L950.61 -163.8 L963.44 -129.62 L973.87 -93.43 L981.32 -55.98 L985.2 -17.97 L984.95 19.85 L980 56.76 L970.49 96.1 L957.03 139.99 L939.75 185.88 L918.75 231.22 L894.16 273.47 L880.55 292.64 L866.09 310.07 L850.79 325.46 L834.67 338.47 L817.73 348.8 L800 356.13 L780.9 360.24 L759.98 361.35 L737.47 359.78 L713.59 355.85 L688.56 349.88 L662.6 342.17 L608.75 322.83 L499.53 277.33 L447.68 256.23 L423.21 247.2 L400 239.61 L308.75 214.38 L220 191.06 L178.91 179.29 L141.25 167.01 L107.97 153.9 L80 139.61 L68.26 131.72 L57.97 123.1 L41.25 104.22 L28.91 84.02 L20 63.56 L13.59 43.87 L4.53 11.04 L0 0" stroke="none" stroke-width="0" fill="#7950f233" fill-rule="evenodd"></path><path d="M0 0 C13.33 -20.06, 33.33 -90.32, 80 -120.39 C126.67 -150.45, 173.66 -140.53, 280 -180.39 C386.34 -220.24, 611.37 -352.38, 718.04 -359.52 C824.7 -366.66, 876.34 -292.62, 920 -223.24 C963.66 -153.86, 1000 -39.8, 980 56.76 C960 153.32, 896.67 325.65, 800 356.13 C703.33 386.6, 520 275.7, 400 239.61 C280 203.53, 146.67 179.55, 80 139.61 C13.33 99.68, 13.33 23.27, 0 0" stroke="#000000" stroke-width="1.5" fill="none" stroke-dasharray="1.5 7"></path></g></g><mask></mask><g stroke-linecap="round" transform="translate(748.0357574107823 114.36926519104406) rotate(0 50 50)"><path d="M1.57 1.64 L98.77 -0.13 L99.49 101.49 L-1.64 99.8" stroke="none" stroke-width="0" fill="#fab005"></path><path d="M1.96 1.91 C30.51 0.47, 58.54 0.31, 99.79 0.97 M-0.51 0.57 C29.74 0.14, 57.66 0.74, 100.84 -0.3 M98.04 -0.4 C99.68 30.13, 99.19 62.31, 98.94 99.59 M100.45 -0.8 C99.82 38.38, 99.86 78.72, 100.86 100.32 M99.17 100.43 C68.23 99.62, 39.35 98.92, 1.22 100.67 M99.16 100.46 C66.63 99.17, 34.92 100.12, 0.95 100.76 M-0.6 99.37 C0.15 70.15, -1.54 43.78, 1.82 -0.02 M1 100.86 C0.29 73.69, -0.78 48.63, 0.49 -0.21" stroke="#000000" stroke-width="1" fill="none"></path></g><g stroke-linecap="round" transform="translate(768.0357574107823 134.36926519104406) rotate(0 50 50)"><path d="M1.64 -1.23 L99.87 -0.51 L101.49 98.36 L-0.2 98.65" stroke="none" stroke-width="0" fill="#fab005"></path><path d="M1.91 0.71 C35.14 -2.04, 69.79 -1.2, 100.97 -0.2 M0.57 0.71 C37.43 0.12, 75.78 1.36, 99.7 0.06 M99.6 0.45 C99.92 22.27, 101.51 43.55, 99.59 101.86 M99.2 -0.05 C98.77 28.65, 99.8 58.17, 100.32 99.99 M100.43 98.08 C70.58 98.64, 40.24 100.81, 0.67 100.55 M100.46 99.4 C69.72 99.61, 41.13 100.12, 0.76 99.83 M-0.63 100.19 C-2.32 68.12, -0.42 41.08, -0.02 -0.84 M0.86 100.51 C-1.04 67.27, -0.3 36.14, -0.21 0.78" stroke="#000000" stroke-width="1" fill="none"></path></g><g stroke-linecap="round" transform="translate(788.0357574107823 154.36926519104406) rotate(0 50 50)"><path d="M-1.23 -0.13 L99.49 1.49 L98.36 99.8 L-1.35 100.2" stroke="none" stroke-width="0" fill="#fab005"></path><path d="M0.71 0.33 C27.53 -0.79, 56.97 0.01, 99.8 1.55 M0.71 -0.33 C24.88 -0.31, 51.38 -0.87, 100.06 -0.77 M100.45 -0.45 C98.98 34.83, 97.96 66.97, 101.86 99.73 M99.95 -0.92 C100.44 27, 101.31 54.1, 99.99 99.96 M98.08 100.22 C75.09 99.74, 53.3 100.88, 0.55 99.91 M99.4 99.24 C71.12 100.65, 42.3 101.22, -0.17 100.04 M0.19 98.44 C-1.21 62.71, 2.12 24.71, -0.84 0.44 M0.51 99.49 C-1.56 64.89, -0.51 29.12, 0.78 0.82" stroke="#000000" stroke-width="1" fill="none"></path></g><g transform="translate(795.0357574107823 194.36926519104406) rotate(0 43 10)"><text x="43" y="16" font-family="Cascadia, Segoe UI Emoji" font-size="16px" fill="#000000" text-anchor="middle" style="white-space: pre;" direction="ltr">Service A</text></g><g stroke-linecap="round" transform="translate(748.0357574107823 314.36926519104406) rotate(0 50 50)"><path d="M-0.51 1.49 L98.36 -0.2 L98.65 100.2 L-0.75 100.3" stroke="none" stroke-width="0" fill="#fab005"></path><path d="M-1.06 0.17 C39.35 0.8, 78.93 1.39, 99.05 -1.03 M-0.39 0.26 C36.59 0.04, 71.55 -0.44, 100.37 -0.98 M99.96 1.14 C99.16 27.6, 102.08 55.74, 99.38 100.89 M100 0.11 C100.82 22.34, 99.94 44, 99.4 99.59 M99.05 99.52 C69.06 100.78, 36.23 100.02, -0.13 98.32 M100.45 100.18 C66.34 100, 30.6 99.28, 0.76 99.7 M-1.51 100.35 C1.73 73.14, -0.93 46.76, 1.07 1.99 M-0.56 100.23 C-0.02 61.19, 0.28 23.63, -0.61 -0.07" stroke="#000000" stroke-width="1" fill="none"></path></g><g stroke-linecap="round" transform="translate(768.0357574107823 334.36926519104406) rotate(0 50 50)"><path d="M1.49 -1.64 L99.8 -1.35 L100.2 99.25 L0.3 99.56" stroke="none" stroke-width="0" fill="#fab005"></path><path d="M0.17 -0.21 C34.49 0.34, 68.61 -0.42, 98.97 1.15 M0.26 0.84 C36.84 0.45, 73.5 0.76, 99.02 -0.2 M101.14 -1.06 C99.37 34.09, 99.5 63.83, 100.89 98.4 M100.11 0.86 C99.4 29.52, 99.04 58.46, 99.59 100.22 M99.52 101.22 C80.27 100.08, 59.1 99.39, -1.68 100.92 M100.18 100.95 C76.81 100.28, 52.14 101.21, -0.3 99.68 M0.35 101.82 C0.76 68.23, 1.22 39.22, 1.99 1.72 M0.23 100.49 C0.3 65.73, 1.33 29.28, -0.07 -0.25" stroke="#000000" stroke-width="1" fill="none"></path></g><g stroke-linecap="round" transform="translate(788.0357574107823 354.36926519104406) rotate(0 50 50)"><path d="M-1.64 -0.2 L98.65 0.2 L99.25 100.3 L-0.44 99.94" stroke="none" stroke-width="0" fill="#fab005"></path><path d="M-0.21 0.97 C31.45 1.47, 62.35 -1.11, 101.15 1.43 M0.84 -0.3 C26.72 -1.03, 53.68 -1.24, 99.8 0.22 M98.94 -0.41 C101.84 27.47, 99.36 56.37, 98.4 99.91 M100.86 0.32 C99.98 20.74, 99.39 41.14, 100.22 99.04 M101.22 100.67 C69.45 99.67, 37.67 98.08, 0.92 98.79 M100.95 100.76 C77.41 100.22, 55.93 99.88, -0.32 100.09 M1.82 99.98 C-0.09 78.24, 1.82 57.6, 1.72 1.01 M0.49 99.79 C1.34 75.92, -0.06 50.13, -0.25 0.74" stroke="#000000" stroke-width="1" fill="none"></path></g><g transform="translate(795.0357574107823 394.36926519104406) rotate(0 43 10)"><text x="43" y="16" font-family="Cascadia, Segoe UI Emoji" font-size="16px" fill="#000000" text-anchor="middle" style="white-space: pre;" direction="ltr">Service B</text></g><g stroke-linecap="round" transform="translate(968.0357574107823 214.36926519104406) rotate(0 50 50)"><path d="M-1.35 0.2 L99.25 0.3 L99.56 99.94 L-1.54 101.28" stroke="none" stroke-width="0" fill="#fab005"></path><path d="M-0.2 1.55 C29.89 -1.51, 62.82 0.94, 99.33 -0.78 M0.06 -0.77 C33 -0.68, 65.07 0.52, 99.77 -0.02 M101.86 -0.27 C98.85 36.59, 97.87 71.29, 98.16 99.99 M99.99 -0.04 C100.26 30.71, 101.08 61.3, 100.11 99.53 M100.55 99.91 C72.27 98.66, 45.72 99.12, -1.52 100.9 M99.83 100.04 C68.92 100.46, 35.99 100.85, -0.78 99.25 M-0.84 100.44 C0.16 70.26, 0.81 37.55, -1.02 -1.12 M0.78 100.82 C-1.1 67.63, -0.74 36.14, -0.82 -0.1" stroke="#000000" stroke-width="1" fill="none"></path></g><g stroke-linecap="round" transform="translate(988.0357574107823 234.36926519104406) rotate(0 50 50)"><path d="M0.2 -0.75 L100.3 -0.44 L99.94 98.46 L1.28 99.25" stroke="none" stroke-width="0" fill="#fab005"></path><path d="M1.55 -0.95 C27.9 1.25, 59.28 -0.57, 99.22 0.53 M-0.77 0.37 C37.43 -0.26, 77.04 -0.28, 99.98 0.57 M99.73 -0.62 C100.69 23.11, 99.7 47.57, 99.99 100.23 M99.96 -0.6 C99.91 38.87, 99.36 77.41, 99.53 99.76 M99.91 99.87 C62.2 101.2, 26.55 98.76, 0.9 100.37 M100.04 100.76 C60.16 99.51, 21 99.05, -0.75 100.17 M0.44 101.07 C2.01 62.62, 1.02 20.77, -1.12 0.46 M0.82 99.39 C0.14 64.87, 0.95 29.42, -0.1 -0.67" stroke="#000000" stroke-width="1" fill="none"></path></g><g stroke-linecap="round" transform="translate(1008.0357574107823 254.36926519104406) rotate(0 50 50)"><path d="M-0.75 0.3 L99.56 -0.06 L98.46 101.28 L-0.75 98.84" stroke="none" stroke-width="0" fill="#fab005"></path><path d="M-0.95 -1.03 C35.98 0.65, 68.99 -1.56, 100.53 1.68 M0.37 -0.98 C26.84 0.99, 53.86 0.75, 100.57 -0.53 M99.38 0.89 C99.33 27.88, 99.09 55.94, 100.23 101.73 M99.4 -0.41 C100.2 32.25, 100.1 65.94, 99.76 100.61 M99.87 98.32 C67.59 98.74, 31.81 100.85, 0.37 101.91 M100.76 99.7 C62.07 100.13, 23.99 99.28, 0.17 100.91 M1.07 101.99 C2.14 71.13, -0.6 39.13, 0.46 0.98 M-0.61 99.93 C-1.04 72.83, -1.6 44.07, -0.67 0.1" stroke="#000000" stroke-width="1" fill="none"></path></g><g transform="translate(1015.0357574107823 294.36926519104406) rotate(0 43 10)"><text x="43" y="16" font-family="Cascadia, Segoe UI Emoji" font-size="16px" fill="#000000" text-anchor="middle" style="white-space: pre;" direction="ltr">Service A</text></g><g stroke-linecap="round" transform="translate(230 330) rotate(0 70 30)"><path d="M16.55 -0.95 L130.53 2.09 L137.68 3.08 L138.99 12.01 L140.74 50.97 L134.26 56.35 L125.74 58.04 L8.04 59.51 L3.3 56.21 L1.37 47.46 L-0.17 13.34 L3.48 3.13 L9.33 -0.66 L14.91 -1.84" stroke="none" stroke-width="0" fill="#228be6"></path><path d="M15 0 M15 0 C48.61 -0.98, 80.86 -2.16, 125 0 M15 0 C43.55 0.58, 71.64 1.67, 125 0 M125 0 C135.67 0.55, 139.91 4.87, 140 15 M125 0 C133.07 1.06, 138.61 3.26, 140 15 M140 15 C141.58 25.01, 140.13 37.23, 140 45 M140 15 C139.12 22.34, 140.08 32.11, 140 45 M140 45 C139.98 54.16, 135.44 61.07, 125 60 M140 45 C142.29 56.98, 136.16 58.83, 125 60 M125 60 C97.73 62.1, 72.93 59.31, 15 60 M125 60 C91.91 60.72, 59.78 60.92, 15 60 M15 60 C4.25 60.3, -0.44 54.94, 0 45 M15 60 C3.23 61.47, -0.86 53.67, 0 45 M0 45 C1.06 34.8, -0.85 27.17, 0 15 M0 45 C-0.44 38.94, 0.2 31.4, 0 15 M0 15 C1.47 4.62, 5.7 1.53, 15 0 M0 15 C1.62 6.41, 6.46 1.69, 15 0" stroke="#000000" stroke-width="1" fill="none"></path></g><g stroke-linecap="round" transform="translate(250 350) rotate(0 70 30)"><path d="M14.05 -1.03 L132.71 2.36 L135.58 2.97 L140.29 13.17 L138.47 51.68 L132.6 58.63 L123.04 59.6 L8.88 58.61 L3.71 57.39 L-0.82 48.11 L2.09 11.21 L3.13 4.64 L6.84 0.84 L13.16 -0.01" stroke="none" stroke-width="0" fill="#228be6"></path><path d="M15 0 M15 0 C49.21 -0.43, 82.28 -1.18, 125 0 M15 0 C49.9 -0.36, 86.37 0.21, 125 0 M125 0 C135.55 -0.09, 139.87 3.32, 140 15 M125 0 C136.06 -1.39, 138.26 6.04, 140 15 M140 15 C139.94 24.63, 141.81 33.51, 140 45 M140 15 C139.27 23.22, 140.94 31.09, 140 45 M140 45 C139.16 55.44, 136.07 61.99, 125 60 M140 45 C141.98 56.16, 133.83 58.71, 125 60 M125 60 C91.03 61.41, 52.71 59.64, 15 60 M125 60 C94.68 58.43, 64.66 58.72, 15 60 M15 60 C5.3 59.56, -0.06 53.46, 0 45 M15 60 C6.47 59.14, -1.33 55.65, 0 45 M0 45 C-0.55 35.7, 1.66 26.72, 0 15 M0 45 C0.6 34.39, -0.19 23.72, 0 15 M0 15 C-0.38 5.7, 6.53 1.41, 15 0 M0 15 C1.41 6.46, 6.69 1.81, 15 0" stroke="#000000" stroke-width="1" fill="none"></path></g><g stroke-linecap="round" transform="translate(270 370) rotate(0 70 30)"><path d="M13.97 1.15 L132.99 0.27 L135.47 4.28 L141.45 10.89 L139.18 50.02 L134.88 55.93 L124.6 60.45 L7.98 59.02 L4.89 55.19 L-0.17 50.38 L-0.04 10.86 L4.64 2.15 L8.34 -0.91 L14.99 0.23" stroke="none" stroke-width="0" fill="#228be6"></path><path d="M15 0 M15 0 C57.44 -1.19, 99.2 0.45, 125 0 M15 0 C37.2 1.13, 60.22 0.8, 125 0 M125 0 C134.91 -0.13, 138.32 5.92, 140 15 M125 0 C133.61 -1.74, 141.04 5.42, 140 15 M140 15 C140.3 28.39, 139.63 38.09, 140 45 M140 15 C139.94 25.19, 139.75 33.14, 140 45 M140 45 C140.44 56.07, 136.99 61.72, 125 60 M140 45 C141.16 53.83, 133.71 60.53, 125 60 M125 60 C88.27 59.63, 48.13 60.36, 15 60 M125 60 C83.13 59.99, 42.24 60.04, 15 60 M15 60 C4.56 59.94, -1.54 56.28, 0 45 M15 60 C4.14 58.67, 0.65 54.53, 0 45 M0 45 C-1.06 35.88, -1.65 24.39, 0 15 M0 45 C0.47 35.05, 0.81 25.11, 0 15 M0 15 C0.7 6.53, 6.41 1.23, 15 0 M0 15 C1.46 6.69, 6.81 -2.13, 15 0" stroke="#000000" stroke-width="1" fill="none"></path></g><g transform="translate(287.5 390) rotate(0 52.5 10)"><text x="52.5" y="16" font-family="Cascadia, Segoe UI Emoji" font-size="16px" fill="#000000" text-anchor="middle" style="white-space: pre;" direction="ltr">API Gateway</text></g><g stroke-linecap="round"><g transform="translate(888.0357574107823 194.36926519104406) rotate(0 40 40)"><path d="M0 0 C13.33 13.33, 66.67 66.67, 80 80" stroke="#000000" stroke-width="1.5" fill="none" stroke-dasharray="8 9"></path></g></g><mask></mask><g stroke-linecap="round" transform="translate(968.0357574107823 414.36926519104406) rotate(0 50 50)"><path d="M0.56 -0.41 L101.32 1 L99.65 99.09 L1.86 98.5" stroke="none" stroke-width="0" fill="#fab005"></path><path d="M-0.59 0.12 C24.56 -0.1, 50.24 -1.24, 100.45 -0.45 M-0.2 0.93 C29.67 0.22, 60.06 -0.27, 99.95 -0.92 M100.64 -0.03 C100.04 28.76, 99.28 60.37, 98.08 100.22 M100.33 0.28 C99.71 25.18, 98.92 50.96, 99.4 99.24 M101.52 99.66 C65.56 102.48, 30.38 100.32, 0.19 98.44 M99.99 99.58 C77.75 101.44, 56.06 101.77, 0.51 99.49 M-0.42 101.57 C1.41 74.36, -0.36 50.67, 1.49 -1.64 M-0.38 100.15 C0.45 70.99, -0.1 42.67, -0.37 -0.58" stroke="#000000" stroke-width="1" fill="none"></path></g><g stroke-linecap="round" transform="translate(988.0357574107823 434.36926519104406) rotate(0 50 50)"><path d="M-0.41 1.32 L101 -0.35 L99.09 101.86 L-1.5 101.34" stroke="none" stroke-width="0" fill="#fab005"></path><path d="M0.12 -1.54 C33.37 -1.66, 64.87 0.74, 99.55 -0.04 M0.93 -0.13 C35.38 0.65, 70.59 0.16, 99.08 0 M99.97 -0.07 C99.66 30.3, 101.3 60.34, 100.22 99.05 M100.28 -0.05 C100.54 26.76, 101.07 54.6, 99.24 100.45 M99.66 100.07 C69.68 100.16, 35.68 100.95, -1.56 98.49 M99.58 100.22 C68.8 100.98, 37.4 100.49, -0.51 99.44 M1.57 101.64 C-1.72 67.57, -0.99 36.89, -1.64 -0.2 M0.15 99.78 C-0.13 75.97, 0.54 53.09, -0.58 0.28" stroke="#000000" stroke-width="1" fill="none"></path></g><g stroke-linecap="round" transform="translate(1008.0357574107823 454.36926519104406) rotate(0 50 50)"><path d="M1.32 1 L99.65 -0.91 L101.86 98.5 L1.34 100.57" stroke="none" stroke-width="0" fill="#fab005"></path><path d="M-1.54 0.74 C36.45 -0.46, 77.26 -0.51, 99.96 1.14 M-0.13 -0.31 C25.15 -1.73, 49.37 -1.85, 100 0.11 M99.93 -1.21 C99.49 39.08, 98.4 77.52, 99.05 99.52 M99.95 -0.07 C99.49 36.58, 99.73 71.48, 100.45 100.18 M100.07 101.53 C59.85 99.2, 21.1 98.27, -1.51 100.35 M100.22 100.53 C61.89 100.44, 22.3 99.07, -0.56 100.23 M1.64 98.77 C0.08 64.61, 1.7 28.6, -0.2 -1.35 M-0.22 99.97 C-0.39 69.63, 0 37.41, 0.28 -0.2" stroke="#000000" stroke-width="1" fill="none"></path></g><g transform="translate(1015.0357574107823 494.36926519104406) rotate(0 43 10)"><text x="43" y="16" font-family="Cascadia, Segoe UI Emoji" font-size="16px" fill="#000000" text-anchor="middle" style="white-space: pre;" direction="ltr">Service B</text></g><g stroke-linecap="round" transform="translate(748.0357574107823 514.3692651910441) rotate(0 50 50)"><path d="M-0.35 -0.91 L101.86 -1.5 L101.34 100.57 L-0.48 101.37" stroke="none" stroke-width="0" fill="#fab005"></path><path d="M-1.96 -0.4 C31.03 -0.82, 61.13 0.77, 98.94 -0.41 M0.45 -0.8 C39.25 -0.61, 78.6 0.42, 100.86 0.32 M99.17 0.43 C98.04 30.07, 99.01 59.22, 101.22 100.67 M99.16 0.46 C99.35 32.01, 100.4 65.72, 100.95 100.76 M99.4 99.37 C71.9 99.2, 41.92 101.11, 1.82 99.98 M101 100.86 C74.7 100.02, 47.84 100.76, 0.49 99.79 M-0.13 99.49 C0.67 60.53, -1.02 23, 0.2 -0.75 M-0.77 100.64 C-0.15 67.92, 0.5 36.8, 0.66 0.5" stroke="#000000" stroke-width="1" fill="none"></path></g><g stroke-linecap="round" transform="translate(768.0357574107823 534.3692651910441) rotate(0 50 50)"><path d="M-0.91 1.86 L98.5 1.34 L100.57 99.52 L1.37 100.79" stroke="none" stroke-width="0" fill="#fab005"></path><path d="M-0.4 0.45 C21.85 0.94, 45.75 -0.08, 99.59 1.86 M-0.8 -0.05 C27.73 -0.45, 57.42 0.42, 100.32 -0.01 M100.43 -1.92 C99.62 28.69, 98.92 60.5, 100.67 100.55 M100.46 -0.6 C99.17 29.98, 100.12 60.01, 100.76 99.83 M99.37 100.19 C68.07 98.19, 39.61 101.52, -0.02 99.16 M100.86 100.51 C67.31 100.44, 35.88 101.48, -0.21 100.78 M-0.51 101.49 C-1.02 61.59, -0.73 23.79, -0.75 0.3 M0.64 99.63 C-0.55 72.5, -0.17 45.09, 0.5 -0.18" stroke="#000000" stroke-width="1" fill="none"></path></g><g stroke-linecap="round" transform="translate(788.0357574107823 554.3692651910441) rotate(0 50 50)"><path d="M1.86 -1.5 L101.34 0.57 L99.52 101.37 L0.79 99.8" stroke="none" stroke-width="0" fill="#fab005"></path><path d="M0.45 -0.45 C33.65 1.34, 66.32 -0.21, 101.86 -0.27 M-0.05 -0.92 C26.89 0.91, 54.65 1.12, 99.99 -0.04 M98.08 0.22 C98.64 23.48, 100.81 48.59, 100.55 99.91 M99.4 -0.76 C99.61 29.51, 100.12 59.42, 99.83 100.04 M100.19 98.44 C60.86 100.03, 26.56 99.66, -0.84 100.44 M100.51 99.49 C64.1 101.09, 29.81 100.65, 0.78 100.82 M1.49 98.36 C-0.14 74.8, 0.27 51.54, 0.3 -0.44 M-0.37 99.42 C1.05 70.1, 1.43 41.1, -0.18 -0.46" stroke="#000000" stroke-width="1" fill="none"></path></g><g transform="translate(795.0357574107823 594.3692651910441) rotate(0 43 10)"><text x="43" y="16" font-family="Cascadia, Segoe UI Emoji" font-size="16px" fill="#000000" text-anchor="middle" style="white-space: pre;" direction="ltr">Service B</text></g><g stroke-linecap="round"><g transform="translate(888.0357574107823 254.36926519104406) rotate(0 50 80)"><path d="M0 0 C16.67 26.67, 83.33 133.33, 100 160" stroke="#000000" stroke-width="1.5" fill="none" stroke-dasharray="8 9"></path></g></g><mask></mask><g stroke-linecap="round"><g transform="translate(1068.0357574107823 354.36926519104406) rotate(0 -20 30)"><path d="M0 0 C-6.67 10, -33.33 50, -40 60" stroke="#000000" stroke-width="1.5" fill="none" stroke-dasharray="8 9"></path></g></g><mask></mask><g stroke-linecap="round"><g transform="translate(988.0357574107823 334.36926519104406) rotate(0 -60 100)"><path d="M0 0 C-20 33.33, -100 166.67, -120 200" stroke="#000000" stroke-width="1.5" fill="none" stroke-dasharray="8 9"></path></g></g><mask></mask><g stroke-linecap="round"><g transform="translate(968.0357574107823 214.36926519104406) rotate(0 -60 50)"><path d="M0 0 C-20 16.67, -100 83.33, -120 100" stroke="#000000" stroke-width="1.5" fill="none" stroke-dasharray="8 9"></path></g></g><mask></mask><g stroke-linecap="round"><g transform="translate(888.0357574107823 634.3692651910441) rotate(0 100 -40)"><path d="M0 0 C33.33 -13.33, 166.67 -66.67, 200 -80" stroke="#000000" stroke-width="1.5" fill="none" stroke-dasharray="8 9"></path></g></g><mask></mask><g stroke-linecap="round"><g transform="translate(808.0357574107823 514.3692651910441) rotate(0 20 -30)"><path d="M0 0 C6.67 -10, 33.33 -50, 40 -60" stroke="#000000" stroke-width="1.5" fill="none" stroke-dasharray="8 9"></path></g></g><mask></mask><g stroke-linecap="round" transform="translate(28.035757410782253 310) rotate(0 30 50)"><path d="M13.64 -1.47 L48.44 2.16 L55.69 7.68 L62.89 9.85 L60.42 86.39 L58.22 93.71 L53.49 98.67 L14.59 97.87 L3.8 100.19 L3.79 90.23 L-1.33 12.54 L7.11 2.57 L15.23 -3.08" stroke="none" stroke-width="0" fill="#e64980"></path><path d="M15 0 M15 0 C26 -0.79, 35.14 2.4, 45 0 M15 0 C22.14 -1.18, 30.72 -2.15, 45 0 M45 0 C54.81 -3.69, 59.99 5.45, 60 15 M45 0 C58.98 1.47, 59.93 4.83, 60 15 M60 15 C55.58 32.21, 57.52 47.59, 60 85 M60 15 C60.37 40.15, 58.79 66.49, 60 85 M60 85 C57.58 91.97, 56.8 100.74, 45 100 M60 85 C64.39 98.5, 54.21 100.17, 45 100 M45 100 C34.08 96.69, 19.41 100.5, 15 100 M45 100 C33.7 100.82, 23.53 101.47, 15 100 M15 100 C7.02 97.96, -2.24 95.92, 0 85 M15 100 C7.24 99.04, 3.6 98.77, 0 85 M0 85 C3.07 65.03, -0.31 48.91, 0 15 M0 85 C0.08 63.24, -1.01 42.87, 0 15 M0 15 C-1.5 2.68, 6.13 -0.81, 15 0 M0 15 C3.03 7.3, 4.19 -2.1, 15 0" stroke="#343a40" stroke-width="2" fill="none"></path></g><g stroke-linecap="round" transform="translate(48.03575741078225 382) rotate(0 10 10)"><path d="M15.35 1.41 C17.75 2.71, 20.42 5.61, 21.07 7.52 C21.72 9.44, 19.92 11.2, 19.25 12.9 C18.58 14.6, 18.89 16.53, 17.06 17.73 C15.22 18.93, 10.89 20.51, 8.25 20.12 C5.6 19.73, 2.51 16.67, 1.19 15.39 C-0.12 14.11, 0.24 14.47, 0.37 12.44 C0.49 10.42, 0.64 5.07, 1.93 3.22 C3.22 1.37, 5.47 1.3, 8.09 1.35 C10.71 1.39, 16.06 3.41, 17.65 3.48 C19.25 3.55, 18.25 1.83, 17.64 1.76 M17.15 -0.68 C19.08 -0.35, 18.3 3.61, 19.07 5.49 C19.84 7.37, 22.43 8.8, 21.75 10.63 C21.07 12.45, 17.14 15.1, 15 16.46 C12.86 17.81, 10.91 18.85, 8.92 18.78 C6.92 18.7, 4.52 17.82, 3.02 16.03 C1.52 14.24, -0.25 10.27, -0.08 8.05 C0.08 5.83, 2.99 3.89, 4.03 2.73 C5.07 1.56, 4.5 1, 6.17 1.07 C7.85 1.14, 12.43 3.18, 14.08 3.14 C15.73 3.1, 16.3 0.53, 16.1 0.82" stroke="none" stroke-width="0" fill="#fff"></path><path d="M18.64 3.38 C19.59 4.85, 20.23 8.6, 20.11 10.87 C19.98 13.15, 19.2 15.67, 17.88 17.03 C16.56 18.39, 14.68 18.67, 12.2 19.03 C9.73 19.4, 4.81 20.43, 3.06 19.21 C1.31 17.99, 2.18 13.89, 1.71 11.71 C1.25 9.52, -0.74 8.01, 0.25 6.1 C1.24 4.19, 5.54 1.46, 7.66 0.25 C9.77 -0.95, 10.74 -2.37, 12.92 -1.14 C15.1 0.09, 19.85 4.9, 20.73 7.62 C21.61 10.34, 18.55 14.85, 18.18 15.18 M18.18 1.17 C20.07 2.49, 18.83 6.27, 18.61 8.35 C18.39 10.44, 17.97 11.95, 16.84 13.71 C15.71 15.46, 13.28 17.43, 11.83 18.87 C10.39 20.31, 9.62 22.83, 8.15 22.35 C6.68 21.88, 4.39 18.46, 3.02 16.03 C1.64 13.59, 0.17 9.76, -0.1 7.73 C-0.37 5.71, 0.41 5.1, 1.4 3.88 C2.39 2.66, 3.74 0.92, 5.84 0.41 C7.93 -0.09, 12.09 0.47, 13.97 0.86 C15.85 1.25, 16.83 2.51, 17.12 2.75" stroke="#343a40" stroke-width="2" fill="none"></path></g><g stroke-linecap="round"><g transform="translate(130 366.2798609504539) rotate(0 30 0)"><path d="M0 0 C6 0, 26 0, 36 0 C46 0, 56 0, 60 0 M0 0 C6 0, 26 0, 36 0 C46 0, 56 0, 60 0" stroke="#000000" stroke-width="1" fill="none"></path></g><g transform="translate(130 366.2798609504539) rotate(0 30 0)"><path d="M60 0 L46.41 6.34 L46.41 -6.34 L60 0" stroke="none" stroke-width="0" fill="#000000" fill-rule="evenodd"></path><path d="M60 0 C54.95 2.35, 49.9 4.71, 46.41 6.34 M60 0 C55.62 2.04, 51.24 4.09, 46.41 6.34 M46.41 6.34 C46.41 2.59, 46.41 -1.15, 46.41 -6.34 M46.41 6.34 C46.41 3.75, 46.41 1.17, 46.41 -6.34 M46.41 -6.34 C49.66 -4.82, 52.92 -3.3, 60 0 M46.41 -6.34 C50.61 -4.38, 54.81 -2.42, 60 0 M60 0 C60 0, 60 0, 60 0 M60 0 C60 0, 60 0, 60 0" stroke="#000000" stroke-width="1" fill="none"></path></g></g><mask></mask><g transform="translate(10 418.69528111518173) rotate(0 48 10)"><text x="48" y="16" font-family="Cascadia, Segoe UI Emoji" font-size="16px" fill="#000000" text-anchor="middle" style="white-space: pre;" direction="ltr">Mobile/Web</text></g><g stroke-linecap="round"><g transform="translate(130 386.2798609504539) rotate(0 30 0)"><path d="M0 0 C6 0, 26 0, 36 0 C46 0, 56 0, 60 0 M0 0 C6 0, 26 0, 36 0 C46 0, 56 0, 60 0" stroke="#000000" stroke-width="1" fill="none"></path></g><g transform="translate(130 386.2798609504539) rotate(0 30 0)"><path d="M60 0 L46.41 6.34 L46.41 -6.34 L60 0" stroke="none" stroke-width="0" fill="#000000" fill-rule="evenodd"></path><path d="M60 0 C55.31 2.19, 50.63 4.37, 46.41 6.34 M60 0 C56.49 1.64, 52.97 3.28, 46.41 6.34 M46.41 6.34 C46.41 3.6, 46.41 0.86, 46.41 -6.34 M46.41 6.34 C46.41 2.92, 46.41 -0.51, 46.41 -6.34 M46.41 -6.34 C51.84 -3.81, 57.27 -1.27, 60 0 M46.41 -6.34 C50.39 -4.48, 54.38 -2.62, 60 0 M60 0 C60 0, 60 0, 60 0 M60 0 C60 0, 60 0, 60 0" stroke="#000000" stroke-width="1" fill="none"></path></g></g><mask></mask><g stroke-linecap="round"><g transform="translate(130 346.2798609504539) rotate(0 30 0)"><path d="M0 0 C6 0, 26 0, 36 0 C46 0, 56 0, 60 0 M0 0 C6 0, 26 0, 36 0 C46 0, 56 0, 60 0" stroke="#000000" stroke-width="1" fill="none"></path></g><g transform="translate(130 346.2798609504539) rotate(0 30 0)"><path d="M60 0 L46.41 6.34 L46.41 -6.34 L60 0" stroke="none" stroke-width="0" fill="#000000" fill-rule="evenodd"></path><path d="M60 0 C57.01 1.4, 54.01 2.79, 46.41 6.34 M60 0 C55.63 2.04, 51.26 4.08, 46.41 6.34 M46.41 6.34 C46.41 1.95, 46.41 -2.44, 46.41 -6.34 M46.41 6.34 C46.41 2.94, 46.41 -0.47, 46.41 -6.34 M46.41 -6.34 C51.65 -3.89, 56.9 -1.45, 60 0 M46.41 -6.34 C50.14 -4.6, 53.87 -2.86, 60 0 M60 0 C60 0, 60 0, 60 0 M60 0 C60 0, 60 0, 60 0" stroke="#000000" stroke-width="1" fill="none"></path></g></g><mask></mask><g stroke-linecap="round" transform="translate(490 330) rotate(0 70 30)"><path d="M14.66 -0.1 L133.3 2.71 L136.03 5.15 L138.62 11.95 L137.87 51.19 L132.4 57.32 L125.74 59.27 L7.13 57.41 L3.32 54.8 L2.11 49.98 L1.47 10.71 L2.22 3.28 L10.08 1.49 L13.14 -0.14" stroke="none" stroke-width="0" fill="#868e96"></path><path d="M15 0 M15 0 C52.1 0.5, 86.65 0.41, 125 0 M15 0 C42.53 1.58, 70.46 0.8, 125 0 M125 0 C135.41 0.26, 139.79 4.24, 140 15 M125 0 C135.08 -0.1, 141.34 4.11, 140 15 M140 15 C141.82 22.32, 141.92 29.53, 140 45 M140 15 C139.72 21.28, 140.42 28.32, 140 45 M140 45 C141.91 54.18, 136.15 60.3, 125 60 M140 45 C140 55.36, 133.26 61.09, 125 60 M125 60 C85.28 60.58, 42.06 57.7, 15 60 M125 60 C91.41 59.23, 56.93 59.91, 15 60 M15 60 C4.32 58.72, -0.55 55.79, 0 45 M15 60 C3.71 61.1, -0.84 56.38, 0 45 M0 45 C-0.95 34.41, 0.91 23.56, 0 15 M0 45 C0.77 36.8, 0.19 30.23, 0 15 M0 15 C-1.75 4.86, 3.73 -1.06, 15 0 M0 15 C-1.95 6.32, 4.87 -2.14, 15 0" stroke="#000000" stroke-width="1" fill="none"></path></g><g stroke-linecap="round" transform="translate(510 350) rotate(0 70 30)"><path d="M14.9 1.74 L133.33 0.71 L137.65 2.61 L140.24 10.29 L138.69 49.82 L133.57 58.63 L124.27 58.69 L6.78 58.63 L2.3 58.12 L1.69 49.75 L-0.54 9.95 L3.28 5.4 L8.99 -0.92 L14.86 0.69" stroke="none" stroke-width="0" fill="#868e96"></path><path d="M15 0 M15 0 C55.76 -2.15, 96.2 -1.02, 125 0 M15 0 C38.03 -0.22, 59.63 0.98, 125 0 M125 0 C135.26 -0.21, 139.24 5.07, 140 15 M125 0 C134.9 1.34, 139.11 3.9, 140 15 M140 15 C139.73 26.94, 139.37 33.5, 140 45 M140 15 C139.72 23.88, 140.41 32.76, 140 45 M140 45 C139.18 56.15, 135.3 60, 125 60 M140 45 C140.36 53.26, 136.09 61.58, 125 60 M125 60 C88.49 58.65, 47.56 60.66, 15 60 M125 60 C80.91 60.61, 37.64 60.19, 15 60 M15 60 C3.72 59.45, 0.79 53.87, 0 45 M15 60 C6.1 59.16, 1.38 57.01, 0 45 M0 45 C0.89 35.86, 1.68 23.75, 0 15 M0 45 C-0.45 37.83, 0.59 29.78, 0 15 M0 15 C-0.14 3.73, 3.94 -1.69, 15 0 M0 15 C1.32 4.87, 2.86 -1.71, 15 0" stroke="#000000" stroke-width="1" fill="none"></path></g><g stroke-linecap="round" transform="translate(530 370) rotate(0 70 30)"><path d="M16.74 1.77 L131.34 2.34 L135.11 4.22 L138.57 11.11 L137.32 50.99 L134.88 57.16 L123.69 58.35 L8.01 57.62 L5.62 57.71 L1.47 47.74 L-1.3 11.02 L5.4 4.31 L6.58 0.8 L15.69 1.37" stroke="none" stroke-width="0" fill="#868e96"></path><path d="M15 0 M15 0 C43.24 0, 74.6 -2.06, 125 0 M15 0 C37.85 -0.84, 62.9 -0.59, 125 0 M125 0 C134.79 -0.76, 140.07 4.92, 140 15 M125 0 C136.34 -0.89, 138.9 5.87, 140 15 M140 15 C142.06 23.12, 138.49 32.04, 140 45 M140 15 C140.41 22.52, 140.89 28.4, 140 45 M140 45 C141.15 55.3, 135 60.31, 125 60 M140 45 C138.26 56.09, 136.58 61.06, 125 60 M125 60 C99.84 59.52, 78.5 62.84, 15 60 M125 60 C98.49 60.41, 71.48 59.21, 15 60 M15 60 C4.45 60.79, -1.13 55.96, 0 45 M15 60 C4.16 61.38, 2.01 55.89, 0 45 M0 45 C1.15 36.4, -0.8 22.94, 0 15 M0 45 C-0.17 37.81, -1.05 29.64, 0 15 M0 15 C-1.27 3.94, 3.31 1.14, 15 0 M0 15 C-0.13 2.86, 3.29 1.35, 15 0" stroke="#000000" stroke-width="1" fill="none"></path></g><g transform="translate(585 390) rotate(0 15 10)"><text x="15" y="16" font-family="Cascadia, Segoe UI Emoji" font-size="16px" fill="#000000" text-anchor="middle" style="white-space: pre;" direction="ltr">BFF</text></g><g stroke-linecap="round"><g transform="translate(430 370) rotate(0 20 0)"><path d="M0 0 C6.67 0, 33.33 0, 40 0 M0 0 C6.67 0, 33.33 0, 40 0" stroke="#000000" stroke-width="1" fill="none"></path></g><g transform="translate(430 370) rotate(0 20 0)"><path d="M40 0 L26.41 6.34 L26.41 -6.34 L40 0" stroke="none" stroke-width="0" fill="#000000" fill-rule="evenodd"></path><path d="M40 0 C36.82 1.48, 33.63 2.97, 26.41 6.34 M40 0 C36.39 1.68, 32.78 3.37, 26.41 6.34 M26.41 6.34 C26.41 3.18, 26.41 0.02, 26.41 -6.34 M26.41 6.34 C26.41 1.39, 26.41 -3.56, 26.41 -6.34 M26.41 -6.34 C31.8 -3.82, 37.2 -1.3, 40 0 M26.41 -6.34 C29.48 -4.9, 32.56 -3.47, 40 0 M40 0 C40 0, 40 0, 40 0 M40 0 C40 0, 40 0, 40 0" stroke="#000000" stroke-width="1" fill="none"></path></g></g><mask></mask><g stroke-linecap="round"><g transform="translate(690 370) rotate(0 20 0)"><path d="M0 0 C6.67 0, 33.33 0, 40 0 M0 0 C6.67 0, 33.33 0, 40 0" stroke="#000000" stroke-width="1" fill="none"></path></g><g transform="translate(690 370) rotate(0 20 0)"><path d="M40 0 L26.41 6.34 L26.41 -6.34 L40 0" stroke="none" stroke-width="0" fill="#000000" fill-rule="evenodd"></path><path d="M40 0 C35.32 2.18, 30.63 4.37, 26.41 6.34 M40 0 C36.96 1.42, 33.92 2.83, 26.41 6.34 M26.41 6.34 C26.41 1.78, 26.41 -2.78, 26.41 -6.34 M26.41 6.34 C26.41 2.3, 26.41 -1.74, 26.41 -6.34 M26.41 -6.34 C30.14 -4.6, 33.88 -2.86, 40 0 M26.41 -6.34 C31.16 -4.12, 35.92 -1.9, 40 0 M40 0 C40 0, 40 0, 40 0 M40 0 C40 0, 40 0, 40 0" stroke="#000000" stroke-width="1" fill="none"></path></g></g><mask></mask></svg>