<svg width="449" height="121" viewBox="0 0 449 121" fill="none" xmlns="http://www.w3.org/2000/svg">
<path fill-rule="evenodd" clip-rule="evenodd" d="M142 8.85693H48C36.4601 8.85693 28.61 8.87392 22.7315 9.66428C17.083 10.4237 14.4669 11.7627 12.6863 13.5432C10.9057 15.3238 9.56675 17.94 8.80734 23.5884C8.01699 29.467 8 37.3171 8 48.8569V72.8569C8 84.3968 8.01699 92.2469 8.80734 98.1255C9.56675 103.774 10.9057 106.39 12.6863 108.171C14.4669 109.951 17.083 111.29 22.7315 112.05C28.61 112.84 36.4601 112.857 48 112.857H142C153.54 112.857 161.39 112.84 167.269 112.05C172.917 111.29 175.533 109.951 177.314 108.171C179.094 106.39 180.433 103.774 181.193 98.1255C181.983 92.2469 182 84.3968 182 72.8569V48.8569C182 37.3171 181.983 29.467 181.193 23.5884C180.433 17.94 179.094 15.3238 177.314 13.5432C175.533 11.7627 172.917 10.4237 167.269 9.66428C161.39 8.87392 153.54 8.85693 142 8.85693ZM7.02944 7.88637C0 14.9158 0 26.2295 0 48.8569V72.8569C0 95.4844 0 106.798 7.02944 113.827C14.0589 120.857 25.3726 120.857 48 120.857H142C164.627 120.857 175.941 120.857 182.971 113.827C190 106.798 190 95.4844 190 72.8569V48.8569C190 26.2295 190 14.9158 182.971 7.88637C175.941 0.856934 164.627 0.856934 142 0.856934H48C25.3726 0.856934 14.0589 0.856934 7.02944 7.88637Z" fill="black"/>
<path fill-rule="evenodd" clip-rule="evenodd" d="M48.6176 32.4745C50.4856 30.6065 53.5143 30.6065 55.3824 32.4745L80.3824 57.4745C82.2504 59.3426 82.2504 62.3713 80.3824 64.2393L55.3824 89.2393C53.5143 91.1074 50.4856 91.1074 48.6176 89.2393C46.7495 87.3713 46.7495 84.3426 48.6176 82.4745L70.2352 60.8569L48.6176 39.2393C46.7495 37.3713 46.7495 34.3426 48.6176 32.4745Z" fill="black"/>
<path d="M94.2458 85.9994C94.2458 83.3474 96.3957 81.1975 99.0477 81.1975H140.135C142.802 81.1975 144.965 83.3598 144.965 86.0272C144.965 88.6946 142.802 90.8569 140.135 90.8569H119.605L99.0347 90.8013C96.3878 90.7941 94.2458 88.6463 94.2458 85.9994Z" fill="black"/>
<path d="M225.656 90.2569C222.912 90.2569 220.672 89.4169 218.936 87.7369C217.256 86.0009 216.416 83.7049 216.416 80.8489V57.3289H206V48.5929H216.416V35.6569H227V48.5929H238.424V57.3289H227V79.0009C227 80.6809 227.784 81.5209 229.352 81.5209H237.416V90.2569H225.656Z" fill="black"/>
<path d="M257.581 91.4329C254.613 91.4329 251.953 90.9289 249.601 89.9209C247.249 88.8569 245.373 87.3449 243.973 85.3849C242.629 83.3689 241.957 80.9329 241.957 78.0769C241.957 75.2209 242.629 72.8409 243.973 70.9369C245.373 68.9769 247.277 67.5209 249.685 66.5689C252.149 65.5609 254.949 65.0569 258.085 65.0569H269.509V62.7049C269.509 60.7449 268.893 59.1489 267.661 57.9169C266.429 56.6289 264.469 55.9849 261.781 55.9849C259.149 55.9849 257.189 56.6009 255.901 57.8329C254.613 59.0089 253.773 60.5489 253.381 62.4529L243.637 59.1769C244.309 57.0489 245.373 55.1169 246.829 53.3809C248.341 51.5889 250.329 50.1609 252.793 49.0969C255.313 47.9769 258.365 47.4169 261.949 47.4169C267.437 47.4169 271.777 48.7889 274.969 51.5329C278.161 54.2769 279.757 58.2529 279.757 63.4609V79.0009C279.757 80.6809 280.541 81.5209 282.109 81.5209H285.469V90.2569H278.413C276.341 90.2569 274.633 89.7529 273.289 88.7449C271.945 87.7369 271.273 86.3929 271.273 84.7129V84.6289H269.677C269.453 85.3009 268.949 86.1969 268.165 87.3169C267.381 88.3809 266.149 89.3329 264.469 90.1729C262.789 91.0129 260.493 91.4329 257.581 91.4329ZM259.429 82.8649C262.397 82.8649 264.805 82.0529 266.653 80.4289C268.557 78.7489 269.509 76.5369 269.509 73.7929V72.9529H258.841C256.881 72.9529 255.341 73.3729 254.221 74.2129C253.101 75.0529 252.541 76.2289 252.541 77.7409C252.541 79.2529 253.129 80.4849 254.305 81.4369C255.481 82.3889 257.189 82.8649 259.429 82.8649Z" fill="black"/>
<path d="M289.847 90.2569V48.5929H300.431V90.2569H289.847ZM295.139 43.7209C293.235 43.7209 291.611 43.1049 290.267 41.8729C288.979 40.6409 288.335 39.0169 288.335 37.0009C288.335 34.9849 288.979 33.3609 290.267 32.1289C291.611 30.8969 293.235 30.2809 295.139 30.2809C297.099 30.2809 298.723 30.8969 300.011 32.1289C301.299 33.3609 301.943 34.9849 301.943 37.0009C301.943 39.0169 301.299 40.6409 300.011 41.8729C298.723 43.1049 297.099 43.7209 295.139 43.7209Z" fill="black"/>
<path d="M308.8 90.2569V31.4569H319.384V90.2569H308.8Z" fill="black"/>
<path d="M347.324 91.4329C343.292 91.4329 339.624 90.5929 336.32 88.9129C333.072 87.2329 330.496 84.7969 328.592 81.6049C326.688 78.4129 325.736 74.5489 325.736 70.0129V68.8369C325.736 64.3009 326.688 60.4369 328.592 57.2449C330.496 54.0529 333.072 51.6169 336.32 49.9369C339.624 48.2569 343.292 47.4169 347.324 47.4169C351.3 47.4169 354.716 48.1169 357.572 49.5169C360.428 50.9169 362.724 52.8489 364.46 55.3129C366.252 57.7209 367.428 60.4649 367.988 63.5449L357.74 65.7289C357.516 64.0489 357.012 62.5369 356.228 61.1929C355.444 59.8489 354.324 58.7849 352.868 58.0009C351.468 57.2169 349.704 56.8249 347.576 56.8249C345.448 56.8249 343.516 57.3009 341.78 58.2529C340.1 59.1489 338.756 60.5209 337.748 62.3689C336.796 64.1609 336.32 66.3729 336.32 69.0049V69.8449C336.32 72.4769 336.796 74.7169 337.748 76.5649C338.756 78.3569 340.1 79.7289 341.78 80.6809C343.516 81.5769 345.448 82.0249 347.576 82.0249C350.768 82.0249 353.176 81.2129 354.8 79.5889C356.48 77.9089 357.544 75.7249 357.992 73.0369L368.24 75.4729C367.512 78.4409 366.252 81.1569 364.46 83.6209C362.724 86.0289 360.428 87.9329 357.572 89.3329C354.716 90.7329 351.3 91.4329 347.324 91.4329Z" fill="black"/>
<path d="M386.547 91.4329C383.579 91.4329 380.919 90.9289 378.567 89.9209C376.215 88.8569 374.339 87.3449 372.939 85.3849C371.595 83.3689 370.923 80.9329 370.923 78.0769C370.923 75.2209 371.595 72.8409 372.939 70.9369C374.339 68.9769 376.243 67.5209 378.651 66.5689C381.115 65.5609 383.915 65.0569 387.051 65.0569H398.475V62.7049C398.475 60.7449 397.859 59.1489 396.627 57.9169C395.395 56.6289 393.435 55.9849 390.747 55.9849C388.115 55.9849 386.155 56.6009 384.867 57.8329C383.579 59.0089 382.739 60.5489 382.347 62.4529L372.603 59.1769C373.275 57.0489 374.339 55.1169 375.795 53.3809C377.307 51.5889 379.295 50.1609 381.759 49.0969C384.279 47.9769 387.331 47.4169 390.915 47.4169C396.403 47.4169 400.743 48.7889 403.935 51.5329C407.127 54.2769 408.723 58.2529 408.723 63.4609V79.0009C408.723 80.6809 409.507 81.5209 411.075 81.5209H414.435V90.2569H407.379C405.307 90.2569 403.599 89.7529 402.255 88.7449C400.911 87.7369 400.239 86.3929 400.239 84.7129V84.6289H398.643C398.419 85.3009 397.915 86.1969 397.131 87.3169C396.347 88.3809 395.115 89.3329 393.435 90.1729C391.755 91.0129 389.459 91.4329 386.547 91.4329ZM388.395 82.8649C391.363 82.8649 393.771 82.0529 395.619 80.4289C397.523 78.7489 398.475 76.5369 398.475 73.7929V72.9529H387.807C385.847 72.9529 384.307 73.3729 383.187 74.2129C382.067 75.0529 381.507 76.2289 381.507 77.7409C381.507 79.2529 382.095 80.4849 383.271 81.4369C384.447 82.3889 386.155 82.8649 388.395 82.8649Z" fill="black"/>
<path d="M418.813 90.2569V31.4569H429.397V90.2569H418.813Z" fill="black"/>
<path d="M437.766 90.2569V31.4569H448.35V90.2569H437.766Z" fill="black"/>
</svg>
