<svg version="1.1" xmlns="http://www.w3.org/2000/svg" viewBox="0 0 260 199.99999999999818" width="780" height="599.9999999999945">
  <!-- svg-source:excalidraw -->
  
  <defs>
    <style class="style-fonts">
      @font-face {
        font-family: "Virgil";
        src: url("https://excalidraw.com/Virgil.woff2");
      }
      @font-face {
        font-family: "Cascadia";
        src: url("https://excalidraw.com/Cascadia.woff2");
      }
    </style>
    
  </defs>
  <g stroke-linecap="round" transform="translate(10 10) rotate(0 120 89.99999999999909)"><path d="M45 0 L195 0 L205.55 0.7 L214.69 2.81 L222.42 6.33 L228.75 11.25 L233.67 17.58 L237.19 25.31 L239.3 34.45 L240 45 L240 135 L239.3 145.55 L237.19 154.69 L233.67 162.42 L228.75 168.75 L222.42 173.67 L214.69 177.19 L205.55 179.3 L195 180 L45 180 L34.45 179.3 L25.31 177.19 L17.58 173.67 L11.25 168.75 L6.33 162.42 L2.81 154.69 L0.7 145.55 L0 135 L0 45 L0.7 34.45 L2.81 25.31 L6.33 17.58 L11.25 11.25 L17.58 6.33 L25.31 2.81 L34.45 0.7 L45 0" stroke="none" stroke-width="0" fill="#000"></path><path d="M45 0 M45 0 C87.56 0, 130.12 0, 195 0 M45 0 C97.31 0, 149.62 0, 195 0 M195 0 C225 0, 240 15, 240 45 M195 0 C225 0, 240 15, 240 45 M240 45 C240 67.79, 240 90.58, 240 135 M240 45 C240 66.15, 240 87.3, 240 135 M240 135 C240 165, 225 180, 195 180 M240 135 C240 165, 225 180, 195 180 M195 180 C142.76 180, 90.53 180, 45 180 M195 180 C141.3 180, 87.6 180, 45 180 M45 180 C15 180, 0 165, 0 135 M45 180 C15 180, 0 165, 0 135 M0 135 C0 110.22, 0 85.45, 0 45 M0 135 C0 110.58, 0 86.17, 0 45 M0 45 C0 15, 15 0, 45 0 M0 45 C0 15, 15 0, 45 0" stroke="#1e1e1e" stroke-width="4" fill="none"></path></g><g stroke-linecap="round" transform="translate(30 30) rotate(0 100 70)"><path d="M35 0 L165 0 L173.2 0.55 L180.31 2.19 L186.33 4.92 L191.25 8.75 L195.08 13.67 L197.81 19.69 L199.45 26.8 L200 35 L199.45 113.2 L197.81 120.31 L195.08 126.33 L191.25 131.25 L186.33 135.08 L180.31 137.81 L173.2 139.45 L165 140 L35 140 L26.8 139.45 L19.69 137.81 L13.67 135.08 L8.75 131.25 L4.92 126.33 L2.19 120.31 L0.55 113.2 L0 105 L0.55 26.8 L2.19 19.69 L4.92 13.67 L8.75 8.75 L13.67 4.92 L19.69 2.19 L26.8 0.55 L35 0" stroke="none" stroke-width="0" fill="#ff0"></path><path d="M35 0 M35 0 C80.37 0, 125.74 0, 165 0 M35 0 C61.17 0, 87.33 0, 165 0 M165 0 C188.33 0, 200 11.67, 200 35 M165 0 C188.33 0, 200 11.67, 200 35 M200 35 C200 50.14, 200 65.28, 200 105 M200 35 C200 49.44, 200 63.89, 200 105 M200 105 C200 128.33, 188.33 140, 165 140 M200 105 C200 128.33, 188.33 140, 165 140 M165 140 C115.37 140, 65.74 140, 35 140 M165 140 C126.84 140, 88.68 140, 35 140 M35 140 C11.67 140, 0 128.33, 0 105 M35 140 C11.67 140, 0 128.33, 0 105 M0 105 C0 84.3, 0 63.59, 0 35 M0 105 C0 87.77, 0 70.54, 0 35 M0 35 C0 11.67, 11.67 0, 35 0 M0 35 C0 11.67, 11.67 0, 35 0" stroke="#ff0" stroke-width="4" fill="none"></path></g><g transform="translate(50.0029296875 10) rotate(0 80.98828125 83.25)"><text x="80.98828125" y="0" font-family="Cascadia, Segoe UI Emoji" font-size="138.22679166212987px" fill="#1e1e1e" text-anchor="middle" style="white-space: pre;" direction="ltr" dominant-baseline="text-before-edge">&gt;_</text></g></svg>