<svg width="53" height="32" viewBox="0 0 53 32" fill="none" xmlns="http://www.w3.org/2000/svg">
<path fill-rule="evenodd" clip-rule="evenodd" d="M0.759657 0.749926C1.77253 -0.249975 3.41473 -0.249975 4.4276 0.749926L17.9829 14.1316C18.9957 15.1315 18.9957 16.7526 17.9829 17.7525L4.4276 31.1342C3.41473 32.1341 1.77253 32.1341 0.759657 31.1342C-0.253219 30.1343 -0.253219 28.5131 0.759657 27.5132L12.4809 15.942L0.759657 4.37089C-0.253219 3.37099 -0.253219 1.74983 0.759657 0.749926Z" fill="#121315"/>
<path d="M25.4998 29.3999C25.4998 27.9804 26.6655 26.8296 28.1034 26.8296H50.3813C51.8276 26.8296 53 27.9871 53 29.4148C53 30.8426 51.8276 32 50.3813 32H39.2499L28.0964 31.9702C26.6612 31.9664 25.4998 30.8167 25.4998 29.3999Z" fill="#121315"/>
</svg>
