<svg width="28" height="28" viewBox="0 0 28 28" fill="none" xmlns="http://www.w3.org/2000/svg">
<path d="M4.66667 26L4.66667 18M4.66667 18C6.13943 18 7.33333 16.8061 7.33333 15.3333C7.33333 13.8606 6.13943 12.6667 4.66667 12.6667C3.19391 12.6667 2 13.8606 2 15.3333C2 16.8061 3.19391 18 4.66667 18ZM4.66667 11.7178V2M14 26V14.0765M14 7.33333V2M14 7.33333C12.5272 7.33333 11.3333 8.52724 11.3333 10C11.3333 11.4728 12.5272 12.6667 14 12.6667C15.4728 12.6667 16.6667 11.4728 16.6667 10C16.6667 8.52724 15.4728 7.33333 14 7.33333ZM23.3333 26V20.6667M23.3333 20.6667C24.8061 20.6667 26 19.4728 26 18C26 16.5272 24.8061 15.3333 23.3333 15.3333C21.8606 15.3333 20.6667 16.5272 20.6667 18C20.6667 19.4728 21.8606 20.6667 23.3333 20.6667ZM23.3333 14.4464V2" stroke="#121315" stroke-width="2.66667" stroke-linecap="round" stroke-linejoin="round"/>
</svg>
