<svg xmlns="http://www.w3.org/2000/svg" fill="#1c1e21" aria-roledescription="sequence" font-size="16" style="max-width:1234px" viewBox="-50 -10 1234 673" xmlns:xlink="http://www.w3.org/1999/xlink">
  <rect width="150" height="65" x="984" y="587" fill="#eaeaea" stroke="#666" class="actor actor-bottom" rx="3" ry="3"/>
  <text x="1059" y="619.5" alignment-baseline="central" class="actor" dominant-baseline="central" font-weight="400" text-anchor="middle">
      <tspan x="1059" dy="0">External REST API</tspan>
    </text>
  <rect width="150" height="65" x="662" y="587" fill="#eaeaea" stroke="#666" class="actor actor-bottom" rx="3" ry="3"/>
  <text x="737" y="619.5" alignment-baseline="central" class="actor" dominant-baseline="central" font-weight="400" text-anchor="middle">
      <tspan x="737" dy="0">GraphQL Engine</tspan>
    </text>
  <rect width="150" height="65" x="362" y="587" fill="#eaeaea" stroke="#666" class="actor actor-bottom" rx="3" ry="3"/>
  <text x="437" y="619.5" alignment-baseline="central" class="actor" dominant-baseline="central" font-weight="400" text-anchor="middle">
      <tspan x="437" dy="0">Tailcall Server</tspan>
    </text>
  <rect width="150" height="65" y="587" fill="#eaeaea" stroke="#666" class="actor actor-bottom" rx="3" ry="3"/>
  <text x="75" y="619.5" alignment-baseline="central" class="actor" dominant-baseline="central" font-weight="400" text-anchor="middle">
      <tspan x="75" dy="0">HTTP Client</tspan>
    </text>
  <path id="actor3" stroke="#999" stroke-width=".5" d="M1059 5v582" class="200"/>
  <g id="root-3">
    <rect width="150" height="65" x="984" fill="#eaeaea" stroke="#666" class="actor actor-top" rx="3" ry="3"/>
    <text x="1059" y="32.5" alignment-baseline="central" class="actor" dominant-baseline="central" font-weight="400" text-anchor="middle">
        <tspan x="1059" dy="0">External REST API</tspan>
      </text>
  </g>
  <path id="actor2" stroke="#999" stroke-width=".5" d="M737 5v582" class="200"/>
  <g id="root-2">
    <rect width="150" height="65" x="662" fill="#eaeaea" stroke="#666" class="actor actor-top" rx="3" ry="3"/>
    <text x="737" y="32.5" alignment-baseline="central" class="actor" dominant-baseline="central" font-weight="400" text-anchor="middle">
        <tspan x="737" dy="0">GraphQL Engine</tspan>
      </text>
  </g>
  <path id="actor1" stroke="#999" stroke-width=".5" d="M437 5v582" class="200"/>
  <g id="root-1">
    <rect width="150" height="65" x="362" fill="#eaeaea" stroke="#666" class="actor actor-top" rx="3" ry="3"/>
    <text x="437" y="32.5" alignment-baseline="central" class="actor" dominant-baseline="central" font-weight="400" text-anchor="middle">
        <tspan x="437" dy="0">Tailcall Server</tspan>
      </text>
  </g>
  <path id="actor0" stroke="#999" stroke-width=".5" d="M75 5v582" class="200"/>
  <g id="root-0">
    <rect width="150" height="65" fill="#eaeaea" stroke="#666" class="actor actor-top" rx="3" ry="3"/>
    <text x="75" y="32.5" alignment-baseline="central" class="actor" dominant-baseline="central" font-weight="400" text-anchor="middle">
        <tspan x="75" dy="0">HTTP Client</tspan>
      </text>
  </g>
  <style>
    @import url(https://cdnjs.cloudflare.com/ajax/libs/font-awesome/6.4.0/css/all.min.css);
  </style>
  <defs>
    <symbol id="computer">
      <path d="M1 1v6.5h10V1zm9 5.5H2V2h8zm-5.114 3 .233-.5h1.762l.234.5zM12 11H0l1-3h1.052l-.665 2h9.225l-.648-2H11zM9.5 6h-7V2.5h7z"/>
    </symbol>
  </defs>
  <defs>
    <symbol id="database" fill-rule="evenodd" clip-rule="evenodd">
      <path d="m6.129 0 .128.003.128.002.126.004.126.005.124.006.124.008.123.008.12.009.121.01.12.012.118.012.116.013.116.014.114.016.113.016.111.017.11.018.109.019.106.02.106.02.104.021.102.023.101.023.099.024.097.025.095.026L9.18.4l.091.027.09.028.088.029.086.029.084.03.081.03.08.032.078.032.075.033.037.017.036.016.036.017.035.017.034.018.034.017.034.018.033.017.032.018.032.018.031.018.03.018.03.019.029.018.029.019.027.018.028.02.026.019.026.019.026.019.025.02.024.019.023.02.023.02.022.02.021.02.021.02.02.02.02.02.018.021.018.02.017.021.016.021.016.021.015.021.015.021.013.021.013.021.012.022.012.021.01.022.01.022.01.022.008.021.007.022.007.022.006.022.006.023.004.022.004.022.003.023.002.022v.023L11 1.75v8.523l-.002.022-.001.023-.004.022-.003.023-.005.022-.005.022-.006.022-.007.022-.007.022-.009.022-.009.022-.01.021-.01.022-.012.021-.012.022-.013.021-.013.021-.015.021-.015.021-.016.021-.016.021-.017.02-.018.021-.019.02-.019.021-.02.02-.02.02-.022.02-.022.02-.023.02-.023.02-.024.02-.025.019-.026.02-.026.019-.026.019-.028.019-.027.019-.029.018-.029.019-.03.018-.03.018-.031.018-.032.018-.032.018-.033.018-.034.017-.034.018-.034.017-.035.017-.036.017-.036.017-.037.016-.075.033-.078.032-.08.032-.081.03-.084.03-.086.03-.088.028-.09.028-.091.027-.094.027-.095.025-.097.025-.099.024-.1.023-.103.023-.104.021-.106.02-.107.02-.108.02-.11.018-.112.017-.112.016-.115.015-.115.014-.117.014-.118.012-.119.011-.12.01-.122.01-.123.008-.123.007-.125.006-.125.005-.127.004-.127.003-.128.002h-.258l-.128-.003-.127-.002-.127-.004-.125-.005-.125-.006-.123-.008-.123-.008-.121-.009-.121-.01-.119-.011-.118-.012-.117-.014-.115-.014-.114-.015-.113-.016-.112-.017-.11-.018-.108-.02-.107-.02-.106-.02-.104-.021-.102-.023-.1-.023-.1-.024-.097-.025-.095-.025-.094-.027-.092-.027-.089-.028-.088-.028-.086-.03-.084-.03-.082-.03-.079-.032-.078-.032-.075-.033-.037-.016-.036-.017-.036-.017-.035-.017-.035-.017-.034-.018-.033-.017-.033-.018-.032-.018-.032-.018-.03-.018-.031-.018-.03-.018-.029-.019-.029-.018-.028-.02-.027-.018-.027-.02-.026-.018-.025-.02-.025-.02-.024-.019-.023-.02-.023-.02-.022-.02-.021-.02-.021-.02-.02-.02-.02-.02-.018-.021-.018-.02-.017-.021-.016-.021-.016-.021-.015-.021-.015-.021-.013-.021-.013-.022-.012-.021-.012-.022-.01-.021-.01-.022-.01-.022-.008-.021-.007-.022-.007-.022-.006-.022-.005-.023-.005-.022-.003-.022-.003-.023-.002-.022L1 10.272V1.728l.001-.023.002-.022.003-.023.004-.022.004-.022.006-.023.006-.022.006-.022.008-.022.008-.021.01-.022.01-.022.01-.021.011-.022.012-.022.013-.021.014-.021.014-.021.015-.021.016-.021.017-.021.017-.02.018-.021.018-.02.02-.021.02-.02.02-.02.022-.02.022-.02.023-.02.023-.02.024-.02.025-.019.025-.02.026-.019.027-.019.027-.019.028-.019.029-.018.029-.019.03-.018.03-.018.031-.018.032-.018.032-.018.033-.018.033-.017.034-.017.035-.018.035-.017.036-.017.036-.016.037-.017.075-.033.078-.032.08-.031.081-.031.084-.03.086-.03.088-.028.09-.028L2.82.4l.094-.026.095-.026.098-.025.099-.024.1-.023.102-.023.104-.021.106-.02.107-.02.108-.02.11-.018.112-.017.113-.016.114-.015.115-.014.117-.014.118-.012.119-.011.12-.01.122-.01.123-.008.123-.007.125-.006.125-.005.127-.004.127-.003L5.871 0zM1.5 10.25v.015l.002.011.002.011.003.01.003.012.003.01.005.012.004.011.006.011.006.012.006.011.008.012.008.012.008.011.01.012.009.012.01.012.011.013.012.012.012.013.026.024.028.025.03.025.033.026.035.025.038.026.04.026.041.026.044.026.046.026.049.026.051.025.053.026.055.026.057.026.059.025.062.026.063.025.066.025.067.025.07.024.072.024.073.024.076.023.078.024.08.022.081.023.084.021.085.022.088.02.089.021.092.02.093.019.095.018.097.018.099.017.1.017.103.015.104.015.106.015.108.013.11.013.11.012.114.01.115.01.116.01.118.007.12.008.122.006.123.005.124.004.127.002.128.002L6 11.5h.13l.129-.003.126-.002.125-.004.124-.005.122-.007.12-.006.119-.009.116-.008.116-.011.113-.01.112-.013.11-.013.108-.013.106-.014.105-.015.103-.016.1-.017.1-.017.097-.018.095-.018.094-.02.091-.02.09-.02.087-.021.086-.021.084-.022.082-.023.08-.023.077-.023.076-.023.074-.024.072-.025.069-.024.068-.025.066-.025.063-.025.061-.026.059-.026.057-.025.055-.026.053-.026.05-.026.049-.026.046-.026.044-.027.041-.025.04-.026.037-.026.035-.026.032-.025.03-.026.028-.025.026-.025.011-.012.012-.012.01-.012.01-.012.01-.012.009-.012.008-.012.008-.012.007-.012.006-.011.006-.012.005-.011.005-.011.004-.011.003-.011.003-.011.002-.011.002-.011v-.01l.001-.011V8.187l-.038.027-.04.027-.042.027-.042.026-.044.026-.045.026-.046.026-.048.024-.048.025-.05.025-.052.025-.052.023-.053.024-.055.023-.055.023-.057.023-.058.023-.059.022-.06.021-.06.021-.063.021-.063.02-.064.02-.065.02-.066.02-.067.019-.067.018-.069.019-.07.017-.07.018-.072.017-.072.016-.074.016-.074.016-.075.015-.075.015-.077.014-.077.014-.078.013-.078.013-.08.013-.08.012-.082.011-.081.011-.083.01-.083.01-.083.01-.085.009-.084.009-.086.008-.086.007-.087.007-.087.007-.088.006-.088.005-.089.005-.09.004-.089.004-.09.003-.092.003-.09.001-.093.002-.092.001h-.185l-.092-.001-.092-.001-.09-.002-.092-.003-.09-.003-.09-.004-.089-.004-.089-.005-.088-.005-.088-.006-.088-.007-.086-.007-.086-.007-.086-.009-.085-.008-.084-.009-.084-.01-.083-.01-.082-.01-.082-.011-.08-.011L4 9.028l-.08-.013-.078-.013-.078-.013-.077-.014-.077-.014-.075-.016-.075-.015-.074-.015-.073-.016-.073-.016-.071-.018-.071-.017-.07-.018-.068-.018-.068-.018-.067-.02-.066-.018-.065-.02-.064-.02-.063-.021-.062-.021-.061-.021-.06-.022-.059-.022-.058-.022-.056-.023-.056-.023-.055-.023-.053-.024-.052-.024-.051-.024-.05-.025-.049-.025-.047-.025-.047-.026-.045-.025-.043-.026-.043-.027-.041-.027-.04-.027-.039-.026zm0-2.827v.016l.002.01.002.011.003.011.003.011.003.011.005.011.004.011.006.012.006.011.006.012.008.012.008.011.008.012.01.012.009.012.01.012.011.012.012.012.012.012.026.025.028.025.03.025.033.026.035.025.038.026.04.026.041.026.044.026.046.026.049.026.051.026.053.026.055.025.057.026.059.026.062.025.063.025.066.025.067.025.07.024.072.024.073.024.076.024.078.023.08.022.081.023.084.022.085.021.088.021.089.02.092.02.093.019.095.018.097.018.099.017.1.017.103.016.104.015.106.014.108.013.11.013.11.012.114.011.115.01.116.009.118.008.12.007.122.006.123.005.124.004.127.003.128.001.129.001h.13l.129-.002.127-.003.125-.004.123-.005.122-.006.12-.008.119-.008.117-.009.115-.01.113-.01.112-.013.11-.012.108-.014.106-.014.105-.015.103-.016.1-.017.1-.017.097-.018.095-.019.094-.019.091-.02.09-.02.087-.021.086-.022.084-.022.082-.022.08-.023.077-.023.076-.024.074-.024.072-.024.069-.025.068-.024.066-.025.063-.026.061-.025.059-.026.057-.026.055-.026.053-.026.05-.026.049-.026.046-.026.044-.026.041-.026.04-.026.037-.025.035-.026.032-.026.03-.025.028-.025.026-.025.011-.012.012-.012.01-.013.01-.012.01-.012.009-.012.008-.012.008-.011.007-.012.006-.012.006-.01.005-.012.005-.012.004-.01.003-.012.003-.01.002-.011.002-.011v-.01l.001-.011v-2.07l-.038.027-.04.027-.042.027-.042.026-.044.027-.045.025-.046.026-.048.025-.048.025-.05.025-.051.024-.053.024-.053.024-.054.023-.056.023-.057.023-.057.022-.06.022-.06.022-.06.021-.062.021-.063.02-.064.02-.065.02-.066.02-.067.018-.068.019-.069.018-.07.018-.07.017-.072.017-.072.016-.073.017-.074.015-.075.015-.076.015-.076.014-.077.014-.078.014-.08.013L8 6.194l-.08.012-.081.012-.082.011-.082.01-.083.01-.084.01-.084.009-.085.008-.085.008-.087.008-.086.007-.088.006-.087.006-.089.006-.089.004-.09.005-.089.003-.09.004-.091.002-.091.002-.092.002-.092.001h-.185l-.092-.001-.092-.002-.091-.002-.091-.002-.091-.004-.09-.003-.089-.005-.089-.004-.088-.006-.088-.006L4.92 6.3l-.087-.007-.086-.008-.085-.008-.085-.008-.085-.009-.083-.01-.083-.01-.083-.01-.081-.011-.081-.012L4 6.194l-.08-.012-.078-.013-.078-.013-.077-.014-.077-.015-.075-.015-.075-.015-.074-.015-.073-.016-.073-.017-.071-.016-.071-.018-.07-.018-.068-.018-.068-.018-.067-.02-.066-.019-.065-.02-.064-.02-.063-.02-.062-.021-.061-.021-.06-.022-.059-.022-.058-.022-.056-.023-.056-.023-.055-.023-.053-.023-.052-.024-.051-.025-.05-.024-.049-.025-.047-.026-.047-.025-.045-.026-.043-.026-.043-.026-.041-.027-.04-.027-.039-.027zm0-2.833v.016l.002.01.002.011.003.011.003.01.003.012.005.011.004.011.006.012.006.011.006.012.008.011.008.012.008.012.01.011.009.012.01.013.011.012.012.012.012.012.026.025.028.025.03.025.033.026.035.025.038.026.04.026.041.026.044.026.046.026.049.026.051.026.053.025.055.026.057.026.059.025.062.026.063.025.066.025.067.025.07.024.072.024.073.024.076.024.078.023.08.022.081.023.084.021.085.022.088.021.089.02.092.02.093.019.095.018.097.018.099.017.1.017.103.016.104.015.106.014.108.013.11.013.11.012.114.01.115.01.116.01.118.008.12.007.122.006.123.005.124.004.127.003.128.001L6 5.84h.13l.129-.002.127-.003.125-.004.123-.005.122-.007.12-.007.119-.008.117-.009.115-.01.113-.01.112-.013.11-.012.108-.014.106-.014.105-.015.103-.016.1-.017.1-.017.097-.018.095-.019.094-.019.091-.02.09-.02.087-.021.086-.022.084-.022.082-.022.08-.023.077-.023.076-.024.074-.024.072-.024.069-.025.068-.024.066-.026.063-.025.061-.025.059-.026.057-.026.055-.026.053-.026.05-.026.049-.026.046-.026.044-.026.041-.026.04-.026.037-.026.035-.025.032-.025.03-.026.028-.025.026-.025.011-.012.012-.013.01-.012.01-.012.01-.011.009-.012.008-.012.008-.012.007-.012.006-.011.006-.012.005-.011.005-.011.004-.011.003-.011.003-.011.002-.011.002-.011v-.01l.001-.011V2.514l-.038.027-.04.027-.042.026-.042.027-.044.026-.045.026-.046.025-.048.026-.048.025-.05.024-.052.024-.052.024-.053.024-.055.023-.055.023-.057.023-.058.022-.059.022-.06.022-.06.021-.063.021-.063.02-.064.02-.065.02-.066.02-.067.019-.067.018-.069.018-.07.018-.07.017-.072.017-.072.017-.074.016-.074.016-.075.015-.075.015-.077.014-.077.014-.078.013-.078.013-.08.012-.08.012-.082.012-.081.011-.083.01-.083.01-.083.01-.085.009-.084.008-.086.008-.086.008-.087.007-.087.006-.088.006-.088.005-.089.005-.09.005-.089.003-.09.003-.092.003-.09.002-.093.002h-.092L6 3.5h-.092l-.093-.001-.092-.002-.09-.002-.091-.003-.091-.003-.09-.003-.089-.005-.089-.005-.088-.005-.088-.006-.087-.006-.087-.007-.086-.007-.086-.008-.085-.009-.084-.009-.084-.01-.083-.01-.082-.01-.082-.011-.08-.012L4 3.354l-.08-.012-.078-.013-.078-.013-.077-.014-.077-.014-.075-.015-.075-.015-.074-.016-.073-.016-.073-.017-.071-.017-.071-.017-.07-.018-.068-.018-.068-.018-.067-.02-.066-.019-.065-.02-.064-.02-.063-.02L2.505 3l-.061-.021-.06-.022-.059-.022-.058-.022-.056-.023-.056-.023-.055-.023-.053-.024-.052-.024-.051-.024-.05-.025-.049-.024-.047-.026-.047-.025-.045-.027-.043-.025-.043-.027-.041-.026-.04-.027-.039-.027zM5.87.5l-.128.002-.127.003-.125.004-.124.005-.122.006-.12.007-.119.008-.116.01-.116.01-.113.011-.112.011-.11.013-.108.014-.106.014-.105.015-.102.016-.102.017-.099.017-.097.018-.095.019-.094.019-.091.02-.09.02L3.262.8l-.086.022-.084.021-.082.023-.08.023-.077.023-.076.024-.074.024-.072.024-.069.024-.068.025-.066.025-.063.026-.061.025-.059.026-.057.026-.055.026-.053.026-.05.026-.049.026-.046.026-.044.026-.041.026-.04.026-.037.025-.035.026-.032.026-.03.025-.028.025-.026.025-.011.012-.012.012-.01.012-.01.013-.01.012-.009.012-.008.011-.008.012-.007.012-.006.011-.006.012-.005.012-.005.01-.004.011-.003.012-.003.01-.002.011-.002.011v.01L1.5 1.75v.01l.001.011.002.01.002.011.003.011.003.011.004.011.005.011.005.012.006.011.006.012.007.011.008.012.008.012.01.012.009.012.01.013.01.011.012.012.011.013.026.025.028.025.03.025.032.026.035.025.037.026.04.026.041.026.044.026.046.026.048.026.051.026.053.026.055.026.057.026.059.025.062.026.062.025.066.025.068.025.07.025.071.024.074.024.076.024.078.023.08.023.081.022.084.022.086.021.088.021.089.021.092.02.093.019.096.019.097.018.099.017.1.016.103.016.105.016.106.014.108.013.11.013.112.012.113.011.116.01.116.01.119.007.12.007.122.006.124.006.125.004.127.002L5.87 3h.26l.129-.003.126-.002.125-.004.124-.005.122-.007.12-.006.119-.008.116-.01.116-.01.113-.011.112-.011.11-.013.108-.014.106-.014.105-.015.103-.016.1-.017.1-.017.097-.018.095-.019.094-.019.091-.02.09-.02.087-.021.086-.022.084-.021.082-.023.08-.023.077-.023.076-.024.074-.024.072-.024.069-.024.068-.026.066-.025.063-.025.061-.025.059-.026.057-.026.055-.026.053-.026.05-.026.049-.026.046-.026.044-.026.041-.026.04-.026.037-.025.035-.026.032-.026.03-.025.028-.025.026-.025.011-.012.012-.012.01-.012.01-.013.01-.012.009-.012.008-.011.008-.012.007-.012.006-.011.006-.012.005-.011.005-.011.004-.011.003-.012.003-.01.002-.011.002-.011v-.01l.001-.011v-.01l-.001-.011-.002-.01-.002-.011-.003-.011-.003-.011-.004-.011-.005-.011-.005-.012-.006-.011-.007-.012-.007-.011-.007-.012-.009-.012-.009-.012-.009-.012-.01-.012-.01-.012-.012-.012-.012-.013-.025-.025-.028-.025-.03-.025-.033-.025-.035-.026-.037-.026-.039-.026-.042-.026-.044-.026-.046-.026-.048-.026-.05-.026-.053-.026-.055-.026-.057-.026-.059-.025-.062-.026-.063-.026-.065-.025-.068-.025-.07-.024L9.297.96 9.223.936 9.147.912 9.069.889 8.99.866 8.908.843 8.824.822 8.738.801 8.65.779 8.561.76 8.469.74 8.376.72 8.28.701 8.183.683 8.084.666l-.1-.017L7.88.634 7.776.618 7.67.604 7.562.591l-.11-.013L7.34.566 7.227.555l-.116-.01-.116-.01-.119-.007-.12-.007-.122-.006L6.51.509 6.385.505 6.258.503 6.13.5H6z"/>
    </symbol>
  </defs>
  <defs>
    <symbol id="clock">
      <path d="M6 1c2.757 0 5 2.243 5 5s-2.243 5-5 5-5-2.243-5-5 2.243-5 5-5m0-1a6 6 0 1 0 0 12A6 6 0 0 0 6 0m2.924 6.23c.101.018.101.166 0 .185-.953.181-3.022.556-3.273.556a.65.65 0 0 1-.65-.65c0-.256.384-2.724.562-3.723.017-.096.156-.09.172.007l.492 3.119z"/>
    </symbol>
  </defs>
  <defs>
    <marker id="arrowhead" markerHeight="12" markerUnits="userSpaceOnUse" markerWidth="12" orient="auto" refX="7.9" refY="5">
      <path stroke="#1c1e21" d="m0 0 10 5-10 5z"/>
    </marker>
  </defs>
  <defs>
    <marker id="crosshead" markerHeight="8" markerWidth="15" orient="auto" refX="4" refY="4.5">
      <path stroke="#1c1e21" stroke-dasharray="0 0" stroke-width="1pt" d="m1 2 5 5m0-5L1 7"/>
    </marker>
  </defs>
  <defs>
    <marker id="filled-head" markerHeight="28" markerWidth="20" orient="auto" refX="15.5" refY="7">
      <path d="m18 7-9 6 5-6-5-6Z"/>
    </marker>
  </defs>
  <defs>
    <marker id="sequencenumber" fill="#1c1e21" markerHeight="40" markerWidth="60" orient="auto" refX="15" refY="15">
      <circle cx="15" cy="15" r="6"/>
    </marker>
  </defs>
  <rect width="412" height="56" x="50" y="75" fill="#EDF2AE" stroke="#666" class="note" rx="0" ry="0"/>
  <text x="256" y="80" alignment-baseline="middle" class="noteText" dominant-baseline="middle" dy="1em" font-weight="400" text-anchor="middle">
      <tspan x="256">A REST route is dynamically </tspan>
    </text>
  <text x="256" y="98" alignment-baseline="middle" class="noteText" dominant-baseline="middle" dy="1em" font-weight="400" text-anchor="middle">
      <tspan x="256"> created based on the GraphQL schema.</tspan>
    </text>
  <rect width="350" height="56" x="412" y="187" fill="#EDF2AE" stroke="#666" class="note" rx="0" ry="0"/>
  <text x="587" y="192" alignment-baseline="middle" class="noteText" dominant-baseline="middle" dy="1em" font-weight="400" text-anchor="middle">
      <tspan x="587">Tailcall identifies the corresponding </tspan>
    </text>
  <text x="587" y="210" alignment-baseline="middle" class="noteText" dominant-baseline="middle" dy="1em" font-weight="400" text-anchor="middle">
      <tspan x="587">GraphQL operation.</tspan>
    </text>
  <rect width="372" height="38" x="712" y="299" fill="#EDF2AE" stroke="#666" class="note" rx="0" ry="0"/>
  <text x="898" y="304" alignment-baseline="middle" class="noteText" dominant-baseline="middle" dy="1em" font-weight="400" text-anchor="middle">
      <tspan x="898">The query includes a call to an external REST API.</tspan>
    </text>
  <rect width="350" height="38" x="412" y="439" fill="#EDF2AE" stroke="#666" class="note" rx="0" ry="0"/>
  <text x="587" y="444" alignment-baseline="middle" class="noteText" dominant-baseline="middle" dy="1em" font-weight="400" text-anchor="middle">
      <tspan x="587">GraphQL response is converted into REST format.</tspan>
    </text>
  <text x="255" y="146" alignment-baseline="middle" class="messageText" dominant-baseline="middle" dy="1em" font-weight="400" text-anchor="middle">Sends REST Request (e.g., /api/post/{id})</text>
  <path fill="none" stroke-width="2" marker-end="url(#arrowhead)" d="M76 177h357" class="messageLine0"/>
  <text x="586" y="258" alignment-baseline="middle" class="messageText" dominant-baseline="middle" dy="1em" font-weight="400" text-anchor="middle">Executes GraphQL Query/Mutation</text>
  <path fill="none" stroke-width="2" marker-end="url(#arrowhead)" d="M438 289h295" class="messageLine0"/>
  <text x="897" y="352" alignment-baseline="middle" class="messageText" dominant-baseline="middle" dy="1em" font-weight="400" text-anchor="middle">Fetches data (e.g., GET /post/{id})</text>
  <path fill="none" stroke-width="2" marker-end="url(#arrowhead)" d="M738 383h317" class="messageLine0"/>
  <text x="900" y="398" alignment-baseline="middle" class="messageText" dominant-baseline="middle" dy="1em" font-weight="400" text-anchor="middle">Returns the requested data</text>
  <path fill="none" stroke-dasharray="3 3" stroke-width="2" marker-end="url(#arrowhead)" d="M1058 429H741" class="messageLine1"/>
  <text x="589" y="492" alignment-baseline="middle" class="messageText" dominant-baseline="middle" dy="1em" font-weight="400" text-anchor="middle">Sends the transformed data</text>
  <path fill="none" stroke-dasharray="3 3" stroke-width="2" marker-end="url(#arrowhead)" d="M736 521H441" class="messageLine1"/>
  <text x="258" y="536" alignment-baseline="middle" class="messageText" dominant-baseline="middle" dy="1em" font-weight="400" text-anchor="middle">Responds with RESTified data</text>
  <path fill="none" stroke-dasharray="3 3" stroke-width="2" marker-end="url(#arrowhead)" d="M436 567H79" class="messageLine1"/>
</svg>
