<svg width="152" height="80" viewBox="0 0 152 80" fill="none" xmlns="http://www.w3.org/2000/svg">
<path fill-rule="evenodd" clip-rule="evenodd" d="M27.2359 53.1764V43.9373L33.5402 46.0857V55.4397L27.2359 53.1764ZM40.9996 53.1764V43.9373L34.6953 46.0857V55.4397L40.9996 53.1764ZM34.2629 41.4494L40.1787 43.3565L34.2629 45.365L27.8918 43.2448L34.2629 41.4494ZM19.7295 40.2692V31.0175L26.0338 33.1649V42.5189L19.7295 40.2692ZM33.4953 40.2681V31.0175L27.191 33.1649V42.5189L33.4953 40.2681ZM26.7586 28.539L32.6743 30.4472L26.7586 32.4557L20.3875 30.3355L26.7586 28.539ZM34.4405 40.2681V31.0175L40.7448 33.1649V42.5189L34.4405 40.2681ZM48.2042 40.2681V31.0175L41.8999 33.1649V42.5189L48.2042 40.2681ZM41.478 28.539L47.3937 30.4472L41.478 32.4557L35.1068 30.3355L41.478 28.539ZM41.9563 27.3588V18.1186L48.2606 20.267V29.62L41.9563 27.3588ZM55.7116 27.3577V18.1186L49.4074 20.267V29.62L55.7116 27.3577ZM48.9739 15.6328L54.8897 17.54L48.9739 19.5484L42.6028 17.4282L48.9739 15.6328ZM56.6558 27.3588V18.1186L62.9601 20.267V29.62L56.6558 27.3588ZM70.4091 27.3588V18.1186L64.1048 20.267V29.62L70.4091 27.3588ZM63.6828 15.6328L69.5986 17.54L63.6828 19.5484L57.3117 17.4282L63.6828 15.6328Z" fill="#B6B6B7"/>
<path d="M59.7538 49.4185L57.6357 56.7756H56.7166L55.0454 51.311L53.5331 56.7756H52.5952L50.3945 49.4185H51.5434L53.1466 54.9018L54.6715 49.4185H55.5113L57.1698 54.9186L58.818 49.4185H59.7423H59.7538ZM65.611 54.5802L66.6764 54.789C66.4808 55.4203 66.082 55.9693 65.5421 56.3505C64.9781 56.763 64.318 56.9688 63.5577 56.9688C62.555 56.9688 61.7424 56.6158 61.122 55.9076C60.5016 55.1995 60.182 54.2731 60.182 53.1263C60.182 51.9544 60.4954 51.0082 61.1492 50.2854C61.4488 49.9367 61.822 49.6588 62.2419 49.4715C62.6617 49.2842 63.1179 49.1923 63.5775 49.2023C64.5384 49.2023 65.3092 49.5344 65.8941 50.1998C66.479 50.8651 66.7777 51.8583 66.7923 53.1827H61.4521C61.4521 54.295 61.6839 55.046 62.1498 55.4345C62.6156 55.823 63.1065 56.0173 63.6245 56.0173C64.5593 56.0173 65.2183 55.5348 65.6006 54.5687L65.611 54.5802ZM65.5484 52.3409C65.5379 51.9283 65.4711 51.5617 65.3447 51.2411C65.2183 50.9204 65.0053 50.6478 64.7045 50.4222C64.4037 50.1966 64.0433 50.0838 63.6214 50.0838C63.3515 50.0795 63.0838 50.1317 62.8354 50.2371C62.5869 50.3425 62.3633 50.4988 62.179 50.6959C61.7842 51.1136 61.5523 51.6515 61.5137 52.3409H65.5473H65.5484ZM68.8593 56.7756H68.3088V46.8534H69.4546V50.6551C69.9768 49.7016 70.7079 49.2242 71.6197 49.2242C72.4616 49.2242 73.1676 49.5585 73.7368 50.2238C74.306 50.8891 74.5901 51.8573 74.5901 53.1252C74.5901 54.2188 74.3081 55.1358 73.7504 55.8774C73.1927 56.6189 72.4616 56.9897 71.5654 56.9897C70.5669 56.9897 69.7899 56.5155 69.2676 55.5692L68.8499 56.786L68.8593 56.7756ZM69.4546 53.8929C69.5068 54.648 69.7397 55.1964 70.1492 55.5369C70.5586 55.8774 70.992 56.0591 71.4484 56.0591C72.0302 56.0591 72.4992 55.8063 72.8564 55.3008C73.2136 54.7953 73.3911 54.1028 73.3911 53.2245C73.3911 52.2772 73.2188 51.5325 72.8752 50.9894C72.5315 50.4462 72.0532 50.1768 71.4422 50.1768C70.9617 50.1768 70.5293 50.37 70.1429 50.7554C69.7564 51.1408 69.5162 51.64 69.4556 52.251V53.8908L69.4546 53.8929ZM77.5104 54.8684L78.6029 54.6428C78.8452 55.5672 79.6139 56.0288 80.9048 56.0288C81.3801 56.0288 81.7843 55.9223 82.1143 55.7092C82.27 55.6169 82.3981 55.4847 82.4853 55.3262C82.5725 55.1677 82.6158 54.9887 82.6104 54.8078C82.6104 54.2334 82.1895 53.8678 81.3487 53.7112L79.7998 53.4166C79.194 53.2997 78.7105 53.072 78.3512 52.7315C77.9919 52.391 77.8133 51.9429 77.8133 51.3737C77.8133 50.747 78.0577 50.2415 78.5486 49.8258C79.0395 49.4102 79.6975 49.2034 80.5278 49.2034C82.1237 49.2034 83.1076 49.8269 83.4836 51.075L82.435 51.3006C82.1342 50.5382 81.5158 50.1548 80.5811 50.1548C80.1152 50.1548 79.733 50.2593 79.4353 50.441C79.2958 50.522 79.1807 50.639 79.1021 50.7797C79.0234 50.9205 78.9841 51.0799 78.9883 51.2411C78.9883 51.7821 79.3695 52.1215 80.1309 52.2625L81.5618 52.5257C83.0616 52.7973 83.8105 53.5253 83.8105 54.7065C83.817 55.0275 83.744 55.345 83.5978 55.6308C83.4516 55.9166 83.2369 56.1617 82.9728 56.3442C82.4151 56.7599 81.6725 56.9688 80.744 56.9688C78.9998 56.9688 77.924 56.2648 77.5104 54.859V54.8684ZM89.9038 54.5802L90.9691 54.789C90.7759 55.4178 90.3978 55.9379 89.8348 56.3505C89.2719 56.763 88.6108 56.9688 87.8504 56.9688C86.8477 56.9688 86.0352 56.6158 85.4148 55.9076C84.7944 55.1995 84.4748 54.2731 84.4748 53.1263C84.4748 51.9544 84.7964 51.0082 85.4419 50.2854C85.7416 49.9367 86.1147 49.6588 86.5346 49.4715C86.9545 49.2842 87.4106 49.1923 87.8702 49.2023C88.829 49.2023 89.6019 49.5344 90.1858 50.1998C90.7696 50.8651 91.0694 51.8583 91.084 53.1827H85.7448C85.7448 54.295 85.9767 55.046 86.4414 55.4345C86.9062 55.823 87.3982 56.0173 87.9172 56.0173C88.852 56.0173 89.5111 55.5348 89.8933 54.5687L89.9038 54.5802ZM89.8411 52.3409C89.8307 51.9283 89.7628 51.5617 89.6374 51.2411C89.5121 50.9204 89.299 50.6478 88.9982 50.4222C88.6974 50.1966 88.3371 50.0838 87.9152 50.0838C87.6451 50.0793 87.3772 50.1314 87.1286 50.2369C86.88 50.3423 86.6562 50.4986 86.4717 50.6959C86.0769 51.1136 85.8451 51.6515 85.8075 52.3409H89.8411ZM93.4726 56.7756H92.3269V49.4185H93.3296V51.1335C93.6847 50.3293 94.0398 49.8091 94.3949 49.572C94.75 49.335 95.126 49.2148 95.4895 49.2148C95.6402 49.2169 95.7908 49.226 95.9407 49.242V50.3345H95.7088C95.079 50.3345 94.5557 50.5684 94.139 51.0364C93.7223 51.5043 93.4998 52.1194 93.4706 52.8808V56.7766L93.4726 56.7756ZM103.061 49.4185L100.521 56.7756H99.333L96.7083 49.4185H97.9763L100.018 55.398L102.044 49.4185H103.061ZM105.202 46.8408V48.1119H103.978V46.8408H105.204H105.202ZM105.175 49.4175V56.7745H104.04V49.4175H105.186H105.175ZM111.163 54.1989L112.194 54.3807C112.048 55.1932 111.726 55.8293 111.227 56.2899C110.728 56.7505 110.104 56.9792 109.347 56.9792C108.334 56.9792 107.572 56.6032 107.028 55.8565C106.485 55.1097 106.232 54.1854 106.232 53.1148C106.232 51.9972 106.511 51.0677 107.072 50.3261C107.633 49.5846 108.396 49.2138 109.37 49.2138C110.17 49.2138 110.811 49.454 111.295 49.9449C111.779 50.4358 112.078 51.0416 112.193 51.8019L111.162 51.9983C110.968 50.7836 110.382 50.1768 109.403 50.1768C109.11 50.167 108.821 50.2365 108.565 50.3782C108.309 50.5198 108.096 50.7281 107.949 50.981C107.609 51.5168 107.439 52.2114 107.439 53.0657C107.439 54.0057 107.606 54.7368 107.944 55.259C108.09 55.5045 108.299 55.7065 108.549 55.844C108.799 55.9816 109.081 56.0497 109.366 56.0413C110.311 56.0413 110.91 55.4314 111.162 54.2104L111.163 54.1989ZM118.658 54.5802L119.724 54.789C119.528 55.4203 119.129 55.9693 118.589 56.3505C118.025 56.763 117.365 56.9688 116.605 56.9688C115.602 56.9688 114.788 56.6158 114.168 55.9076C113.549 55.1995 113.228 54.2731 113.228 53.1263C113.228 51.9544 113.542 51.0082 114.195 50.2854C114.495 49.9367 114.868 49.6588 115.288 49.4715C115.708 49.2842 116.164 49.1923 116.624 49.2023C117.585 49.2023 118.358 49.5344 118.94 50.1998C119.523 50.8651 119.824 51.8583 119.839 53.1827H114.499C114.499 54.295 114.731 55.046 115.197 55.4345C115.663 55.823 116.154 56.0173 116.672 56.0173C117.607 56.0173 118.266 55.5348 118.648 54.5687L118.658 54.5802ZM118.596 52.3409C118.585 51.9283 118.518 51.5617 118.392 51.2411C118.261 50.9132 118.039 50.6293 117.753 50.4222C117.452 50.1966 117.092 50.0838 116.67 50.0838C116.4 50.0789 116.132 50.1309 115.884 50.2364C115.636 50.3418 115.412 50.4984 115.228 50.6959C114.836 51.1136 114.602 51.6515 114.563 52.3409H118.597H118.596ZM120.497 54.8684L121.589 54.6428C121.831 55.5672 122.599 56.0288 123.891 56.0288C124.366 56.0288 124.768 55.9223 125.101 55.7092C125.256 55.6168 125.384 55.4845 125.471 55.326C125.558 55.1675 125.601 54.9886 125.596 54.8078C125.596 54.2334 125.175 53.8678 124.335 53.7112L122.786 53.4166C122.18 53.2997 121.697 53.072 121.337 52.7315C120.978 52.391 120.799 51.9429 120.799 51.3737C120.799 50.747 121.044 50.2415 121.535 49.8258C122.026 49.4102 122.684 49.2034 123.514 49.2034C125.11 49.2034 126.094 49.8269 126.47 51.075L125.421 51.3006C125.12 50.5382 124.502 50.1548 123.567 50.1548C123.101 50.1548 122.732 50.2593 122.422 50.441C122.282 50.522 122.167 50.639 122.088 50.7797C122.01 50.9205 121.97 51.0799 121.974 51.2411C121.974 51.7821 122.356 52.1215 123.117 52.2625L124.548 52.5257C126.048 52.7973 126.797 53.5253 126.797 54.7065C126.803 55.0275 126.73 55.345 126.584 55.6308C126.438 55.9166 126.223 56.1617 125.959 56.3442C125.401 56.7599 124.659 56.9688 123.73 56.9688C121.988 56.9688 120.91 56.2648 120.498 54.859L120.497 54.8684Z" fill="#B6B6B7" stroke="#B6B6B7" stroke-width="0.142"/>
<path fill-rule="evenodd" clip-rule="evenodd" d="M94.6615 33.6954V31.9282C94.6601 31.8688 94.6707 31.8098 94.6928 31.7546C94.7148 31.6995 94.7479 31.6494 94.7899 31.6074C94.8319 31.5654 94.8819 31.5324 94.9371 31.5104C94.9922 31.4883 95.0513 31.4776 95.1106 31.4791H103.031C103.283 31.4791 103.487 31.6629 103.488 31.9251V33.4395C103.486 33.6933 103.272 34.0244 102.893 34.5518L98.7912 40.4091C100.314 40.3736 101.925 40.6013 103.308 41.3804C103.622 41.5559 103.703 41.8149 103.728 42.0697V43.955C103.728 44.2161 103.444 44.5158 103.146 44.3592C100.708 43.0818 97.4742 42.9419 94.7774 44.3738C94.5017 44.52 94.2134 44.2244 94.2134 43.9644V42.1721C94.2134 41.8849 94.2187 41.395 94.508 40.9574L99.2602 34.1372H95.1211C95.0614 34.1399 95.0018 34.1304 94.9459 34.1092C94.89 34.0881 94.839 34.0557 94.7961 34.0141C94.7531 33.9726 94.7191 33.9227 94.6962 33.8675C94.6732 33.8123 94.6618 33.7531 94.6626 33.6933L94.6615 33.6954ZM66.3184 44.7331H63.9089C63.6791 44.7185 63.4963 44.5451 63.4786 44.3153L63.4796 31.9491C63.4796 31.7015 63.6885 31.5041 63.9444 31.5041L66.1879 31.5031C66.4229 31.5156 66.6109 31.6932 66.6265 31.9188V33.5335H66.6714C67.2563 31.9721 68.3582 31.243 69.8424 31.243C71.3495 31.243 72.2937 31.9721 72.9694 33.5335C73.5543 31.9721 74.8808 31.243 76.2981 31.243C77.3112 31.243 78.412 31.6608 79.0868 32.5966C79.8513 33.6369 79.6946 35.1472 79.6946 36.4747L79.6925 44.2787C79.6925 44.5263 79.4836 44.7237 79.2278 44.7237H76.8224C76.5822 44.708 76.39 44.5169 76.39 44.2798V37.7332C76.39 37.211 76.4349 35.9117 76.3221 35.4166C76.1425 34.5842 75.591 34.3492 74.9058 34.3492C74.321 34.3492 73.7131 34.7398 73.4645 35.3644C73.2159 35.989 73.24 37.0303 73.24 37.7332V44.2881C73.24 44.5357 73.0311 44.7331 72.7752 44.7331H70.3677C70.1254 44.7174 69.9353 44.5263 69.9353 44.2892L69.9332 37.7332C69.9332 36.3545 70.1578 34.3241 68.4501 34.3241C66.7184 34.3241 66.7853 36.3013 66.7853 37.7332V44.2881C66.7853 44.5357 66.5764 44.7331 66.3205 44.7331H66.3184ZM109.308 31.2524C112.856 31.2524 114.774 34.3231 114.774 38.2272C114.774 42.0008 112.654 44.9931 109.308 44.9931C105.827 44.9931 103.929 41.9225 103.929 38.0967C103.929 34.2458 105.849 31.2524 109.308 31.2524ZM109.331 34.0954C107.568 34.0954 107.456 36.5154 107.456 38.0246C107.456 39.5338 107.435 42.4426 109.309 42.4426C111.162 42.4426 111.251 40.1584 111.251 38.5709C111.251 37.5306 111.208 36.2804 110.896 35.2913C110.628 34.4328 110.092 34.0944 109.334 34.0944L109.331 34.0954ZM119.909 44.7331H117.509C117.269 44.7174 117.076 44.5263 117.076 44.2892L117.072 31.9177C117.093 31.6911 117.281 31.5146 117.535 31.5146L119.77 31.5135C119.869 31.5173 119.965 31.5531 120.042 31.6156C120.119 31.6781 120.174 31.764 120.198 31.8603V33.7403H120.244C120.919 32.0483 121.863 31.242 123.528 31.242C124.607 31.242 125.665 31.6326 126.34 32.699C126.969 33.6881 126.969 35.3519 126.969 36.5509V44.332C126.942 44.5409 126.746 44.7216 126.508 44.7216H124.092C123.869 44.707 123.69 44.544 123.674 44.332V37.6162C123.674 36.2637 123.831 34.274 122.167 34.274C121.582 34.274 121.042 34.6646 120.773 35.2631C120.435 36.0182 120.389 36.7723 120.389 37.6058V44.2652C120.385 44.5127 120.177 44.7101 119.919 44.7101L119.909 44.7331ZM88.6225 38.8267C88.6225 39.7667 88.6455 40.548 88.1713 41.3825C87.788 42.0614 87.1791 42.4792 86.5034 42.4792C85.579 42.4792 85.038 41.7752 85.038 40.7318C85.038 38.6805 86.8794 38.3066 88.6204 38.3066V38.8288L88.6225 38.8267ZM91.0519 44.7017C90.8921 44.8448 90.6623 44.8542 90.4827 44.7581C89.6826 44.0928 89.5396 43.7868 89.1019 43.1518C87.7797 44.5096 86.8428 44.9033 85.1299 44.9033C83.1016 44.9033 81.5234 43.65 81.5234 41.1475C81.5234 39.1913 82.5825 37.8617 84.0928 37.2099C85.4004 36.6355 87.2261 36.5311 88.6236 36.3744V36.0611C88.6236 35.4866 88.6685 34.8098 88.3311 34.3137C88.0387 33.8698 87.4747 33.687 86.9786 33.687C86.0595 33.687 85.2427 34.157 85.0411 35.1346C84.9994 35.3519 84.8406 35.566 84.6234 35.5775L82.288 35.3247C82.0791 35.2798 81.8702 35.1221 81.9287 34.8213C82.4655 31.9877 85.0244 31.1323 87.318 31.1323C88.4899 31.1323 90.0336 31.4457 90.9464 32.3334C92.1193 33.4301 92.0055 34.8892 92.0055 36.4799V40.2336C92.0055 41.3616 92.4755 41.8577 92.9142 42.4666C93.0677 42.6755 93.1022 42.9471 92.9058 43.1069L91.0571 44.707L91.0509 44.7007L91.0519 44.7017ZM57.3091 38.8267C57.3091 39.7667 57.332 40.548 56.8578 41.3825C56.4745 42.0614 55.8656 42.4792 55.1899 42.4792C54.2655 42.4792 53.7245 41.7752 53.7245 40.7318C53.7245 38.6805 55.5648 38.3066 57.307 38.3066V38.8288L57.3091 38.8267ZM59.7384 44.7017C59.5786 44.8448 59.3488 44.8542 59.1692 44.7581C58.3692 44.0928 58.225 43.7868 57.7884 43.1518C56.4662 44.5096 55.5293 44.9033 53.8164 44.9033C51.7881 44.9033 50.21 43.65 50.21 41.1475C50.21 39.1913 51.269 37.8617 52.7793 37.2099C54.0869 36.6355 55.9126 36.5311 57.3101 36.3744V36.0611C57.3101 35.4866 57.355 34.8098 57.0176 34.3137C56.7252 33.8698 56.1612 33.687 55.6651 33.687C54.746 33.687 53.9292 34.157 53.7276 35.1346C53.6859 35.3519 53.5188 35.566 53.3099 35.5775L50.9745 35.3247C50.7656 35.2798 50.5567 35.1221 50.6152 34.8213C51.151 31.9877 53.7099 31.1323 56.0045 31.1323C57.1764 31.1323 58.7201 31.4457 59.634 32.3334C60.8058 33.4301 60.693 34.8892 60.693 36.4799V40.2336C60.693 41.3616 61.163 41.8577 61.6017 42.4666C61.7552 42.6755 61.7897 42.9471 61.5944 43.1069L59.7562 44.707L59.7499 44.7007L59.7384 44.7017Z" fill="#B6B6B7"/>
</svg>
