<svg width="152" height="80" viewBox="0 0 152 80" fill="none" xmlns="http://www.w3.org/2000/svg">
<g clip-path="url(#clip0_1387_4706)">
<path d="M134.629 47.1565C134.496 47.1574 134.364 47.1302 134.24 47.0765C134.117 47.0229 134.005 46.9438 133.911 46.844C133.816 46.7441 133.742 46.6254 133.691 46.4947C133.64 46.3641 133.615 46.2241 133.615 46.0828C133.615 45.5022 134.064 45.0091 134.629 45.0091C135.178 45.0091 135.644 45.4844 135.644 46.0828C135.639 46.3661 135.531 46.6365 135.342 46.8368C135.152 47.0372 134.897 47.1518 134.629 47.1565ZM134.629 45.2206C134.414 45.2212 134.207 45.3123 134.054 45.4738C133.902 45.6354 133.816 45.8543 133.815 46.0828C133.816 46.3113 133.902 46.5302 134.054 46.6918C134.207 46.8534 134.414 46.9444 134.629 46.9451C134.845 46.9444 135.052 46.8534 135.205 46.6918C135.357 46.5302 135.443 46.3113 135.444 46.0828C135.443 45.8543 135.357 45.6354 135.205 45.4738C135.052 45.3123 134.845 45.2212 134.629 45.2206ZM135.145 46.6461H134.911L134.712 46.2409H134.446V46.6461H134.23V45.4667H134.762C134.995 45.4667 135.145 45.6248 135.145 45.854C135.146 45.9312 135.124 46.0068 135.082 46.07C135.04 46.1332 134.981 46.1807 134.912 46.2059L135.145 46.6506L135.145 46.6461ZM134.746 46.0299C134.829 46.0299 134.912 45.9771 134.912 45.854C134.912 45.7132 134.846 45.6781 134.746 45.6781H134.413V46.0299H134.746ZM36.0835 54.7773H28.9897V44.9034H31.5831V52.3833H36.0882L36.0835 54.7773ZM38.7601 49.8668V49.8322C38.7601 46.9984 40.9209 44.6934 43.7972 44.6934C46.6735 44.6934 48.8012 46.9638 48.8012 49.7976V49.8322C48.8012 52.6659 46.6403 54.971 43.764 54.971C40.8878 54.971 38.7601 52.7005 38.7601 49.8668ZM46.1741 49.8668V49.8322C46.1741 48.4067 45.2099 47.1738 43.7799 47.1738C42.3667 47.1738 41.4193 48.3884 41.4193 49.8139V49.8485C41.4193 51.274 42.3835 52.5068 43.7967 52.5068C45.2262 52.5068 46.1741 51.2923 46.1741 49.8668ZM51.9752 50.4474V44.9034H54.6018V50.3945C54.6018 51.82 55.2832 52.4896 56.3146 52.4896C57.346 52.4896 58.0274 51.8383 58.0274 50.4656V44.9034H60.654V50.3767C60.654 53.5623 58.9412 54.9522 56.2819 54.9522C53.6385 54.9522 51.9761 53.544 51.9761 50.4459M64.6098 44.9019H68.2006C71.5253 44.9019 73.4706 46.9258 73.4706 49.7773V49.8119C73.4706 52.663 71.509 54.7753 68.1511 54.7753H64.6102V44.9034L64.6098 44.9019ZM68.25 52.3468C69.7962 52.3468 70.8262 51.4489 70.8262 49.8475V49.8129C70.8262 48.2288 69.7957 47.3137 68.25 47.3137H67.2027V52.3299H68.25V52.3468ZM79.8037 48.9853H84.2257V51.2557H79.8037V54.7758H77.2275V44.9034H84.6915V47.2969H79.8042L79.8037 48.9853ZM95.3803 54.7763H88.2865V44.9034H90.8627V52.3833H95.385L95.3803 54.7763ZM102.13 44.8327H104.623L108.596 54.7768H105.82L105.138 53.0168H101.547L100.882 54.7768H98.1726L102.13 44.8327ZM104.407 50.8871L103.377 48.0939L102.33 50.8926H104.407V50.8871ZM111.921 44.9034H116.327C117.756 44.9034 118.737 45.2908 119.369 45.9771C119.917 46.5404 120.2 47.2964 120.2 48.2826V48.3172C120.2 49.8307 119.434 50.8343 118.288 51.3447L120.516 54.7946H117.523L115.645 51.8027H114.514V54.7946H111.921L111.921 44.9034ZM116.215 49.638C117.096 49.638 117.594 49.1804 117.594 48.4768V48.4422C117.594 47.668 117.062 47.2811 116.198 47.2811H114.503V49.6395H116.215L116.215 49.638ZM126.488 48.7229H130.96V50.8871H126.488V52.4535H131.492V54.7768H123.928V44.9034H131.426V47.2267H126.488V48.7229ZM23.3328 51.0289C22.9669 51.8912 22.2024 52.5073 21.2046 52.5073C19.7914 52.5073 18.8272 51.2572 18.8272 49.849V49.8144C18.8272 48.3889 19.7746 47.1743 21.1878 47.1743C22.2519 47.1743 23.0663 47.8612 23.3986 48.8113H26.1251C25.6929 46.4529 23.7309 44.7102 21.2046 44.7102C18.3288 44.7092 16.168 47.0157 16.168 49.849V49.8836C16.168 52.7173 18.2961 54.9878 21.1719 54.9878C23.6324 54.9878 25.5608 53.2979 26.0592 51.0448L23.3328 51.027V51.0289Z" fill="#B6B6B7"/>
<path d="M90.8262 40.1516H128.363V29.1511L121.232 24.8216L120.002 24.2583L90.8266 24.4693L90.8262 40.1516Z" fill="#B6B6B7"/>
<path d="M115.381 38.7083C115.73 37.4409 115.597 36.2792 115.015 35.4175C114.483 34.6254 113.586 34.1674 112.504 34.115L92.0403 33.8333C91.9781 33.8338 91.9166 33.8181 91.8615 33.7874C91.8064 33.7567 91.7593 33.712 91.7244 33.6574C91.6581 33.5517 91.6413 33.4104 91.6745 33.2701C91.7407 33.0591 91.9405 32.9004 92.1566 32.8827L112.803 32.601C115.247 32.4775 117.907 30.3834 118.838 27.813L120.019 24.5518C120.069 24.411 120.085 24.2702 120.051 24.1294C118.723 17.7636 113.353 13.0117 106.936 13.0117C101.018 13.0117 95.9975 17.06 94.2021 22.6742C93.0386 21.7591 91.5587 21.266 89.9631 21.4241C87.1208 21.7235 84.8433 24.1343 84.5605 27.144C84.4942 27.9183 84.5437 28.6757 84.7099 29.3794C80.0718 29.5202 76.3652 33.5329 76.3652 38.4785C76.3652 38.9233 76.3979 39.3581 76.4483 39.7978C76.481 40.0088 76.6476 40.1674 76.8473 40.1674H114.617C114.833 40.1674 115.037 40.0093 115.099 39.7801L115.382 38.7063L115.381 38.7083Z" fill="#B6B6B7"/>
<path d="M121.899 24.7861L121.335 24.8039C121.202 24.8039 121.085 24.9097 121.036 25.051L120.243 27.991C119.893 29.2584 120.026 30.4201 120.608 31.2818C121.14 32.0739 122.038 32.5319 123.119 32.5843L127.475 32.8659C127.537 32.8654 127.598 32.8812 127.653 32.9119C127.708 32.9426 127.756 32.9872 127.791 33.0419C127.857 33.1476 127.874 33.3057 127.84 33.4292C127.774 33.6402 127.574 33.7988 127.358 33.8166L122.82 34.0983C120.36 34.2218 117.717 36.3159 116.786 38.8863L116.453 39.7841C116.387 39.96 116.503 40.1359 116.687 40.1359H132.279C132.462 40.1359 132.628 40.0124 132.678 39.8197C132.944 38.7988 133.098 37.7246 133.098 36.6163C133.098 30.1038 128.078 24.7886 121.911 24.7886" fill="#B6B6B7"/>
</g>
<defs>
<clipPath id="clip0_1387_4706">
<rect width="119.476" height="42" fill="white" transform="translate(16.1689 13)"/>
</clipPath>
</defs>
</svg>
