<svg width="152" height="80" viewBox="0 0 152 80" fill="none" xmlns="http://www.w3.org/2000/svg">
<path d="M42.9162 57.3291V50.5042C49.8825 50.5042 55.2888 43.339 52.6144 35.7348C51.634 32.9403 49.4583 30.6856 46.7453 29.6677C39.4142 26.9133 32.5063 32.5033 32.5063 39.7271H25.9443C25.9443 28.2079 36.6908 19.228 48.3234 23.0003C53.4044 24.6566 57.4635 28.8474 59.0415 34.1176C62.6784 46.1931 54.019 57.3291 42.9162 57.3291Z" fill="#B6B6B7"/>
<path fill-rule="evenodd" clip-rule="evenodd" d="M42.935 43.7368V50.5422H36.374V43.7368H42.935ZM36.374 50.5422V55.742H31.3514V50.5324L36.374 50.5422ZM31.3514 50.5422H27.1377V46.1715H31.3514V50.5422Z" fill="#B6B6B7"/>
<path d="M76.617 24.2254C75.1276 23.1371 73.2234 22.6101 71.0552 22.6101H66.3164V38.235H71.0986C73.2648 38.235 75.1521 37.6728 76.6603 36.5141C77.4729 35.9275 78.1158 35.0748 78.59 34.0208C79.0302 32.9677 79.2668 31.7035 79.2668 30.3346C79.2668 28.9657 79.0312 27.7366 78.59 26.6835C78.1158 25.6305 77.4729 24.7867 76.6264 24.2254H76.617ZM69.102 25.2423H70.5914C72.2505 25.2423 73.6042 25.5943 74.6449 26.2592C75.795 26.9964 76.37 28.3663 76.37 30.3316C76.37 32.3683 75.8044 33.8076 74.6449 34.5801C73.6645 35.2469 72.309 35.597 70.6169 35.597H69.0935V25.2355L69.102 25.2423ZM82.5407 22.3999C82.0666 22.3999 81.6942 22.5759 81.3558 22.8917C81.2018 23.0461 81.0801 23.2319 80.9985 23.4373C80.9169 23.6427 80.8771 23.8635 80.8816 24.0856C80.8816 24.5774 81.0513 24.9636 81.3558 25.3147C81.6603 25.6305 82.0666 25.8065 82.5407 25.8065C82.9812 25.8028 83.4043 25.6272 83.7257 25.3147C84.0301 24.9988 84.1998 24.5774 84.1998 24.0856C84.2043 23.8635 84.1645 23.6427 84.0829 23.4373C84.0013 23.2319 83.8797 23.0461 83.7257 22.8917C83.3863 22.5759 82.9715 22.3999 82.5407 22.3999ZM81.1852 27.2106H83.8595V38.235H81.1852V27.2106ZM93.5756 28.1228C92.7631 27.3856 91.8835 26.9299 90.9013 26.9299C89.4119 26.9299 88.193 27.4579 87.2456 28.51C86.2982 29.5269 85.7901 30.8626 85.7901 32.4779C85.7901 34.0227 86.2643 35.3574 87.2117 36.4105C88.159 37.4274 89.4119 37.9554 90.8673 37.9554C91.8826 37.9554 92.797 37.6747 93.5068 37.0773V37.3218C93.5068 38.235 93.2712 38.9371 92.796 39.4289C92.3209 39.9207 91.679 40.1661 90.8664 40.1661C89.6475 40.1661 88.8679 39.6743 87.9215 38.3406L86.0927 40.1661L86.1267 40.2365C86.532 40.7987 87.107 41.361 87.9206 41.887C88.6992 42.415 89.7145 42.6947 90.8994 42.6947C92.4906 42.6947 93.7764 42.2028 94.7248 41.185C95.6731 40.1671 96.1463 38.8324 96.1463 37.1819V27.1754H93.5068V28.1238L93.5756 28.1228ZM92.8743 34.6534C92.4001 35.2156 91.7902 35.4611 91.0455 35.4611C90.2669 35.4611 89.6918 35.1804 89.2167 34.6534C88.7426 34.0912 88.5399 33.3891 88.5399 32.5023C88.5399 31.5891 88.7756 30.887 89.2167 30.3258C89.6579 29.7645 90.3008 29.5181 91.0455 29.5181C91.8242 29.5181 92.3992 29.7987 92.8743 30.3258C93.3485 30.888 93.5851 31.6262 93.5851 32.5023C93.5851 33.3784 93.3494 34.0824 92.8743 34.6534ZM98.4832 27.2106H101.158V38.235H98.4832V27.2106ZM99.8378 22.3999C99.3636 22.3999 98.9913 22.5759 98.6529 22.8917C98.4988 23.0461 98.3772 23.2319 98.2956 23.4373C98.214 23.6427 98.1742 23.8635 98.1787 24.0856C98.1787 24.5774 98.3484 24.9636 98.6529 25.3147C98.9573 25.6305 99.3636 25.8065 99.8378 25.8065C100.278 25.8028 100.701 25.6272 101.023 25.3147C101.327 24.9988 101.497 24.5774 101.497 24.0856C101.501 23.8635 101.462 23.6427 101.38 23.4373C101.298 23.2319 101.177 23.0461 101.023 22.8917C100.683 22.5759 100.312 22.3999 99.8378 22.3999ZM107.014 24.2254H104.375V27.2096H102.852V29.7371H104.375V34.3014C104.375 35.7407 104.645 36.7595 105.187 37.356C105.729 37.9524 106.711 38.234 108.064 38.234L109.351 38.1988H109.487V35.6713L108.573 35.7065C107.93 35.7065 107.523 35.6009 107.319 35.3545C107.114 35.1081 107.014 34.6182 107.014 33.881V29.7039H109.519V27.1763H107.014V24.2283V24.2254ZM122.043 22.5759H124.718V38.235H122.043V22.5759Z" fill="#B6B6B7"/>
<path d="M118.692 28.0516C117.879 27.3496 116.762 26.9634 115.374 26.9634C114.493 26.9634 113.649 27.1736 112.904 27.55C112.193 27.902 111.516 28.5327 111.075 29.3052L111.109 29.3404L112.834 31.026C113.545 29.8674 114.324 29.446 115.373 29.446C115.939 29.446 116.388 29.5868 116.761 29.9026C117.1 30.2184 117.303 30.6046 117.303 31.0955V31.6235C116.626 31.4132 115.983 31.3076 115.339 31.3076C114.019 31.3076 112.935 31.6235 112.134 32.2561C111.333 32.8887 110.915 33.8362 110.915 35.03C110.915 36.0831 111.254 36.8908 111.964 37.5234C112.675 38.11 113.522 38.4366 114.538 38.4366C115.554 38.4366 116.501 38.0162 117.381 37.278V38.1912H120.02V31.0984C119.918 29.798 119.511 28.7459 118.701 28.0438L118.692 28.0516ZM113.953 34.02C114.258 33.8098 114.707 33.7042 115.24 33.7042C115.883 33.7042 116.56 33.845 117.271 34.0904V35.1787C116.706 35.7409 115.918 36.0215 114.969 36.0215C114.495 36.0215 114.157 35.9159 113.885 35.7057C113.767 35.6105 113.672 35.4879 113.607 35.3476C113.542 35.2074 113.51 35.0535 113.513 34.898C113.503 34.7241 113.539 34.5508 113.617 34.3963C113.694 34.2417 113.811 34.1117 113.953 34.02Z" fill="#B6B6B7"/>
<path d="M90.2087 53.3954C89.7345 53.9576 89.2283 54.4484 88.855 54.6958C88.4817 54.9432 88.0085 55.082 87.4674 55.082C86.6887 55.082 86.0458 54.8014 85.5377 54.1688C85.0287 53.5821 84.7591 52.7647 84.7591 51.8514C84.7591 50.903 85.0296 50.1306 85.5377 49.5341C86.0458 48.9377 86.6878 48.6209 87.4674 48.6209C88.3139 48.6209 89.2273 49.1831 90.006 50.1306L91.766 48.3754C90.6159 46.8306 89.1595 46.0933 87.3995 46.0933C85.944 46.0933 84.6658 46.6555 83.6081 47.7438C82.5504 48.8321 82.0508 50.2019 82.0508 51.8505C82.0508 53.499 82.5928 54.8698 83.6081 55.9571C84.6573 57.0474 85.9082 57.6194 87.3976 57.6194C89.3273 57.6194 90.8855 56.7413 91.9677 55.1612L90.2068 53.3954H90.2087ZM101.21 47.8484C100.837 47.2862 100.329 46.8658 99.6863 46.548C99.0434 46.2302 98.2987 46.0562 97.4861 46.0562C95.9967 46.0562 94.7778 46.6184 93.8643 47.7418C92.9839 48.8663 92.5107 50.2352 92.5107 51.8847C92.5107 53.5704 93.0197 54.9393 93.9661 55.9914C94.9465 57.0444 96.2342 57.5714 97.8254 57.5714C99.6194 57.5714 101.109 56.7892 102.226 55.3245L102.294 55.2541L100.534 53.499C100.364 53.7092 100.128 53.9194 99.9248 54.1306C99.6542 54.3751 99.4157 54.5873 99.1461 54.7173C98.7255 54.9327 98.2615 55.041 97.7925 55.0331C97.0383 55.0331 96.4388 54.8229 95.9637 54.3663C95.5234 53.9458 95.2529 53.3836 95.185 52.6806H102.26L102.294 51.6637C102.294 50.9617 102.192 50.2596 102.023 49.627C101.854 48.9944 101.583 48.3979 101.211 47.8377L101.21 47.8484ZM95.3538 50.4464C95.4895 49.9184 95.7261 49.4637 96.0645 49.1459C96.4369 48.7597 96.9111 48.5837 97.4522 48.5837C98.0951 48.5837 98.6022 48.7597 98.9416 49.1459C99.2606 49.5022 99.4519 49.9613 99.4836 50.4464H95.3538Z" fill="#B6B6B7"/>
<path d="M111.466 47.1376C110.653 46.4355 109.536 46.0493 108.147 46.0493C107.267 46.0493 106.422 46.2595 105.678 46.636C104.967 46.988 104.29 47.6187 103.849 48.3911L103.883 48.4263L105.608 50.112C106.319 48.9533 107.097 48.5319 108.146 48.5319C108.712 48.5319 109.162 48.6727 109.534 48.9885C109.873 49.3043 110.076 49.6906 110.076 50.1814V50.7094C109.399 50.4992 108.756 50.3936 108.112 50.3936C106.793 50.3936 105.709 50.7094 104.907 51.342C104.106 51.9746 103.688 52.9221 103.688 54.116C103.688 55.1691 104.028 55.9767 104.738 56.6093C105.448 57.196 106.295 57.5226 107.311 57.5226C108.327 57.5226 109.275 57.1021 110.154 56.3639V57.2771H112.794V50.1843C112.692 48.8839 112.285 47.8318 111.474 47.1298L111.466 47.1376ZM106.727 53.1059C107.031 52.8957 107.481 52.7901 108.013 52.7901C108.656 52.7901 109.333 52.9309 110.045 53.1763V54.2646C109.479 54.8268 108.691 55.1074 107.743 55.1074C107.269 55.1074 106.93 55.0019 106.659 54.7916C106.54 54.6964 106.445 54.5738 106.38 54.4336C106.316 54.2933 106.284 54.1394 106.286 53.984C106.277 53.8101 106.313 53.6367 106.39 53.4822C106.468 53.3277 106.584 53.1977 106.727 53.1059Z" fill="#B6B6B7"/>
<path d="M122.974 47.3477C122.22 46.4697 121.18 46.0473 119.859 46.0473C118.81 46.0473 117.93 46.3631 117.286 46.9957V46.3289H114.679V57.3191H117.354V51.2442C117.354 50.4013 117.556 49.7345 117.919 49.2886C118.282 48.8427 118.8 48.5866 119.511 48.5866C120.12 48.5866 120.56 48.7968 120.898 49.2182C121.237 49.6396 121.407 50.2351 121.407 50.9391V57.3289H124.082V50.9391C124.082 49.4294 123.709 48.2013 122.965 47.3575L122.974 47.3477ZM72.9115 57.5655C70.8467 57.5652 68.8666 56.7143 67.4066 55.1999C65.9466 53.6856 65.1262 51.6317 65.126 49.49C65.1262 47.3484 65.9466 45.2945 67.4066 43.7801C68.8666 42.2657 70.8467 41.4148 72.9115 41.4146C74.9763 41.4148 76.9564 42.2657 78.4164 43.7801C79.8764 45.2945 80.6968 47.3484 80.697 49.49C80.6968 51.6317 79.8764 53.6856 78.4164 55.1999C76.9564 56.7143 74.9763 57.5652 72.9115 57.5655ZM72.9115 44.2677C70.1353 44.2677 67.8682 46.6202 67.8682 49.4988C67.8682 52.3774 70.1363 54.7299 72.9115 54.7299C75.6867 54.7299 77.9548 52.3774 77.9548 49.4988C77.9548 46.6202 75.6867 44.2677 72.9115 44.2677Z" fill="#B6B6B7"/>
</svg>
