<svg xmlns="http://www.w3.org/2000/svg" width="24" height="24" fill="none"><mask id="a" width="20" height="16" x="2" y="4" maskUnits="userSpaceOnUse" style="mask-type:luminance"><path fill="#fff" d="M22 4H2v16h20z"/></mask><g mask="url(#a)"><path fill="#B6B6B7" d="M18.93 5.425a16.116 16.116 0 0 0-4.07-1.304.061.061 0 0 0-.066.032c-.175.323-.37.744-.506 1.075a14.749 14.749 0 0 0-4.573 0A11.031 11.031 0 0 0 9.2 4.153a.064.064 0 0 0-.065-.032 16.07 16.07 0 0 0-4.07 1.304.059.059 0 0 0-.028.024c-2.593 4-3.303 7.902-2.954 11.756a.072.072 0 0 0 .026.048 16.388 16.388 0 0 0 4.994 2.608.064.064 0 0 0 .07-.024 12.31 12.31 0 0 0 1.022-1.716.066.066 0 0 0-.035-.091 10.767 10.767 0 0 1-1.56-.768.068.068 0 0 1-.007-.11c.105-.081.21-.166.31-.251a.06.06 0 0 1 .065-.01c3.273 1.544 6.817 1.544 10.051 0a.06.06 0 0 1 .066.01c.1.084.205.17.31.25a.068.068 0 0 1-.005.11c-.499.301-1.017.556-1.561.768a.067.067 0 0 0-.034.091c.3.601.643 1.173 1.02 1.716a.063.063 0 0 0 .07.025 16.334 16.334 0 0 0 5.003-2.608.067.067 0 0 0 .026-.047c.417-4.455-.699-8.325-2.957-11.756a.052.052 0 0 0-.026-.025M8.684 14.86c-.985 0-1.797-.935-1.797-2.082 0-1.148.796-2.082 1.797-2.082 1.01 0 1.814.943 1.798 2.082 0 1.147-.796 2.082-1.798 2.082m6.646 0c-.985 0-1.797-.935-1.797-2.082 0-1.148.796-2.082 1.797-2.082 1.009 0 1.813.943 1.797 2.082 0 1.147-.788 2.082-1.797 2.082"/></g></svg>