<svg xmlns="http://www.w3.org/2000/svg" width="32" height="32" fill="none"><mask id="a" width="28" height="22" x="2" y="5" maskUnits="userSpaceOnUse" style="mask-type:luminance"><path fill="#fff" d="M29.333 5.334H2.666v21.333h26.667z"/></mask><g mask="url(#a)"><path fill="#121315" d="M25.24 7.233a21.487 21.487 0 0 0-5.427-1.738.082.082 0 0 0-.088.042c-.234.43-.494.992-.676 1.434a19.665 19.665 0 0 0-6.096 0 14.686 14.686 0 0 0-.686-1.434.085.085 0 0 0-.088-.042 21.426 21.426 0 0 0-5.428 1.738.079.079 0 0 0-.035.032c-3.457 5.334-4.404 10.537-3.94 15.675a.094.094 0 0 0 .035.064A21.85 21.85 0 0 0 9.47 26.48a.085.085 0 0 0 .093-.031c.513-.724.97-1.486 1.362-2.289a.088.088 0 0 0-.046-.12 14.357 14.357 0 0 1-2.08-1.025.09.09 0 0 1-.008-.146c.14-.108.28-.221.413-.335a.08.08 0 0 1 .086-.012c4.364 2.058 9.089 2.058 13.402 0a.08.08 0 0 1 .087.011c.133.114.273.227.414.336a.09.09 0 0 1-.007.146c-.665.401-1.355.74-2.082 1.023a.089.089 0 0 0-.045.122c.4.801.858 1.564 1.361 2.288.021.03.06.043.094.032 2.179-.696 4.388-1.746 6.67-3.476a.089.089 0 0 0 .034-.063c.556-5.94-.931-11.1-3.943-15.675a.07.07 0 0 0-.034-.033M11.578 19.811c-1.314 0-2.396-1.246-2.396-2.776 0-1.53 1.061-2.775 2.396-2.775 1.345 0 2.418 1.256 2.397 2.775 0 1.53-1.062 2.776-2.397 2.776m8.861 0c-1.314 0-2.397-1.246-2.397-2.776 0-1.53 1.062-2.775 2.397-2.775 1.345 0 2.418 1.256 2.396 2.775 0 1.53-1.05 2.776-2.396 2.776"/></g></svg>