<svg width="152" height="80" viewBox="0 0 152 80" fill="none" xmlns="http://www.w3.org/2000/svg">
<path d="M87.8026 24.1789V51.0062H95.5665V46.8995H92.9996V20.0938H87.796L87.8026 24.1789ZM20.3441 46.9083H22.9854V33.9626H20.3441V30.4015L22.9854 29.9488V26.3427C22.9854 21.9789 23.8998 20.0869 29.2684 20.0869C30.4278 20.0869 31.7985 20.2649 33.0013 20.478L32.2887 24.878C31.4714 24.7441 31.0632 24.7186 30.557 24.7186C28.665 24.7186 28.1862 24.9162 28.1862 26.8277V29.9566H32.103V33.9635H28.1786V46.9025H30.7898V51.0091H20.3262L20.3441 46.9083ZM85.1565 45.6079C84.3458 45.7858 83.6332 45.7673 83.1175 45.78C80.9805 45.8386 81.1643 45.0955 81.1643 43.009V33.9626H85.2367V29.9576H81.1596V20.0938H75.956V44.1305C75.956 48.8512 77.0797 51.0042 81.975 51.0042C83.1345 51.0042 84.7276 50.6914 85.9305 50.4313L85.1565 45.6079ZM69.461 33.9567V33.237C67.8887 32.9378 66.3219 32.9378 65.4735 32.9378C63.0537 32.9378 62.7586 34.2696 62.7586 34.9892C62.7586 36.0081 63.0961 36.5537 65.7186 37.155C69.5515 38.0467 73.4014 38.9766 73.4014 43.9085C73.4014 48.5842 71.0796 50.9994 66.1966 50.9994C62.9293 50.9994 59.76 50.2729 57.3402 49.6363V45.6098H61.2768V46.3236C62.9717 46.661 64.7458 46.6297 65.6743 46.6297C68.2544 46.6297 68.672 45.1894 68.672 44.4258C68.672 43.3619 67.9292 42.8613 65.5084 42.3431C60.9506 41.5345 57.326 39.9221 57.326 35.1124C57.326 30.5638 60.2559 28.7794 65.1446 28.7794C68.4552 28.7794 70.9674 29.3142 73.3873 29.9527V33.9538H69.4563L69.461 33.9567ZM45.5172 37.4992L45.1241 37.0914L43.1162 38.9072C43.0119 38.8685 42.9018 38.8489 42.791 38.8495C42.5274 38.8541 42.2763 38.9666 42.0924 39.1623C41.9084 39.3581 41.8064 39.6214 41.8087 39.8947C41.8087 40.4746 42.2518 40.941 42.791 40.941C43.0545 40.9363 43.3056 40.8239 43.4896 40.6281C43.6736 40.4323 43.7755 40.1691 43.7732 39.8957C43.7717 39.7902 43.7571 39.6854 43.7299 39.5838L45.5172 37.4992ZM53.4828 45.6089L53.4762 28.8155H48.2726V30.38C47.1825 29.7021 45.9844 29.2319 44.7348 28.9915H44.7659V27.1416H45.3975V25.7727H40.1581V27.1416H40.7897V29.0023H40.8274C35.852 29.9507 32.0813 34.4778 32.0813 39.9094C32.0808 41.3662 32.3571 42.8087 32.8943 44.1547C33.4315 45.5007 34.2192 46.7236 35.2123 47.7537C36.2054 48.7838 37.3844 49.6008 38.6821 50.158C39.9797 50.7153 41.3705 51.0018 42.775 51.0013C44.7894 51.0013 46.6748 50.4215 48.2839 49.4154L49.2238 51.0013H54.7195V45.604H53.5016L53.4828 45.6089ZM43.0964 45.602V44.9645H42.4761V45.5952C41.1254 45.5121 39.8515 44.916 38.8976 43.9206C37.9437 42.9252 37.3766 41.6003 37.3046 40.1988H37.9249V39.5554H37.3103C37.4762 36.6759 39.7 34.3693 42.4761 34.2041V34.8416H43.0964V34.2041C45.8358 34.3566 48.0407 36.5869 48.2811 39.3863V39.5818H47.6542V40.2252H48.2811V40.4032C48.1645 41.7716 47.5761 43.0505 46.624 44.0054C45.6719 44.9603 44.4188 45.5272 43.0964 45.602ZM108.725 29.9556H119.456V33.9626H116.888L110.319 50.7549C108.434 55.4698 105.338 59.9098 100.621 59.9098C99.4616 59.9098 97.9184 59.7759 96.8438 59.5187L97.317 54.6299C97.9964 54.7591 98.6844 54.8336 99.3748 54.8528C101.562 54.8528 104.032 53.4448 104.805 50.9984L98.1343 33.9821H95.5665V29.9771H106.313V33.9841H103.752L107.529 43.623L111.306 33.9841H108.745L108.725 29.9556Z" fill="#B6B6B7"/>
</svg>
