<svg width="152" height="80" viewBox="0 0 152 80" fill="none" xmlns="http://www.w3.org/2000/svg">
<g clip-path="url(#clip0_1387_4724)">
<path fill-rule="evenodd" clip-rule="evenodd" d="M41.4555 26.5068H46.0314C50.1014 26.5068 53.4056 29.7656 53.4056 33.7792V49.646C53.4056 53.6595 50.1014 56.9179 46.0314 56.9179H45.6709C43.5761 56.5949 42.6675 55.9753 41.9656 55.4517L36.148 50.7348C36.0021 50.6189 35.8203 50.5556 35.6329 50.5556C35.4455 50.5556 35.2637 50.6189 35.1178 50.7348L33.2278 52.2674L27.9049 47.9511C27.759 47.8351 27.5773 47.7719 27.3899 47.7719C27.2026 47.7719 27.0209 47.8351 26.875 47.9511L19.48 54.3665C17.9918 55.56 17.0071 55.3396 16.3688 55.2704C14.7198 53.936 13.667 51.9111 13.667 49.646V33.7792C13.667 29.7656 16.9712 26.5068 21.042 26.5068H25.6075L25.5991 26.525L25.4454 26.9674L25.3974 27.1195L25.1901 28.0258L25.1617 28.1849L25.0707 29.0925L25.0585 29.3417L25.0569 29.429L25.0656 29.8452L25.0861 30.089L25.1375 30.471L25.2031 30.8146L25.2804 31.131L25.3811 31.4737L25.6426 32.1992L25.7287 32.4168L26.1836 33.3647L26.344 33.656L26.8704 34.5467L27.0718 34.8677L27.8058 35.9343L27.912 36.0752L28.8674 37.3017L29.1762 37.679L30.267 38.9368L30.4913 39.1787L31.3904 40.1328L31.7467 40.4966L32.3354 41.0734L32.2172 41.1706L32.1436 41.2361C31.9439 41.4199 31.7538 41.6147 31.5763 41.8203C31.4911 41.9196 31.4096 42.0218 31.3323 42.1277C31.2145 42.2888 31.1092 42.4585 31.0173 42.6352C30.9705 42.7272 30.9284 42.8213 30.8911 42.9174C30.7952 43.163 30.7376 43.4215 30.7203 43.6841L30.7169 43.9107C30.7253 44.2304 30.7913 44.546 30.912 44.8431C31.034 45.1438 31.2124 45.4194 31.4376 45.6559C31.6009 45.8277 31.7873 45.9772 31.9916 46.1004C32.1654 46.2055 32.3508 46.292 32.5434 46.3579C32.9622 46.4979 33.4066 46.5476 33.8465 46.5038H33.849C34.2242 46.4679 34.5888 46.3612 34.9231 46.1894C35.0677 46.114 35.2051 46.0267 35.3338 45.9274C35.7024 45.6443 35.9881 45.2697 36.1614 44.8418C36.2967 44.5085 36.3633 44.1519 36.3573 43.7929L36.3469 43.6054C36.3222 43.3576 36.2622 43.1145 36.1685 42.8832C36.1281 42.7825 36.0821 42.684 36.0306 42.5883C35.9355 42.4118 35.8271 42.2425 35.7064 42.0819C35.6513 42.0083 35.5942 41.9362 35.5352 41.8656C35.3388 41.6342 35.1272 41.4158 34.9018 41.2118L34.7426 41.0779L35.0125 40.8155L36.171 39.6224L36.5717 39.1881L37.1946 38.4972L37.5998 38.0301L38.1776 37.3359L38.5691 36.851L39.1435 36.0937L39.4334 35.7015L39.8445 35.0951L40.1875 34.578L40.833 33.4694L41.2023 32.7418L41.2132 32.7196L41.4956 32.0447C41.4993 32.036 41.5026 32.0271 41.5052 32.018L41.8098 31.0815L41.8419 30.9447L41.9739 30.1995L41.9994 29.9976L42.0074 29.874L42.0166 29.4072L42.014 29.3203L41.9898 28.9021L41.9597 28.5775L41.8098 27.6414C41.8072 27.6291 41.8052 27.6167 41.801 27.6044L41.6084 26.9122L41.542 26.7198L41.4555 26.5068ZM43.6308 46.2932C42.6771 46.3068 41.8967 47.0764 41.8833 48.0166C41.8922 48.4708 42.0792 48.904 42.405 49.2252C42.7309 49.5463 43.1702 49.7305 43.6308 49.7391C44.5838 49.7255 45.3638 48.9563 45.3784 48.0166C45.3697 47.5622 45.1828 47.1288 44.857 46.8075C44.5311 46.4861 44.0916 46.3018 43.6308 46.2932Z" fill="#B6B6B7" fill-opacity="0.35"/>
<path fill-rule="evenodd" clip-rule="evenodd" d="M100.417 52.3588L95.213 41.3728C94.7785 40.4573 94.5195 40.1228 94.0846 39.7347L93.6618 39.3586C93.3242 39.036 93.1028 38.7373 93.1028 38.3826C93.1028 37.8746 93.5106 37.447 94.2538 37.447H98.772C99.481 37.447 99.923 37.8107 99.923 38.3537C99.923 38.657 99.7818 38.8844 99.603 39.1073C99.3912 39.3722 99.115 39.6301 99.115 40.101C99.115 40.396 99.2024 40.6901 99.3703 41.0658L102.476 48.2377L105.262 41.2463C105.433 40.7812 105.55 40.3716 105.55 40.0437C105.55 39.5333 105.269 39.3252 105.052 39.097C104.863 38.8988 104.712 38.6895 104.712 38.3537C104.712 37.8054 105.165 37.447 105.774 37.447H108.556C109.336 37.447 109.707 37.8449 109.707 38.3537C109.707 38.6792 109.517 38.9812 109.143 39.3067L108.749 39.6255C108.201 40.0672 107.948 40.7058 107.66 41.3666L103.441 51.3898C102.942 52.5615 102.2 54.1884 101.066 55.5232C99.9147 56.8786 98.3618 57.9329 96.2587 57.9329C94.4978 57.9329 93.4316 57.1036 93.4316 55.9088C93.4316 54.8142 94.2525 53.942 95.3312 53.942C95.922 53.942 96.229 54.2172 96.5407 54.5003C96.7985 54.7334 97.06 54.9732 97.5755 54.9732C98.0535 54.9732 98.4988 54.7738 98.9028 54.4516C99.5194 53.9597 100.036 53.1856 100.417 52.3588ZM30.9191 56.299L30.6108 56.5548C30.3253 56.7864 29.9681 56.9146 29.5985 56.9182H21.0424C19.338 56.9204 17.6858 56.3379 16.3691 55.2707C17.0075 55.3399 17.9922 55.5603 19.4803 54.3668L26.8754 47.9513C27.0213 47.8354 27.203 47.7722 27.3903 47.7722C27.5777 47.7722 27.7594 47.8354 27.9052 47.9513L33.2281 52.2677L35.1182 50.7351C35.2641 50.6192 35.4459 50.5559 35.6333 50.5559C35.8207 50.5559 36.0025 50.6192 36.1484 50.7351L41.966 55.4519C42.6678 55.9756 43.5765 56.5952 45.6712 56.9182H41.8009C41.4591 56.914 41.1271 56.805 40.8509 56.6063L40.7832 56.5548L40.4958 56.3192C40.4728 56.2917 40.4474 56.2663 40.4198 56.2434C40.0943 55.9743 35.9725 52.6072 35.9725 52.6072C35.8854 52.5358 35.7756 52.4968 35.6623 52.497C35.549 52.4972 35.4394 52.5367 35.3525 52.6084C35.3525 52.6084 35.3626 52.6204 30.9772 56.2434C30.9565 56.2605 30.9371 56.2791 30.9191 56.299ZM130.998 52.3196C133.34 52.3196 135.259 51.5282 136.756 49.9486C138.252 48.3716 139.001 46.4731 139.001 44.2534C139.001 42.0867 138.29 40.3066 136.873 38.9116C135.456 37.517 133.618 36.8166 131.357 36.8166C128.975 36.8166 127.027 37.5792 125.51 39.0986C123.993 40.6192 123.234 42.4612 123.234 44.6254C123.234 46.7698 123.958 48.5879 125.404 50.0788C126.851 51.571 128.715 52.3196 130.998 52.3196ZM111.19 52.1478C112.544 52.1478 113.507 51.2485 113.507 49.9519C113.507 48.6859 112.512 47.7849 111.19 47.7849C109.803 47.7849 108.812 48.6876 108.812 49.9519C108.812 51.2472 109.804 52.1478 111.19 52.1478ZM116.012 50.0928L116.343 49.7492C116.734 49.3735 116.861 48.9941 116.861 47.9476V41.7617C116.861 40.857 116.736 40.4532 116.347 40.1076L115.959 39.7648C115.579 39.434 115.454 39.2284 115.454 38.898C115.454 38.4283 115.823 38.0431 116.417 37.9096L119.051 37.2793C119.302 37.2191 119.587 37.1606 119.807 37.1606C120.11 37.1606 120.358 37.2587 120.532 37.4292C120.706 37.6002 120.808 37.8458 120.808 38.1535V47.9476C120.808 48.9352 120.93 49.3945 121.348 49.7414C121.355 49.7472 121.361 49.7534 121.367 49.76L121.661 50.0982C122.031 50.4529 122.184 50.6882 122.184 51.0116C122.184 51.5888 121.743 51.9188 121.034 51.9188H116.575C115.899 51.9188 115.454 51.5908 115.454 51.0116C115.454 50.6865 115.608 50.4492 116.012 50.0928ZM86.2107 50.0933L86.5403 49.7492C86.9326 49.3735 87.0588 48.9941 87.0588 47.9476V35.0319C87.0588 34.156 86.9648 33.7259 86.5491 33.3807L86.151 33.0008C85.808 32.6721 85.6826 32.4681 85.6826 32.1394C85.6826 31.6689 86.0536 31.2853 86.6151 31.151L89.2183 30.5211C89.4706 30.4609 89.7543 30.402 89.9749 30.402C90.2757 30.402 90.5301 30.4914 90.7119 30.6607C90.894 30.8309 91.006 31.0834 91.006 31.4237V47.9476C91.006 48.9376 91.1309 49.3706 91.5508 49.7451L91.8867 50.0957C92.2589 50.4529 92.383 50.6865 92.383 51.0116C92.383 51.2513 92.3086 51.4446 92.1766 51.5921C91.9903 51.7997 91.6782 51.9188 91.2617 51.9188H86.8035C86.3874 51.9188 86.0749 51.7997 85.8882 51.5921C85.7566 51.4446 85.6826 51.2513 85.6826 51.0116C85.6826 50.6861 85.8051 50.4504 86.2107 50.0933ZM74.0709 43.4418V47.8904C74.0709 48.5607 74.2055 49.1795 74.7653 49.6891L75.1275 50.0356C75.5332 50.4237 75.6564 50.656 75.6564 51.0116C75.6564 51.555 75.2148 51.9188 74.5054 51.9188H69.4787C68.7693 51.9188 68.3277 51.555 68.3277 51.0116C68.3277 50.5897 68.4535 50.3899 68.8587 50.0335L69.2197 49.6879C69.6396 49.313 69.9136 48.8017 69.9136 47.8904V36.0058C69.9136 35.2816 69.7511 34.6891 69.2193 34.2067L68.8566 33.8602C68.484 33.5034 68.3277 33.269 68.3277 32.9127C68.3277 32.3367 68.771 31.977 69.4787 31.977H82.9437C83.458 31.977 83.9104 32.0899 84.1991 32.3692C84.4001 32.5637 84.5283 32.8377 84.543 33.2179L84.7527 36.2831C84.7736 36.6663 84.6587 36.986 84.4347 37.1829C84.2802 37.3184 84.0725 37.3996 83.811 37.3996C83.4814 37.3996 83.2286 37.2768 83.003 37.0651C82.8004 36.8747 82.6199 36.6073 82.416 36.2926C81.9243 35.5176 81.6954 35.2387 81.1711 34.8762C80.4416 34.3455 79.3299 34.163 77.2285 34.163C76.0157 34.163 75.2503 34.2154 74.7682 34.3377C74.4565 34.4172 74.2765 34.5202 74.1804 34.6714C74.0814 34.8263 74.0709 35.022 74.0709 35.261V41.2842H77.2285C77.9838 41.2842 78.5153 41.1495 79.1311 40.3197L79.1344 40.3148C79.3813 40.005 79.5601 39.7767 79.7302 39.6255C79.9278 39.4488 80.1183 39.3652 80.3702 39.3652C80.6124 39.3684 80.8437 39.4653 81.0142 39.6351C81.1847 39.8048 81.2808 40.0338 81.2818 40.2728V44.4252C81.2818 44.9813 80.8423 45.3608 80.3702 45.3608C80.1354 45.3608 79.9449 45.2784 79.7464 45.1054C79.5756 44.9575 79.3963 44.7354 79.1641 44.4392C78.4902 43.579 78.0143 43.4418 77.2285 43.4418H74.0709ZM127.421 43.3367C127.421 41.847 127.75 40.7762 128.432 40.1323C129.106 39.4966 129.83 39.1748 130.608 39.1748C131.679 39.1748 132.644 39.766 133.514 40.9278C134.403 42.116 134.843 43.7215 134.843 45.7423C134.843 47.2337 134.513 48.3143 133.83 48.9768C133.157 49.6302 132.434 49.9614 131.656 49.9614C130.585 49.9614 129.621 49.3657 128.75 48.1948C127.861 46.9968 127.421 45.3764 127.421 43.3367ZM43.6312 46.2935C42.6774 46.3071 41.897 47.0767 41.8837 48.0169C41.8926 48.4711 42.0795 48.9043 42.4054 49.2254C42.7312 49.5466 43.1706 49.7308 43.6312 49.7394C44.5842 49.7258 45.3642 48.9566 45.3788 48.0169C45.3701 47.5625 45.1832 47.1291 44.8573 46.8077C44.5315 46.4864 44.092 46.3021 43.6312 46.2935ZM32.3358 41.0737L31.7471 40.4969L31.3908 40.1331L30.4917 39.1789L30.2674 38.9371L29.1765 37.6793L28.8678 37.3019L27.9123 36.0755L27.8062 35.9346L27.0722 34.8679L26.8708 34.547L26.3444 33.6563L26.184 33.365L25.729 32.417L25.643 32.1995L25.3814 31.474L25.2808 31.1312L25.2035 30.8148L25.1379 30.4712L25.0865 30.0893L25.066 29.8454L25.0572 29.4293L25.0589 29.342L25.071 29.0927L25.1621 28.1851L25.1905 28.0261L25.3977 27.1197L25.4458 26.9677L25.5995 26.5252L25.6492 26.4107L25.8941 25.8801L26.0637 25.5641L26.3006 25.1793L26.5362 24.8365L26.7041 24.619L26.898 24.3891L27.1106 24.158L27.2932 23.9771L27.7377 23.5915L28.0623 23.3295C28.0701 23.3231 28.0782 23.317 28.0866 23.3113L28.4709 23.0551L28.7763 22.8631L29.3562 22.5619C29.365 22.5566 29.375 22.5525 29.3842 22.5479L30.2064 22.2113L30.2824 22.1833L31.0135 21.9724L31.3222 21.904L31.7392 21.8216L32.0162 21.78L32.4406 21.7281L32.7302 21.7025L33.3046 21.6725L33.5298 21.6704L33.9563 21.6791L34.067 21.6852L34.6845 21.7355L35.5017 21.8492L35.5961 21.869L36.4033 22.0667L36.6406 22.1368L36.9038 22.2262L37.2246 22.3461L37.4782 22.4519L37.8509 22.6254L38.0856 22.744L38.5076 22.9888L38.6651 23.0839L39.2404 23.4984L39.4054 23.6397L39.8069 24.0002L39.8265 24.0195L40.167 24.3796L40.284 24.5098L40.6834 25.033L40.7649 25.1579L41.0819 25.6856L41.1772 25.8669L41.3556 26.2603L41.5423 26.7201L41.6088 26.9125L41.8014 27.6046C41.8051 27.617 41.808 27.6294 41.8101 27.6417L41.9601 28.5778L41.9902 28.9024L42.0144 29.3206L42.0169 29.4075L42.0077 29.8743L41.9998 29.9979L41.9743 30.1997L41.8423 30.945L41.8101 31.0818L41.5056 32.0182C41.5029 32.0273 41.4997 32.0363 41.496 32.045L41.2135 32.7198L41.2027 32.7421L40.8334 33.4697L40.1879 34.5783L39.8449 35.0954L39.4338 35.7018L39.1439 36.094L38.5694 36.8512L38.178 37.3361L37.6002 38.0303L37.1949 38.4975L36.572 39.1884L36.1714 39.6227L35.0129 40.8158L34.743 41.0782L34.9022 41.2121C35.1275 41.4162 35.3391 41.6346 35.5355 41.8659C35.5944 41.9364 35.6517 42.0085 35.7068 42.0822C35.8276 42.2429 35.9358 42.4118 36.031 42.5885C36.0824 42.6837 36.1284 42.7826 36.1689 42.8835C36.2616 43.1142 36.3239 43.3589 36.3473 43.6057L36.3577 43.7932C36.3636 44.1522 36.297 44.5087 36.1618 44.8421C35.9884 45.2699 35.7028 45.6446 35.3342 45.9277C35.2054 46.0268 35.068 46.1145 34.9235 46.1897C34.5893 46.3615 34.2245 46.4682 33.8494 46.504H33.8469C33.4069 46.5479 32.9626 46.4981 32.5438 46.3582C32.351 46.2922 32.166 46.2059 31.9919 46.1007C31.788 45.9775 31.6017 45.828 31.438 45.6562C31.2129 45.42 31.0346 45.1443 30.9124 44.8433C30.7917 44.5465 30.7257 44.2307 30.7173 43.911L30.7206 43.6844C30.738 43.4218 30.7956 43.1633 30.8915 42.9177C30.9287 42.8213 30.9709 42.7274 31.0177 42.6355C31.1097 42.4588 31.215 42.2892 31.3327 42.1279C31.4096 42.0225 31.4914 41.9199 31.5767 41.8206C31.7542 41.615 31.9443 41.4201 32.144 41.2364L32.2175 41.1709L32.3358 41.0737ZM118.61 35.2803C119.968 35.2803 120.928 34.5268 120.928 33.2274C120.928 31.9589 119.968 31.2037 118.61 31.2037C117.22 31.2037 116.262 31.9593 116.262 33.2274C116.262 34.4955 117.221 35.2803 118.61 35.2803Z" fill="#B6B6B7"/>
<path fill-rule="evenodd" clip-rule="evenodd" d="M30.6105 56.5546L35.3522 52.6082C35.4391 52.5364 35.5487 52.497 35.662 52.4967C35.7753 52.4965 35.8851 52.5355 35.9722 52.6069L40.7829 56.5546C41.0754 56.789 41.4409 56.9175 41.8182 56.9179H29.5811C29.9566 56.9179 30.3205 56.7898 30.6105 56.5546ZM33.5616 42.4667L33.6084 42.4803C33.6235 42.4873 33.636 42.498 33.6494 42.5071L33.6882 42.5409C33.7839 42.6278 33.8771 42.7189 33.9665 42.8124C34.0296 42.8787 34.091 42.9471 34.1499 43.0176C34.2251 43.107 34.2953 43.2005 34.3592 43.2977C34.3868 43.341 34.4122 43.3842 34.4365 43.4295C34.4574 43.4687 34.4762 43.5095 34.4925 43.5503C34.5228 43.6217 34.5422 43.6973 34.5501 43.7744L34.5489 43.9186C34.5292 44.1822 34.3817 44.4212 34.1532 44.5592C34.007 44.6465 33.8424 44.7001 33.6724 44.7153L33.4919 44.7207L33.3394 44.7075C33.268 44.6972 33.1978 44.6804 33.1297 44.6573C33.0604 44.6339 32.9938 44.6032 32.9312 44.5658L32.8121 44.4797C32.672 44.3615 32.5764 44.2001 32.541 44.0216C32.5352 43.9915 32.5306 43.9613 32.5272 43.9309L32.5226 43.7933C32.5251 43.7563 32.531 43.7192 32.5393 43.6825C32.5598 43.6026 32.5899 43.5247 32.6279 43.4506C32.6764 43.3579 32.7324 43.2685 32.7942 43.184C32.8974 43.0464 33.0089 42.9154 33.1288 42.7918C33.2057 42.7119 33.2847 42.634 33.367 42.559L33.4254 42.5071C33.466 42.4803 33.4664 42.4803 33.5128 42.4667H33.5616ZM33.2621 23.3024L33.2813 23.3008V39.3711L33.2404 39.2973C32.704 38.3187 32.2047 37.3207 31.7435 36.3055C31.3692 35.4839 31.0303 34.6471 30.7274 33.7973C30.4856 33.1204 30.2812 32.4309 30.1154 31.7321C29.9863 31.1767 29.8877 30.6135 29.8472 30.0446C29.8314 29.8018 29.8266 29.5585 29.833 29.3154C29.8367 29.1036 29.8455 28.8922 29.8593 28.6805C29.8806 28.348 29.9149 28.0164 29.9642 27.6868C30.0034 27.4276 30.0519 27.1693 30.1116 26.9143C30.1593 26.7112 30.2144 26.5097 30.2775 26.3116C30.3681 26.0252 30.4772 25.7455 30.6042 25.4728C30.6506 25.3743 30.7003 25.2767 30.7525 25.1807C31.0671 24.6059 31.4941 24.0765 32.053 23.7222C32.4164 23.4894 32.8309 23.3454 33.2621 23.3024ZM35.3756 23.3428L36.4719 23.6514C36.9818 23.8348 37.4672 24.0787 37.9174 24.3777C38.5297 24.785 39.0574 25.3041 39.4719 25.907C39.7153 26.2652 39.9174 26.6491 40.0744 27.0515C40.3023 27.6467 40.4434 28.2707 40.4934 28.905C40.508 29.071 40.516 29.2375 40.5193 29.4043C40.5235 29.5588 40.5222 29.7142 40.5097 29.8686C40.4788 30.2147 40.4128 30.5567 40.3129 30.89C40.2323 31.1627 40.1375 31.4309 40.0288 31.6937C39.8933 32.0206 39.7427 32.3411 39.5776 32.6545C39.2121 33.3503 38.7914 34.0165 38.3414 34.66C37.7835 35.4514 37.1886 36.2169 36.5588 36.954C35.8749 37.7584 35.1617 38.5381 34.4206 39.2916C34.9234 38.3614 35.3929 37.4141 35.8281 36.4513C36.0699 35.915 36.2981 35.3728 36.5124 34.8252C36.7481 34.2239 36.9607 33.614 37.1499 32.9968C37.2903 32.5342 37.414 32.067 37.5163 31.5945C37.6036 31.1895 37.6726 30.78 37.7152 30.368C37.7511 30.0244 37.7641 29.6787 37.7553 29.3339C37.752 29.1229 37.744 28.9121 37.7315 28.7015C37.6801 27.854 37.5498 27.0091 37.2991 26.1962C37.2039 25.888 37.0884 25.5864 36.9532 25.2931C36.6323 24.6039 36.1849 23.9595 35.5787 23.4895L35.3756 23.3428Z" fill="#B6B6B7"/>
</g>
<defs>
<clipPath id="clip0_1387_4724">
<rect width="125.333" height="36.6667" fill="white" transform="translate(13.667 21.6665)"/>
</clipPath>
</defs>
</svg>
