<svg xmlns="http://www.w3.org/2000/svg" width="32" height="32" fill="none"><path fill="#545556" fill-rule="evenodd" d="M15.956 1.333c-8.086 0-14.623 6.722-14.623 15.039 0 6.647 4.188 12.275 9.999 14.266.726.15.992-.323.992-.722 0-.348-.024-1.543-.024-2.788-4.067.896-4.914-1.793-4.914-1.793-.654-1.743-1.623-2.19-1.623-2.19-1.331-.922.097-.922.097-.922 1.477.1 2.252 1.544 2.252 1.544 1.307 2.29 3.413 1.643 4.26 1.244.122-.97.51-1.643.92-2.016-3.243-.349-6.657-1.644-6.657-7.42 0-1.643.58-2.988 1.5-4.033-.144-.374-.653-1.918.146-3.984 0 0 1.235-.399 4.02 1.543a13.79 13.79 0 0 1 3.655-.498c1.235 0 2.493.175 3.656.498 2.784-1.942 4.019-1.543 4.019-1.543.799 2.066.29 3.61.145 3.984.944 1.045 1.5 2.39 1.5 4.033 0 5.776-3.413 7.046-6.681 7.42.533.473.992 1.369.992 2.788 0 2.017-.024 3.635-.024 4.133 0 .399.267.872.993.723 5.81-1.993 9.999-7.62 9.999-14.267.024-8.317-6.537-15.039-14.599-15.039" clip-rule="evenodd"/></svg>