<svg xmlns="http://www.w3.org/2000/svg" width="24" height="24" fill="none"><path fill="#121315" fill-rule="evenodd" d="M11.967 1C5.903 1 1 6.042 1 12.279c0 4.986 3.141 9.206 7.5 10.7.544.112.743-.243.743-.542 0-.261-.017-1.157-.017-2.091C6.175 21.018 5.539 19 5.539 19c-.49-1.307-1.216-1.643-1.216-1.643-.999-.69.072-.69.072-.69 1.108.074 1.69 1.157 1.69 1.157.98 1.718 2.56 1.232 3.195.934.09-.729.381-1.233.69-1.513-2.433-.261-4.993-1.232-4.993-5.565 0-1.232.435-2.24 1.125-3.025-.109-.28-.49-1.438.11-2.988 0 0 .925-.298 3.013 1.158a10.342 10.342 0 0 1 2.742-.373c.926 0 1.87.13 2.742.373 2.088-1.456 3.014-1.158 3.014-1.158.6 1.55.218 2.708.109 2.988.708.784 1.126 1.793 1.126 3.025 0 4.333-2.56 5.285-5.012 5.565.4.355.745 1.027.745 2.092 0 1.512-.018 2.726-.018 3.1 0 .298.2.653.744.54 4.358-1.493 7.5-5.713 7.5-10.7C22.933 6.043 18.013 1 11.966 1" clip-rule="evenodd"/></svg>