<svg width="152" height="80" viewBox="0 0 152 80" fill="none" xmlns="http://www.w3.org/2000/svg">
<path d="M81.0946 16.9813L82.2132 17.0009L85.2521 13.962L85.3988 12.6742C82.9837 10.526 79.8059 9.21875 76.3279 9.21875C70.031 9.21875 64.7158 13.5034 63.1416 19.3075C63.474 19.0757 64.1829 19.2488 64.1829 19.2488L70.2569 18.2495C70.2569 18.2495 70.5698 17.7313 70.7262 17.7636C72.03 16.3372 73.8289 15.4621 75.7558 15.3168C77.6828 15.1714 79.5916 15.7668 81.0946 16.9813Z" fill="#B6B6B7"/>
<path d="M89.533 19.3183C88.8347 16.7494 87.4021 14.44 85.4106 12.6733L81.1065 16.9775C81.9898 17.6875 82.7027 18.5865 83.1925 19.6084C83.6824 20.6303 83.9369 21.7491 83.9371 22.8823V23.6421C86.0315 23.6421 87.7309 25.3463 87.7309 27.4358C87.7309 29.5253 86.0266 31.2296 83.9371 31.2296H76.3476L75.5879 31.9923V36.5468L76.3476 37.3026H83.9371C86.5509 37.2956 89.0556 36.2537 90.9032 34.4048C92.7508 32.556 93.7909 30.0506 93.7961 27.4368C93.7922 24.0772 92.0986 21.1008 89.5232 19.3183H89.533Z" fill="#B6B6B7"/>
<path d="M68.7398 37.3092H76.3274V31.2353H68.7398C68.201 31.2355 67.6684 31.1198 67.1783 30.896L66.0832 31.2314L63.0443 34.2703L62.7783 35.297C64.4881 36.6098 66.5852 37.3182 68.7408 37.3112L68.7398 37.3092Z" fill="#B6B6B7"/>
<path d="M68.7398 17.5708C66.1235 17.5749 63.6155 18.6161 61.7655 20.4661C59.9154 22.3162 58.8743 24.8242 58.8701 27.4405C58.8701 28.964 59.2233 30.4667 59.9019 31.8308C60.5805 33.1948 61.5661 34.3829 62.7812 35.3018L67.1812 30.9018C66.5147 30.602 65.949 30.1159 65.5522 29.5023C65.1553 28.8886 64.9441 28.1733 64.9441 27.4424C64.9441 25.348 66.6483 23.6487 68.7378 23.6487C69.4684 23.6499 70.1832 23.8616 70.7966 24.2583C71.4101 24.6551 71.8964 25.2201 72.1972 25.8858L76.5972 21.4858C74.7923 19.1098 71.943 17.5747 68.7359 17.5747L68.7398 17.5708Z" fill="#B6B6B7"/>
<path d="M29.3991 56.4495C27.3262 56.4495 25.5467 55.7162 24.0467 54.2495C22.5468 52.7829 21.7979 51.019 21.7979 48.9617C21.7979 46.9045 22.5459 45.1406 24.0467 43.6739C25.5476 42.2072 27.3291 41.4729 29.3991 41.4729C30.3487 41.4591 31.2915 41.6344 32.1726 41.9886C33.0538 42.3428 33.8556 42.8689 34.5315 43.536L33.0873 44.9802C32.099 44.0246 30.7727 43.4991 29.3981 43.5184C27.9021 43.5184 26.631 44.0464 25.5887 45.1093C25.0816 45.6128 24.6818 46.2139 24.4135 46.8761C24.1451 47.5384 24.0137 48.2482 24.0272 48.9627C24.0272 50.4743 24.5454 51.7562 25.5887 52.8151C26.079 53.3295 26.6707 53.7365 27.3264 54.0104C27.9822 54.2842 28.6876 54.4189 29.3981 54.406C30.9215 54.406 32.1799 53.9171 33.1821 52.9061C33.7688 52.3194 34.1599 51.4394 34.2968 50.3296H29.402V48.2841H36.2895C36.3628 48.6479 36.3873 49.0663 36.3873 49.5552C36.3873 51.5655 35.7977 53.1593 34.6146 54.3415C33.2731 55.7446 31.5346 56.4437 29.3883 56.4437L29.3991 56.4495ZM45.4053 55.0807C44.4667 55.9998 43.3227 56.4495 41.9714 56.4495C40.6201 56.4495 39.4741 55.99 38.5374 55.0807C37.6007 54.1713 37.1314 53.0146 37.1314 51.6389C37.1314 50.2631 37.6007 49.1162 38.5374 48.1971C39.4741 47.278 40.6201 46.8282 41.9714 46.8282C43.3227 46.8282 44.4686 47.2878 45.4053 48.1971C46.342 49.1064 46.8114 50.2661 46.8114 51.6389C46.8114 53.0117 46.342 54.1615 45.4053 55.0807ZM40.053 53.7313C40.2969 53.9964 40.5938 54.2073 40.9245 54.3503C41.2551 54.4933 41.6121 54.5653 41.9723 54.5615C42.7155 54.5615 43.3549 54.2857 43.8917 53.7303C44.4285 53.175 44.6955 52.4788 44.6955 51.6379C44.6955 50.7872 44.4315 50.0852 43.9005 49.5357C43.3696 48.9862 42.7291 48.7143 41.9723 48.7143C41.6114 48.7088 41.2533 48.779 40.9211 48.9205C40.589 49.062 40.2903 49.2716 40.0442 49.5357C39.5132 50.0832 39.2492 50.7833 39.2492 51.6379C39.2492 52.4768 39.5162 53.1759 40.053 53.7303V53.7313ZM55.9643 55.0807C55.0257 55.9998 53.8817 56.4495 52.5304 56.4495C51.1791 56.4495 50.0331 55.99 49.0964 55.0807C48.1597 54.1713 47.6904 53.0146 47.6904 51.6389C47.6904 50.2631 48.1597 49.1162 49.0964 48.1971C50.0331 47.278 51.1791 46.8282 52.5304 46.8282C53.8817 46.8282 55.0276 47.2878 55.9643 48.1971C56.9011 49.1064 57.3704 50.2661 57.3704 51.6389C57.3704 53.0117 56.9011 54.1615 55.9643 55.0807ZM50.612 53.7313C50.8559 53.9964 51.1528 54.2073 51.4835 54.3503C51.8141 54.4933 52.1711 54.5653 52.5314 54.5615C53.2745 54.5615 53.9139 54.2857 54.4507 53.7303C54.9875 53.175 55.2545 52.4788 55.2545 51.6379C55.2545 50.7872 54.9905 50.0852 54.4595 49.5357C53.9286 48.9862 53.2882 48.7143 52.5314 48.7143C52.1704 48.7088 51.8123 48.779 51.4802 48.9205C51.148 49.062 50.8493 49.2716 50.6032 49.5357C50.0723 50.0832 49.8083 50.7833 49.8083 51.6379C49.8083 52.4768 50.0752 53.1759 50.612 53.7303V53.7313ZM62.9056 60.7909C61.8349 60.7909 60.9334 60.5034 60.203 59.9304C59.4726 59.3575 58.9495 58.6945 58.6327 57.9377L60.4787 57.1721C60.6723 57.6356 60.9676 58.0375 61.391 58.3787C61.8144 58.7199 62.3101 58.8891 62.9085 58.8891C63.7122 58.8891 64.3439 58.6447 64.7986 58.1587C65.2532 57.6727 65.483 56.9697 65.483 56.0565V55.372H65.4097C64.823 56.1024 63.9655 56.4691 62.8714 56.4691C61.6413 56.4691 60.5638 55.9998 59.6378 55.0631C59.1881 54.6203 58.833 54.0907 58.5943 53.5064C58.3557 52.9221 58.2383 52.2954 58.2494 51.6643C58.2381 51.0293 58.3553 50.3985 58.5939 49.8099C58.8325 49.2214 59.1876 48.6871 59.6378 48.2391C60.5618 47.2975 61.6423 46.8243 62.8714 46.8243C63.4189 46.8243 63.9156 46.927 64.3595 47.1352C64.8035 47.3435 65.1545 47.5987 65.4097 47.9008H65.483V47.1245H67.4933V55.7847C67.4933 57.4664 67.0651 58.7219 66.2046 59.5589C65.3442 60.39 64.2471 60.8104 62.9066 60.8104L62.9056 60.7909ZM63.0523 54.5605C63.4008 54.5666 63.7464 54.4954 64.0641 54.3518C64.3818 54.2083 64.6637 53.996 64.8895 53.7303C65.3823 53.1759 65.6287 52.4856 65.6287 51.6555C65.6287 50.8166 65.3823 50.1145 64.8895 49.5533C64.665 49.2855 64.3836 49.0712 64.0658 48.926C63.7479 48.7809 63.4016 48.7086 63.0523 48.7143C62.3091 48.7143 61.6755 48.9959 61.1534 49.5533C60.6313 50.1106 60.3673 50.8127 60.3673 51.6555C60.3673 52.4827 60.6283 53.1759 61.1534 53.7303C61.6785 54.2847 62.3101 54.5605 63.0523 54.5605ZM71.072 41.9814V56.1591H68.9531V41.9814H71.072ZM76.88 56.4486C75.515 56.4486 74.3769 55.9851 73.4636 55.0601C72.5504 54.1351 72.0928 52.9911 72.0928 51.6262C72.0928 50.2143 72.5328 49.0546 73.4167 48.1551C73.8314 47.7187 74.3321 47.3731 74.8871 47.1402C75.4422 46.9073 76.0395 46.792 76.6414 46.8018C77.2251 46.8018 77.7688 46.9074 78.2674 47.1215C78.7311 47.3115 79.153 47.5906 79.5092 47.9429C79.8063 48.2386 80.07 48.5662 80.2954 48.9197C80.4816 49.2218 80.6407 49.5398 80.7706 49.8701L80.9906 50.4176L74.5431 53.0889C75.032 54.0628 75.8142 54.5507 76.8819 54.5507C77.8558 54.5507 78.6488 54.1078 79.256 53.218L80.8987 54.3151C80.532 54.8626 80.0157 55.3564 79.3459 55.7944C78.6762 56.2325 77.8519 56.4495 76.878 56.4495L76.88 56.4486ZM74.195 51.4815L78.4972 49.6921C78.374 49.3871 78.1511 49.1407 77.8128 48.9529C77.4726 48.7624 77.088 48.6652 76.6981 48.6713C76.0763 48.6713 75.4954 48.9255 74.9547 49.4369C74.414 49.9483 74.153 50.6318 74.1774 51.4824L74.195 51.4815ZM92.1177 56.4486C90.1915 56.4486 88.5781 55.7974 87.2757 54.493C85.9733 53.1887 85.3202 51.5646 85.3202 49.6159C85.3202 47.6671 85.9714 46.0411 87.2757 44.7387C88.5801 43.4363 90.1924 42.7831 92.1177 42.7831C94.0899 42.7831 95.6924 43.4969 96.9215 44.9196L95.7531 46.0538C94.8731 44.945 93.6508 44.3916 92.1157 44.3916C90.6882 44.3916 89.4894 44.8727 88.4979 45.8358C87.5065 46.7989 87.0274 48.0573 87.0274 49.6159C87.0274 51.1744 87.5163 52.4358 88.4979 53.3999C89.4796 54.3639 90.6813 54.844 92.1157 54.844C93.686 54.844 95.0266 54.2104 96.1246 52.9452L97.2931 54.1136C96.6808 54.8442 95.9122 55.428 95.0442 55.8218C94.1234 56.2453 93.1203 56.4597 92.1069 56.4495L92.1177 56.4486ZM100.484 56.1591H98.8018V43.0794H100.484V56.1591ZM103.224 48.2783C104.09 47.3719 105.18 46.9162 106.531 46.9162C107.882 46.9162 108.973 47.3709 109.838 48.2783C110.703 49.1856 111.135 50.3316 111.135 51.6858C111.135 53.04 110.705 54.186 109.838 55.0934C108.971 56.0007 107.882 56.4554 106.531 56.4554C105.18 56.4554 104.09 56.0007 103.224 55.0934C102.359 54.186 101.927 53.04 101.927 51.6858C101.927 50.3316 102.357 49.1856 103.224 48.2783ZM104.476 54.0305C105.062 54.6201 105.741 54.9164 106.529 54.9164C107.317 54.9164 107.996 54.6201 108.582 54.0305C109.169 53.4409 109.451 52.6567 109.451 51.6839C109.451 50.711 109.16 49.9258 108.582 49.3372C108.005 48.7486 107.317 48.4513 106.529 48.4513C105.741 48.4513 105.062 48.7476 104.476 49.3372C103.889 49.9268 103.608 50.711 103.608 51.6839C103.608 52.6567 103.898 53.4419 104.476 54.0305ZM120.433 56.1591H118.825V54.9174H118.751C118.497 55.3427 118.106 55.7064 117.583 55.9929C117.06 56.2794 116.507 56.4427 115.921 56.4427C114.799 56.4427 113.951 56.1024 113.374 55.419C112.796 54.7355 112.505 53.8223 112.505 52.6783V47.1968H114.187V52.4025C114.187 54.0726 114.923 54.9056 116.397 54.9056C116.727 54.9126 117.053 54.84 117.349 54.694C117.645 54.5479 117.901 54.3328 118.096 54.0667C118.531 53.5155 118.763 52.8316 118.753 52.1297V47.1968H120.435V56.1503L120.433 56.1591ZM126.132 56.4495C124.975 56.4495 123.975 55.9919 123.136 55.0787C122.297 54.1655 121.876 53.0332 121.876 51.6799C121.876 50.3267 122.297 49.1944 123.136 48.2812C123.975 47.3679 124.976 46.9103 126.132 46.9103C126.812 46.9103 127.426 47.057 127.97 47.3474C128.513 47.6378 128.918 48.0045 129.185 48.4445H129.259L129.185 47.2027V43.0765H130.867V56.1591H129.259V54.9174H129.185C128.918 55.3544 128.513 55.7211 127.97 56.0144C127.427 56.3019 126.813 56.4495 126.132 56.4495ZM126.405 54.9144C126.785 54.9196 127.161 54.8441 127.509 54.6929C127.857 54.5417 128.169 54.3182 128.425 54.0374C128.979 53.4536 129.256 52.6665 129.256 51.6907C129.256 50.7149 128.98 49.918 128.425 49.344C128.169 49.0632 127.857 48.8397 127.509 48.6885C127.161 48.5373 126.785 48.4618 126.405 48.467C125.625 48.467 124.955 48.7632 124.395 49.3528C123.835 49.9424 123.556 50.7266 123.556 51.6995C123.556 52.6724 123.835 53.4575 124.395 54.0462C124.648 54.328 124.958 54.5528 125.305 54.7055C125.652 54.8582 126.027 54.9355 126.405 54.932V54.9144Z" fill="#B6B6B7"/>
</svg>
