<svg xmlns="http://www.w3.org/2000/svg" width="24" height="24" fill="none"><mask id="a" width="18" height="18" x="3" y="3" maskUnits="userSpaceOnUse" style="mask-type:luminance"><path fill="#fff" d="M21 3H3v18h18z"/></mask><g mask="url(#a)"><path fill="#B6B6B7" d="M8.178 19V9.554H5.177V19zm-1.5-10.736c1.046 0 1.698-.725 1.698-1.632C8.356 5.705 7.724 5 6.698 5 5.671 5 5 5.705 5 6.632c0 .907.651 1.632 1.658 1.632zM9.84 19h3.001v-5.275c0-.282.02-.564.099-.766.217-.564.71-1.148 1.54-1.148 1.086 0 1.52.866 1.52 2.136V19H19v-5.416c0-2.902-1.48-4.252-3.455-4.252-1.619 0-2.33.947-2.725 1.591h.02v-1.37h-3c.039.887 0 9.447 0 9.447"/></g></svg>