<svg xmlns="http://www.w3.org/2000/svg" width="38" height="24" fill="none"><path fill="#fff" fill-rule="evenodd" d="M28.4 1.6H9.6c-2.308 0-3.878.003-5.054.161-1.13.152-1.653.42-2.009.776-.356.356-.624.88-.776 2.01C1.603 5.721 1.6 7.291 1.6 9.6v4.8c0 2.308.003 3.878.161 5.054.152 1.13.42 1.653.776 2.009.356.356.88.624 2.01.775 1.175.159 2.745.162 5.053.162h18.8c2.307 0 3.877-.003 5.053-.162 1.13-.151 1.653-.42 2.009-.775.356-.356.624-.88.776-2.01.158-1.175.161-2.745.161-5.053V9.6c0-2.308-.003-3.878-.161-5.054-.152-1.13-.42-1.653-.776-2.009-.356-.356-.88-.624-2.009-.776-1.176-.158-2.746-.161-5.054-.161M1.405 1.406C0 2.812 0 5.075 0 9.6v4.8c0 4.525 0 6.788 1.406 8.194C2.812 24 5.074 24 9.6 24h18.8c4.525 0 6.788 0 8.193-1.406C38 21.188 38 18.925 38 14.4V9.6c0-4.525 0-6.788-1.406-8.194C35.187 0 32.925 0 28.4 0H9.6C5.075 0 2.813 0 1.407 1.406" clip-rule="evenodd"/><path fill="#fff" fill-rule="evenodd" d="M9.723 6.324a.957.957 0 0 1 1.353 0l5 5a.957.957 0 0 1 0 1.353l-5 5a.957.957 0 0 1-1.353-1.354L14.047 12 9.723 7.676a.957.957 0 0 1 0-1.352" clip-rule="evenodd"/><path fill="#fff" d="M18.849 17.029c0-.53.43-.96.96-.96h8.217a.966.966 0 0 1 0 1.931h-4.105l-4.114-.011a.96.96 0 0 1-.958-.96"/></svg>