<svg xmlns="http://www.w3.org/2000/svg" width="150" height="40" fill="none"><path fill="#121315" fill-rule="evenodd" d="M47.333 2.667H16c-3.847 0-6.463.005-8.423.269-1.883.253-2.755.7-3.348 1.293-.594.593-1.04 1.465-1.293 3.348-.264 1.96-.27 4.576-.27 8.423v8c0 3.847.006 6.463.27 8.423.253 1.883.7 2.755 1.293 3.348.593.594 1.465 1.04 3.348 1.293 1.96.264 4.576.27 8.423.27h31.333c3.847 0 6.464-.006 8.423-.27 1.883-.253 2.755-.7 3.349-1.293.593-.593 1.04-1.465 1.293-3.348.263-1.96.269-4.576.269-8.423v-8c0-3.847-.006-6.463-.27-8.423-.253-1.883-.699-2.755-1.292-3.348-.594-.594-1.466-1.04-3.349-1.293-1.96-.264-4.576-.27-8.423-.27m-44.99-.324C0 4.686 0 8.458 0 16v8c0 7.543 0 11.314 2.343 13.657S8.458 40 16 40h31.333c7.543 0 11.314 0 13.657-2.343S63.333 31.543 63.333 24v-8c0-7.542 0-11.314-2.343-13.657S54.876 0 47.333 0H16C8.458 0 4.686 0 2.343 2.343" clip-rule="evenodd"/><path fill="#121315" fill-rule="evenodd" d="M16.206 10.54a1.594 1.594 0 0 1 2.255 0l8.333 8.333a1.595 1.595 0 0 1 0 2.255l-8.333 8.333a1.594 1.594 0 1 1-2.255-2.255L23.412 20l-7.206-7.206a1.594 1.594 0 0 1 0-2.255" clip-rule="evenodd"/><path fill="#121315" d="M31.415 28.38a1.6 1.6 0 0 1 1.6-1.6h13.697a1.61 1.61 0 0 1 0 3.22h-6.844l-6.856-.019a1.6 1.6 0 0 1-1.597-1.6M75.219 29.8c-.915 0-1.661-.28-2.24-.84-.56-.579-.84-1.344-.84-2.296v-7.84h-3.472v-2.912h3.472V11.6h3.528v4.312h3.808v2.912h-3.808v7.224c0 .56.261.84.784.84h2.688V29.8zm10.641.392c-.989 0-1.876-.168-2.66-.504-.784-.355-1.409-.859-1.876-1.512-.448-.672-.671-1.484-.671-2.436s.223-1.745.671-2.38c.467-.653 1.102-1.139 1.904-1.456.822-.336 1.755-.504 2.8-.504h3.808v-.784c0-.653-.205-1.185-.615-1.596-.411-.43-1.065-.644-1.96-.644-.878 0-1.531.205-1.96.616-.43.392-.71.905-.84 1.54l-3.248-1.092a5.61 5.61 0 0 1 1.064-1.932c.504-.597 1.166-1.073 1.987-1.428.84-.373 1.858-.56 3.053-.56 1.829 0 3.276.457 4.34 1.372s1.596 2.24 1.596 3.976v5.18c0 .56.26.84.784.84h1.12V29.8h-2.352c-.691 0-1.26-.168-1.709-.504a1.597 1.597 0 0 1-.672-1.344v-.028h-.532c-.074.224-.242.523-.504.896-.26.355-.672.672-1.232.952-.56.28-1.325.42-2.296.42m.617-2.856c.989 0 1.791-.27 2.407-.812.635-.56.953-1.297.953-2.212v-.28H86.28c-.654 0-1.167.14-1.54.42-.374.28-.56.672-.56 1.176 0 .504.195.915.588 1.232.391.317.96.476 1.707.476M96.616 29.8V15.912h3.528V29.8zm1.764-15.512c-.635 0-1.176-.205-1.624-.616-.43-.41-.644-.952-.644-1.624 0-.672.215-1.213.644-1.624.448-.41.99-.616 1.624-.616.653 0 1.195.205 1.624.616.429.41.644.952.644 1.624 0 .672-.215 1.213-.644 1.624-.43.41-.97.616-1.624.616m4.554 15.512V10.2h3.527v19.6zm12.841.392c-1.344 0-2.567-.28-3.668-.84a6.343 6.343 0 0 1-2.576-2.436c-.635-1.064-.952-2.352-.952-3.864v-.392c0-1.512.317-2.8.952-3.864a6.343 6.343 0 0 1 2.576-2.436c1.101-.56 2.324-.84 3.668-.84 1.325 0 2.464.233 3.416.7.952.467 1.717 1.11 2.296 1.932a6.474 6.474 0 0 1 1.176 2.744l-3.416.728a4.034 4.034 0 0 0-.504-1.512 2.8 2.8 0 0 0-1.12-1.064c-.467-.261-1.055-.392-1.764-.392-.709 0-1.353.159-1.932.476-.56.299-1.008.756-1.344 1.372-.317.597-.476 1.335-.476 2.212v.28c0 .877.159 1.624.476 2.24a3.52 3.52 0 0 0 1.344 1.372 4.15 4.15 0 0 0 1.932.448c1.064 0 1.867-.27 2.408-.812.56-.56.915-1.288 1.064-2.184l3.416.812a7.7 7.7 0 0 1-1.26 2.716c-.579.803-1.344 1.437-2.296 1.904-.952.467-2.091.7-3.416.7m13.074 0c-.989 0-1.876-.168-2.66-.504-.784-.355-1.409-.859-1.876-1.512-.448-.672-.672-1.484-.672-2.436s.224-1.745.672-2.38c.467-.653 1.102-1.139 1.904-1.456.822-.336 1.755-.504 2.8-.504h3.808v-.784c0-.653-.205-1.185-.616-1.596-.41-.43-1.064-.644-1.96-.644-.877 0-1.53.205-1.96.616-.429.392-.709.905-.84 1.54l-3.248-1.092a5.615 5.615 0 0 1 1.064-1.932c.504-.597 1.167-1.073 1.988-1.428.84-.373 1.858-.56 3.052-.56 1.83 0 3.276.457 4.34 1.372s1.596 2.24 1.596 3.976v5.18c0 .56.262.84.784.84h1.12V29.8h-2.352c-.69 0-1.26-.168-1.708-.504a1.597 1.597 0 0 1-.672-1.344v-.028h-.532c-.074.224-.242.523-.504.896-.261.355-.672.672-1.232.952-.56.28-1.325.42-2.296.42m.616-2.856c.99 0 1.792-.27 2.408-.812.635-.56.952-1.297.952-2.212v-.28h-3.556c-.653 0-1.166.14-1.54.42-.373.28-.56.672-.56 1.176 0 .504.196.915.588 1.232.392.317.962.476 1.708.476m10.14 2.464V10.2h3.528v19.6zm6.317 0V10.2h3.528v19.6z"/></svg>