<svg xmlns="http://www.w3.org/2000/svg" width="120" height="32" fill="none"><path fill="#fff" fill-rule="evenodd" d="M37.865 2.133H12.798c-3.077 0-5.17.005-6.738.216-1.506.202-2.204.56-2.679 1.034-.475.475-.832 1.172-1.034 2.679-.211 1.567-.216 3.66-.216 6.738v6.4c0 3.077.005 5.17.216 6.738.202 1.507.56 2.204 1.034 2.679.475.475 1.173.832 2.679 1.034 1.567.211 3.66.216 6.738.216h25.067c3.077 0 5.17-.005 6.738-.216 1.506-.202 2.204-.56 2.679-1.034.475-.475.832-1.172 1.034-2.679.21-1.567.215-3.66.215-6.738v-6.4c0-3.077-.004-5.17-.215-6.738-.203-1.507-.56-2.204-1.034-2.679-.475-.475-1.173-.832-2.679-1.034-1.568-.211-3.661-.216-6.738-.216M1.873 1.875C-.002 3.749-.002 6.766-.002 12.8v6.4c0 6.034 0 9.051 1.875 10.926C3.747 32 6.764 32 12.798 32h25.067c6.034 0 9.05 0 10.925-1.875 1.875-1.874 1.875-4.891 1.875-10.925v-6.4c0-6.034 0-9.051-1.875-10.925C46.916 0 43.9 0 37.865 0H12.798C6.764 0 3.748 0 1.873 1.875" clip-rule="evenodd"/><path fill="#fff" fill-rule="evenodd" d="M12.963 8.431a1.276 1.276 0 0 1 1.804 0l6.666 6.667a1.276 1.276 0 0 1 0 1.804l-6.666 6.667a1.276 1.276 0 1 1-1.804-1.804L18.727 16l-5.764-5.765a1.276 1.276 0 0 1 0-1.804" clip-rule="evenodd"/><path fill="#fff" d="M25.13 22.705c0-.707.574-1.28 1.28-1.28h10.957a1.288 1.288 0 1 1 0 2.575h-5.474l-5.486-.015a1.28 1.28 0 0 1-1.277-1.28m35.043 1.135c-.732 0-1.329-.224-1.792-.672-.448-.463-.672-1.075-.672-1.837V15.06h-2.777v-2.33h2.777V9.28h2.823v3.45h3.046v2.33h-3.046v5.778c0 .448.209.672.627.672h2.15v2.33zm8.514.314c-.792 0-1.501-.135-2.129-.404a3.65 3.65 0 0 1-1.5-1.21c-.359-.537-.538-1.186-.538-1.948s.18-1.396.538-1.904c.373-.523.88-.91 1.523-1.165.657-.269 1.404-.403 2.24-.403h3.046v-.627c0-.523-.164-.948-.493-1.277-.328-.343-.85-.515-1.567-.515-.702 0-1.225.164-1.569.493-.343.313-.567.724-.671 1.232l-2.599-.874c.18-.567.463-1.083.851-1.546.403-.477.934-.858 1.59-1.142.673-.299 1.486-.448 2.442-.448 1.464 0 2.621.366 3.472 1.098.852.731 1.277 1.792 1.277 3.18v4.144c0 .448.21.672.627.672h.896v2.33h-1.881c-.553 0-1.008-.134-1.367-.403a1.277 1.277 0 0 1-.537-1.075v-.023h-.426c-.06.18-.194.418-.403.717-.21.284-.538.538-.986.762-.448.224-1.06.336-1.837.336m.492-2.285c.792 0 1.434-.217 1.927-.65.507-.448.761-1.038.761-1.77v-.223h-2.845c-.522 0-.933.112-1.232.336-.298.224-.448.537-.448.94 0 .404.157.732.47.986.314.254.77.38 1.367.38m8.112 1.972V12.73h2.823v11.11zm1.412-12.41a1.86 1.86 0 0 1-1.3-.492c-.343-.329-.514-.762-.514-1.3 0-.537.171-.97.515-1.299a1.854 1.854 0 0 1 1.3-.493c.522 0 .955.165 1.298.493.344.329.515.762.515 1.3 0 .537-.171.97-.515 1.299-.343.328-.776.492-1.299.492m3.643 12.41V8.16h2.822v15.68zm10.273.314c-1.075 0-2.053-.224-2.934-.672a5.075 5.075 0 0 1-2.061-1.95c-.508-.85-.762-1.88-.762-3.09v-.314c0-1.21.254-2.24.762-3.091a5.075 5.075 0 0 1 2.06-1.949c.882-.448 1.86-.672 2.935-.672 1.06 0 1.971.187 2.733.56a4.769 4.769 0 0 1 1.837 1.546c.477.642.791 1.374.94 2.195l-2.732.582a3.217 3.217 0 0 0-.404-1.21 2.24 2.24 0 0 0-.896-.85c-.373-.21-.843-.314-1.41-.314a3.17 3.17 0 0 0-1.546.38c-.448.24-.807.605-1.076 1.098-.253.478-.38 1.068-.38 1.77v.224c0 .702.127 1.299.38 1.792.27.478.628.844 1.076 1.097.463.24.978.359 1.545.359.851 0 1.494-.217 1.927-.65.448-.448.731-1.03.85-1.747l2.734.65a6.148 6.148 0 0 1-1.008 2.172 4.846 4.846 0 0 1-1.837 1.524c-.762.373-1.673.56-2.733.56m10.459 0c-.791 0-1.5-.135-2.128-.404a3.65 3.65 0 0 1-1.5-1.21c-.359-.537-.538-1.186-.538-1.948s.18-1.396.538-1.904c.373-.523.881-.91 1.523-1.165.657-.269 1.404-.403 2.24-.403h3.046v-.627c0-.523-.164-.948-.493-1.277-.328-.343-.851-.515-1.568-.515-.701 0-1.224.164-1.568.493-.343.313-.567.724-.672 1.232l-2.598-.874c.18-.567.463-1.083.851-1.546.403-.477.934-.858 1.591-1.142.672-.299 1.486-.448 2.441-.448 1.464 0 2.621.366 3.472 1.098.851.731 1.277 1.792 1.277 3.18v4.144c0 .448.209.672.627.672h.896v2.33h-1.881c-.553 0-1.008-.134-1.367-.403a1.278 1.278 0 0 1-.537-1.075v-.023h-.426c-.06.18-.194.418-.403.717-.209.284-.538.538-.986.762-.448.224-1.06.336-1.837.336m.493-2.285c.792 0 1.434-.217 1.927-.65.507-.448.761-1.038.761-1.77v-.223h-2.845c-.522 0-.933.112-1.232.336-.298.224-.448.537-.448.94 0 .404.157.732.471.986.313.254.769.38 1.366.38m8.112 1.972V8.16h2.822v15.68zm5.054 0V8.16h2.822v15.68z"/></svg>