<svg width="22" height="18" viewBox="0 0 22 18" fill="none" xmlns="http://www.w3.org/2000/svg">
<path d="M7.10429 17.9064C15.0292 17.9064 19.363 11.3385 19.363 5.6431C19.363 5.45658 19.3593 5.27091 19.3509 5.08601C20.1941 4.47561 20.9219 3.71983 21.5 2.85412C20.728 3.19746 19.8972 3.42855 19.0257 3.53273C19.9153 2.99916 20.5982 2.15502 20.9204 1.14881C20.0747 1.65071 19.1494 2.00453 18.1846 2.19501C17.3983 1.35723 16.2789 0.833252 15.0396 0.833252C12.6603 0.833252 10.7309 2.76346 10.7309 5.14273C10.7309 5.481 10.7686 5.80991 10.8426 6.12551C7.2617 5.94526 4.08644 4.23018 1.96138 1.62229C1.57863 2.28005 1.37732 3.0276 1.37799 3.78862C1.37799 5.28397 2.13859 6.60403 3.29531 7.37639C2.61109 7.35539 1.94191 7.17059 1.34401 6.83727C1.34337 6.85535 1.34337 6.87297 1.34337 6.89233C1.34337 8.97962 2.82848 10.7224 4.79992 11.1173C4.42966 11.2182 4.04759 11.2692 3.66383 11.269C3.38668 11.269 3.11659 11.2417 2.85409 11.1913C3.40261 12.9038 4.99315 14.1501 6.87893 14.1848C5.40427 15.3411 3.54667 16.0298 1.52772 16.0298C1.18427 16.03 0.841098 16.0102 0.5 15.9701C2.40681 17.1927 4.67076 17.9064 7.10429 17.9064Z" fill="#B6B6B7"/>
</svg>
