<svg width="24" height="24" viewBox="0 0 24 24" fill="none" xmlns="http://www.w3.org/2000/svg">
<path d="M8.66082 19.6341C15.4536 19.6341 19.1683 14.0045 19.1683 9.12273C19.1683 8.96285 19.1651 8.80371 19.1579 8.64522C19.8807 8.12202 20.5045 7.47421 21 6.73217C20.3383 7.02646 19.6262 7.22454 18.8792 7.31384C19.6417 6.85649 20.227 6.13294 20.5032 5.27048C19.7783 5.70068 18.9852 6.00395 18.1582 6.16722C17.4843 5.44912 16.5248 5 15.4625 5C13.4231 5 11.7693 6.65446 11.7693 8.69384C11.7693 8.98378 11.8017 9.26571 11.8651 9.53622C8.79574 9.38172 6.07409 7.91165 4.25261 5.67632C3.92454 6.24011 3.75199 6.88087 3.75256 7.53317C3.75256 8.8149 4.40451 9.94638 5.39598 10.6084C4.80951 10.5904 4.23592 10.432 3.72344 10.1463C3.72289 10.1618 3.72289 10.1769 3.72289 10.1935C3.72289 11.9826 4.99584 13.4764 6.68565 13.8149C6.36828 13.9014 6.04079 13.9451 5.71185 13.9449C5.4743 13.9449 5.24279 13.9215 5.01779 13.8783C5.48795 15.3462 6.85127 16.4144 8.46765 16.4442C7.20366 17.4353 5.61143 18.0256 3.8809 18.0256C3.58652 18.0258 3.29237 18.0088 3 17.9744C4.63441 19.0224 6.57494 19.6341 8.66082 19.6341Z" fill="#B6B6B7"/>
</svg>
