<svg width="152" height="80" viewBox="0 0 152 80" fill="none" xmlns="http://www.w3.org/2000/svg">
<path d="M68.8359 33.3419C64.5808 33.3419 61.5126 36.2531 61.5126 40.6198C61.5126 44.9864 64.9624 47.8976 69.2215 47.8976C71.792 47.8976 74.0585 46.8302 75.4613 45.0309L72.5128 43.2438C71.7343 44.1374 70.5511 44.6589 69.2215 44.6589C67.3751 44.6589 65.8066 43.6481 65.2243 42.0309H76.0242C76.1089 41.578 76.1591 41.109 76.1591 40.6158C76.1591 36.2531 73.095 33.3419 68.8359 33.3419ZM65.1935 39.2047C65.6753 37.5914 66.9935 36.5765 68.8359 36.5765C70.6821 36.5765 72.0002 37.5914 72.4783 39.2047H65.1935ZM64.3226 28.8943L53.6423 48.3019L42.9584 28.8943H46.9629L53.6387 41.0241L60.3141 28.8943H64.3226ZM30.9476 26.6694L45.1892 52.5462H16.7061L30.9476 26.6694ZM91.6532 40.6198C91.6532 43.0457 93.1641 44.6631 95.5075 44.6631C97.0956 44.6631 98.2865 43.9069 98.8993 42.6737L101.859 44.4649C100.634 46.6078 98.3366 47.8976 95.5075 47.8976C91.2484 47.8976 88.1844 44.9864 88.1844 40.6198C88.1844 36.2531 91.2524 33.3419 95.5075 33.3419C98.3366 33.3419 100.63 34.6317 101.859 36.7746L98.8993 38.5658C98.2865 37.3327 97.0956 36.5765 95.5075 36.5765C93.1681 36.5765 91.6532 38.1939 91.6532 40.6198ZM123.443 28.8943V47.4933H119.974V28.8943H123.443ZM110.339 33.3419C106.084 33.3419 103.016 36.2531 103.016 40.6198C103.016 44.9864 106.469 47.8976 110.725 47.8976C113.295 47.8976 115.562 46.8302 116.964 45.0309L114.015 43.2438C113.237 44.1374 112.054 44.6589 110.725 44.6589C108.878 44.6589 107.309 43.6481 106.727 42.0309H117.527C117.611 41.578 117.662 41.109 117.662 40.6158C117.662 36.2531 114.597 33.3419 110.339 33.3419ZM106.696 39.2047C107.179 37.5914 108.492 36.5765 110.339 36.5765C112.185 36.5765 113.503 37.5914 113.982 39.2047H106.696ZM87.0281 33.7463V37.6642C86.6428 37.5469 86.2341 37.4661 85.7947 37.4661C83.5554 37.4661 81.9404 39.0833 81.9404 41.5093V47.4933H78.4718V33.7463H81.9404V37.4661C81.9404 35.412 84.2182 33.7463 87.0281 33.7463Z" fill="#B6B6B7"/>
</svg>
