<svg xmlns="http://www.w3.org/2000/svg" width="32" height="32" fill="none"><path stroke="#121315" stroke-linecap="round" stroke-linejoin="round" stroke-width="2.667" d="M14 2.67c-.9.013-1.441.065-1.878.287-.502.256-.91.664-1.165 1.166-.223.437-.275.977-.287 1.877M26 2.67c.9.013 1.44.065 1.877.287.501.256.91.664 1.165 1.166.223.437.275.977.287 1.877m0 12c-.012.9-.064 1.44-.287 1.877-.256.502-.664.91-1.165 1.166-.437.222-.978.274-1.878.287m3.334-10.663v2.666M18.666 2.667h2.667m-14.4 26.666h10.133c1.494 0 2.24 0 2.81-.29.502-.256.91-.664 1.166-1.166.29-.57.29-1.317.29-2.81V14.933c0-1.493 0-2.24-.29-2.81a2.667 2.667 0 0 0-1.165-1.166c-.57-.29-1.317-.29-2.811-.29H6.933c-1.494 0-2.24 0-2.811.29-.502.256-.91.664-1.165 1.166-.291.57-.291 1.317-.291 2.81v10.134c0 1.493 0 2.24.29 2.81.256.502.664.91 1.166 1.166.57.29 1.317.29 2.81.29"/></svg>