<svg width="740" height="190" viewBox="0 0 740 190" fill="none" xmlns="http://www.w3.org/2000/svg">
    <g>
        <path d="M51.3361 186.568C42.7321 186.568 35.7084 183.934 30.265 178.666C24.9972 173.223 22.3634 166.023 22.3634 157.068V83.3195H-10.2968V55.9271H22.3634V15.3653H55.5503V55.9271H91.3712V83.3195H55.5503V151.274C55.5503 156.541 58.0086 159.175 62.9252 159.175H88.2105V186.568H51.3361Z" fill="#CECECF"/>
        <path d="M151.438 190.255C142.132 190.255 133.791 188.675 126.416 185.514C119.041 182.178 113.159 177.437 108.769 171.291C104.555 164.97 102.448 157.332 102.448 148.376C102.448 139.421 104.555 131.959 108.769 125.988C113.159 119.843 119.129 115.277 126.68 112.292C134.406 109.132 143.185 107.551 153.019 107.551H188.839V100.176C188.839 94.0306 186.908 89.0262 183.045 85.1632C179.182 81.1246 173.036 79.1053 164.608 79.1053C156.355 79.1053 150.209 81.0368 146.17 84.8998C142.132 88.5872 139.498 93.416 138.269 99.3862L107.716 89.114C109.823 82.4415 113.159 76.3836 117.724 70.9402C122.465 65.3213 128.699 60.8437 136.425 57.5074C144.327 53.9956 153.896 52.2396 165.134 52.2396C182.342 52.2396 195.951 56.5416 205.96 65.1457C215.968 73.7497 220.973 86.2168 220.973 102.547V151.274C220.973 156.541 223.431 159.175 228.348 159.175H238.883V186.568H216.759C210.262 186.568 204.906 184.987 200.692 181.827C196.478 178.666 194.371 174.452 194.371 169.184V168.921H189.366C188.664 171.028 187.083 173.837 184.625 177.349C182.167 180.685 178.304 183.67 173.036 186.304C167.768 188.938 160.569 190.255 151.438 190.255ZM157.233 163.39C166.539 163.39 174.09 160.843 179.884 155.751C185.854 150.484 188.839 143.548 188.839 134.944V132.31H155.389C149.243 132.31 144.415 133.627 140.903 136.261C137.391 138.894 135.635 142.582 135.635 147.323C135.635 152.064 137.479 155.927 141.166 158.912C144.853 161.897 150.209 163.39 157.233 163.39Z" fill="#CECECF"/>
        <path d="M252.612 186.568V55.9271H285.799V186.568H252.612ZM269.206 40.6506C263.236 40.6506 258.144 38.719 253.929 34.856C249.891 30.993 247.871 25.9008 247.871 19.5795C247.871 13.2582 249.891 8.16597 253.929 4.30294C258.144 0.439909 263.236 -1.49161 269.206 -1.49161C275.352 -1.49161 280.444 0.439909 284.482 4.30294C288.521 8.16597 290.54 13.2582 290.54 19.5795C290.54 25.9008 288.521 30.993 284.482 34.856C280.444 38.719 275.352 40.6506 269.206 40.6506Z" fill="#CECECF"/>
        <path d="M312.039 186.568V2.19583H345.226V186.568H312.039Z" fill="#CECECF"/>
        <path d="M432.836 190.255C420.193 190.255 408.692 187.621 398.332 182.354C388.148 177.086 380.071 169.448 374.1 159.439C368.13 149.43 365.145 137.314 365.145 123.091V119.404C365.145 105.181 368.13 93.0648 374.1 83.0561C380.071 73.0473 388.148 65.4091 398.332 60.1413C408.692 54.8735 420.193 52.2396 432.836 52.2396C445.303 52.2396 456.014 54.4345 464.97 58.8244C473.925 63.2142 481.124 69.2721 486.567 76.9982C492.186 84.5486 495.874 93.1526 497.63 102.81L465.496 109.658C464.794 104.391 463.214 99.6496 460.755 95.4353C458.297 91.2211 454.785 87.8849 450.22 85.4266C445.83 82.9683 440.299 81.7391 433.626 81.7391C426.954 81.7391 420.896 83.2317 415.452 86.2168C410.185 89.0262 405.97 93.3282 402.81 99.1228C399.825 104.742 398.332 111.678 398.332 119.93V122.564C398.332 130.817 399.825 137.841 402.81 143.635C405.97 149.254 410.185 153.556 415.452 156.541C420.896 159.351 426.954 160.756 433.626 160.756C443.635 160.756 451.185 158.21 456.278 153.117C461.545 147.85 464.882 141.002 466.286 132.573L498.42 140.211C496.137 149.518 492.186 158.034 486.567 165.76C481.124 173.311 473.925 179.281 464.97 183.67C456.014 188.06 445.303 190.255 432.836 190.255Z" fill="#CECECF"/>
        <path d="M555.822 190.255C546.516 190.255 538.175 188.675 530.8 185.514C523.425 182.178 517.543 177.437 513.153 171.291C508.939 164.97 506.832 157.332 506.832 148.376C506.832 139.421 508.939 131.959 513.153 125.988C517.543 119.843 523.513 115.277 531.064 112.292C538.79 109.132 547.569 107.551 557.402 107.551H593.223V100.176C593.223 94.0306 591.292 89.0262 587.429 85.1632C583.566 81.1246 577.42 79.1053 568.992 79.1053C560.739 79.1053 554.593 81.0368 550.554 84.8998C546.516 88.5872 543.882 93.416 542.653 99.3862L512.1 89.114C514.207 82.4415 517.543 76.3836 522.108 70.9402C526.849 65.3213 533.083 60.8437 540.809 57.5074C548.711 53.9956 558.28 52.2396 569.518 52.2396C586.726 52.2396 600.335 56.5416 610.344 65.1457C620.352 73.7497 625.357 86.2168 625.357 102.547V151.274C625.357 156.541 627.815 159.175 632.732 159.175H643.267V186.568H621.143C614.646 186.568 609.29 184.987 605.076 181.827C600.862 178.666 598.754 174.452 598.754 169.184V168.921H593.75C593.048 171.028 591.467 173.837 589.009 177.349C586.551 180.685 582.688 183.67 577.42 186.304C572.152 188.938 564.953 190.255 555.822 190.255ZM561.617 163.39C570.923 163.39 578.474 160.843 584.268 155.751C590.238 150.484 593.223 143.548 593.223 134.944V132.31H559.773C553.627 132.31 548.798 133.627 545.287 136.261C541.775 138.894 540.019 142.582 540.019 147.323C540.019 152.064 541.863 155.927 545.55 158.912C549.237 161.897 554.593 163.39 561.617 163.39Z" fill="#CECECF"/>
        <path d="M656.996 186.568V2.19583H690.183V186.568H656.996Z" fill="#CECECF"/>
        <path d="M716.423 186.568V2.19583H749.61V186.568H716.423Z" fill="#CECECF"/>
    </g>
</svg>
