<svg xmlns="http://www.w3.org/2000/svg" width="1564" height="396" fill="none"><path fill="#121315" d="M127.527 387.536c-17.69 0-32.13-5.415-43.322-16.246-10.831-11.192-16.246-25.993-16.246-44.406V175.255H.809v-56.319h67.15V35.54h68.233v83.396h73.648v56.319h-73.648v139.716c0 10.83 5.054 16.246 15.163 16.246h51.987v56.319zm205.812 7.581c-19.134 0-36.283-3.249-51.446-9.747-15.163-6.86-27.257-16.607-36.282-29.243-8.665-12.997-12.997-28.701-12.997-47.113s4.332-33.756 12.997-46.03c9.025-12.636 21.3-22.023 36.824-28.16 15.885-6.499 33.936-9.748 54.153-9.748h73.649v-15.163c0-12.635-3.972-22.924-11.914-30.867-7.943-8.303-20.578-12.455-37.907-12.455-16.968 0-29.604 3.971-37.908 11.914-8.303 7.581-13.719 17.509-16.246 29.784l-62.817-21.12c4.332-13.719 11.191-26.174 20.578-37.366 9.747-11.552 22.564-20.758 38.449-27.618 16.246-7.22 35.921-10.831 59.027-10.831 35.38 0 63.359 8.845 83.937 26.536 20.578 17.69 30.867 43.322 30.867 76.897v100.184c0 10.83 5.055 16.246 15.163 16.246h21.662v56.319h-45.489c-13.358 0-24.369-3.249-33.034-9.748-8.664-6.498-12.996-15.162-12.996-25.993v-.542H411.32c-1.444 4.333-4.694 10.109-9.748 17.329-5.054 6.86-12.997 12.997-23.827 18.413-10.831 5.415-25.633 8.122-44.406 8.122m11.914-55.236c19.134 0 34.658-5.235 46.571-15.704 12.275-10.831 18.413-25.091 18.413-42.781v-5.416h-68.775c-12.636 0-22.564 2.708-29.784 8.123-7.221 5.416-10.831 12.997-10.831 22.745 0 9.747 3.791 17.69 11.372 23.827 7.582 6.137 18.593 9.206 33.034 9.206m196.102 47.655v-268.6h68.233v268.6zm34.117-300.009c-12.275 0-22.745-3.971-31.409-11.914-8.304-7.942-12.456-18.412-12.456-31.408 0-12.997 4.152-23.467 12.456-31.41C552.727 4.854 563.197.883 575.472.883c12.635 0 23.105 3.971 31.408 11.914 8.304 7.942 12.456 18.412 12.456 31.409 0 12.996-4.152 23.466-12.456 31.408-8.303 7.943-18.773 11.914-31.408 11.914m88.066 300.008V8.463h68.233v379.073zm248.36 7.581c-25.993 0-49.64-5.415-70.94-16.245-20.94-10.831-37.547-26.536-49.821-47.114-12.275-20.578-18.412-45.489-18.412-74.731v-7.582c0-29.243 6.137-54.153 18.412-74.731 12.274-20.578 28.881-36.283 49.821-47.114 21.3-10.83 44.947-16.246 70.94-16.246 25.633 0 47.655 4.513 66.067 13.539 18.412 9.025 33.215 21.481 44.405 37.366 11.55 15.523 19.14 33.214 22.75 53.07l-66.072 14.08c-1.444-10.831-4.693-20.579-9.747-29.243-5.055-8.665-12.275-15.524-21.661-20.578-9.026-5.055-20.398-7.582-34.117-7.582-13.719 0-26.174 3.069-37.366 9.206-10.83 5.777-19.495 14.622-25.993 26.535-6.138 11.553-9.206 25.813-9.206 42.781v5.416c0 16.968 3.068 31.409 9.206 43.322 6.498 11.553 15.163 20.398 25.993 26.535 11.192 5.777 23.647 8.665 37.366 8.665 20.578 0 36.102-5.235 46.572-15.705 10.83-10.83 17.69-24.91 20.578-42.239l66.067 15.704c-4.69 19.134-12.82 36.644-24.37 52.529-11.19 15.524-25.993 27.799-44.405 36.824-18.412 9.026-40.434 13.538-66.067 13.538m252.862 0c-19.13 0-36.28-3.249-51.45-9.747-15.16-6.86-27.25-16.607-36.28-29.243-8.66-12.997-12.99-28.701-12.99-47.113s4.33-33.756 12.99-46.03c9.03-12.636 21.3-22.023 36.83-28.16 15.88-6.499 33.93-9.748 54.15-9.748h73.65v-15.163c0-12.635-3.97-22.924-11.92-30.867-7.94-8.303-20.57-12.455-37.9-12.455-16.97 0-29.61 3.971-37.91 11.914-8.3 7.581-13.72 17.509-16.25 29.784l-62.81-21.12c4.33-13.719 11.19-26.174 20.57-37.366 9.75-11.552 22.57-20.758 38.45-27.618 16.25-7.22 35.92-10.831 59.03-10.831 35.38 0 63.36 8.845 83.94 26.536 20.58 17.69 30.86 43.322 30.86 76.897v100.184c0 10.83 5.06 16.246 15.17 16.246h21.66v56.319h-45.49c-13.36 0-24.37-3.249-33.03-9.748-8.67-6.498-13-15.162-13-25.993v-.542h-10.29c-1.44 4.333-4.69 10.109-9.75 17.329-5.05 6.86-12.99 12.997-23.82 18.413-10.83 5.415-25.64 8.122-44.41 8.122m11.91-55.236c19.14 0 34.66-5.235 46.58-15.704 12.27-10.831 18.41-25.091 18.41-42.781v-5.416h-68.78c-12.63 0-22.56 2.708-29.78 8.123-7.22 5.416-10.83 12.997-10.83 22.745 0 9.747 3.79 17.69 11.37 23.827 7.58 6.137 18.59 9.206 33.03 9.206m196.11 47.655V8.463h68.23v379.073zm122.18 0V8.463h68.23v379.073z" opacity=".04"/></svg>