<svg xmlns="http://www.w3.org/2000/svg" width="30" height="30" fill="none"><path stroke="#121315" stroke-linecap="round" stroke-linejoin="round" stroke-width="2.667" d="M20.334 9.667V5.933c0-1.493 0-2.24-.291-2.81a2.667 2.667 0 0 0-1.165-1.166c-.57-.29-1.317-.29-2.811-.29H5.934c-1.494 0-2.24 0-2.811.29-.502.256-.91.664-1.165 1.166-.291.57-.291 1.317-.291 2.81v10.134c0 1.493 0 2.24.29 2.81.256.502.664.91 1.166 1.166.57.29 1.317.29 2.81.29h3.734M15 19l2.667 2.667 6-6m-9.733 12.666h10.133c1.494 0 2.24 0 2.81-.29.502-.256.91-.664 1.166-1.166.29-.57.29-1.317.29-2.81V13.933c0-1.493 0-2.24-.29-2.81a2.667 2.667 0 0 0-1.165-1.166c-.57-.29-1.317-.29-2.811-.29H13.934c-1.494 0-2.24 0-2.811.29-.502.256-.91.664-1.165 1.166-.291.57-.291 1.317-.291 2.81v10.134c0 1.493 0 2.24.29 2.81.256.502.664.91 1.166 1.166.57.29 1.317.29 2.81.29"/></svg>