<svg width="32" height="32" viewBox="0 0 32 32" fill="none" xmlns="http://www.w3.org/2000/svg">
<path fill-rule="evenodd" clip-rule="evenodd" d="M15.9855 2.64795C12.1191 2.64795 8.51162 4.14364 5.83238 6.86064C3.15334 9.57743 1.67969 13.2336 1.67969 17.1509C1.67969 21.0678 3.15295 24.724 5.83239 27.4408C8.51163 30.1578 12.1191 31.6534 15.9855 31.6534C19.8523 31.6534 23.4598 30.1578 26.1387 27.4408C28.8177 24.724 30.2914 21.0678 30.2914 17.1509C30.2914 13.6329 29.1008 10.3268 26.9175 7.72106L27.6316 6.99682L28.4766 7.85396C28.6867 8.0676 28.9639 8.1748 29.2406 8.1748C29.5173 8.1748 29.7944 8.06765 30.0044 7.85464C30.4233 7.42986 30.4233 6.7427 30.0044 6.31792L26.7861 3.05427C26.3652 2.627 25.6795 2.627 25.2586 3.05427C24.8397 3.47905 24.8397 4.16621 25.2586 4.59099L26.11 5.45445L25.4061 6.16834C22.8187 3.8905 19.5098 2.64795 15.9855 2.64795ZM7.3603 8.39659C9.39461 6.33362 12.0636 5.10179 14.9648 4.86721V6.4372C14.9648 7.03403 15.4434 7.52592 16.0428 7.52592C16.6422 7.52592 17.1208 7.03403 17.1208 6.4372V4.87874C19.9781 5.13577 22.6039 6.36072 24.6115 8.39661C26.6472 10.4607 27.8636 13.1711 28.0941 16.1183H26.5526C25.9532 16.1183 25.4746 16.6102 25.4746 17.207C25.4746 17.8039 25.9532 18.2958 26.5526 18.2958H28.0831C27.8305 21.1992 26.6209 23.8663 24.6119 25.9036C22.6043 27.9392 19.9784 29.1641 17.1212 29.4211V27.8084C17.1212 27.2116 16.6425 26.7197 16.0432 26.7197C15.4438 26.7197 14.9651 27.2116 14.9651 27.8084V29.4326C12.064 29.1981 9.39498 27.9662 7.36066 25.9036C5.35161 23.8662 4.14208 21.1992 3.88942 18.2958H5.423C6.02236 18.2958 6.50102 17.8039 6.50102 17.207C6.50102 16.6102 6.02236 16.1183 5.423 16.1183H3.87815C4.10897 13.1711 5.32495 10.4606 7.3603 8.39659Z" fill="#121212"/>
<path d="M20.8752 11.6086L17.0193 15.5184C16.7201 15.3765 16.3908 15.2996 16.048 15.2996C15.4354 15.2996 14.8627 15.5381 14.436 15.9708C13.5477 16.872 13.5477 18.3382 14.436 19.2394C14.8627 19.6721 15.435 19.9102 16.0476 19.9102C16.6601 19.9102 17.2325 19.6721 17.6596 19.2394C18.3616 18.5271 18.4997 17.4662 18.0923 16.6058L21.9475 12.6964C22.2437 12.396 22.2437 11.909 21.9475 11.6086C21.6512 11.3082 21.1711 11.3082 20.8752 11.6086ZM16.5869 18.1513C16.3063 18.4355 15.7889 18.4355 15.5094 18.1517C15.2169 17.8551 15.2169 17.3547 15.5094 17.0585C15.6493 16.9162 15.8409 16.8381 16.048 16.8381C16.2551 16.8381 16.4466 16.9166 16.5866 17.0585C16.879 17.3547 16.879 17.8551 16.5869 18.1513Z" fill="#121212"/>
<path d="M14.5273 2.20505H17.5617C17.9804 2.20505 18.3203 1.86042 18.3203 1.43578C18.3203 1.01114 17.9804 0.666504 17.5617 0.666504H14.5273C14.1086 0.666504 13.7688 1.01114 13.7688 1.43578C13.7688 1.86042 14.1086 2.20505 14.5273 2.20505Z" fill="#121212"/>
</svg>
