<svg xmlns="http://www.w3.org/2000/svg" width="32" height="32" fill="none"><path stroke="#121315" stroke-linecap="round" stroke-linejoin="round" stroke-width="2.667" d="M5.333 24v-.267c0-2.24 0-3.36.436-4.216a4 4 0 0 1 1.748-1.748c.855-.436 1.975-.436 4.216-.436h8.533c2.24 0 3.36 0 4.216.436a4 4 0 0 1 1.748 1.749c.436.855.436 1.975.436 4.215V24M5.333 24a2.667 2.667 0 1 0 0 5.333 2.667 2.667 0 0 0 0-5.333m21.333 0a2.667 2.667 0 1 0 0 5.334 2.667 2.667 0 0 0 0-5.334m-10.667 0a2.667 2.667 0 1 0 0 5.333A2.667 2.667 0 0 0 16 24m0 0V10.667m-8 0h16c1.243 0 1.864 0 2.354-.203a2.667 2.667 0 0 0 1.443-1.443C28 8.53 28 7.909 28 6.667c0-1.243 0-1.864-.203-2.354a2.667 2.667 0 0 0-1.443-1.443c-.49-.203-1.111-.203-2.354-.203H8c-1.242 0-1.863 0-2.353.203-.654.27-1.173.79-1.444 1.443C4 4.803 4 5.424 4 6.667c0 1.242 0 1.864.203 2.354.271.653.79 1.172 1.444 1.443.49.203 1.11.203 2.353.203"/></svg>