<svg class="svg-icon" style="width: 1em; height: 1em;vertical-align: middle;fill: currentColor;overflow: hidden;" viewBox="0 0 1024 1024" version="1.1" xmlns="http://www.w3.org/2000/svg"><path  d="M206.935452 308.623635a50.844091 50.844091 0 0 0-50.844092 50.844091v457.596822a50.844091 50.844091 0 0 0 50.844092 50.844092h457.596822a50.844091 50.844091 0 0 0 50.844091-50.844092v-457.596822a50.844091 50.844091 0 0 0-50.844091-50.844091z m0-101.688183h457.596822a152.532274 152.532274 0 0 1 152.532274 152.532274v457.596822a152.532274 152.532274 0 0 1-152.532274 152.532274h-457.596822a152.532274 152.532274 0 0 1-152.532274-152.532274v-457.596822a152.532274 152.532274 0 0 1 152.532274-152.532274z m50.844091-50.844092a50.844091 50.844091 0 0 1 0-101.688182h457.596822a254.220457 254.220457 0 0 1 254.220457 254.220457v457.596822a50.844091 50.844091 0 0 1-101.688182 0v-457.596822a152.532274 152.532274 0 0 0-152.532275-152.532275z" fill="#888" /></svg>