<svg xmlns="http://www.w3.org/2000/svg" width="21" height="20" fill="none"><rect width="19" height="19" x="1" y=".5" stroke="#858586" rx="3.5"/><path fill="#858586" d="M5.39 12.509c-.473 0-.89-.1-1.254-.297a2.206 2.206 0 0 1-.843-.852c-.198-.37-.297-.805-.297-1.303v-.114c0-.498.099-.93.297-1.293.198-.37.475-.654.833-.852.357-.205.772-.307 1.245-.307.466 0 .871.106 1.216.316.344.205.613.492.804.862.192.364.287.788.287 1.274v.411H4.222c.012.326.134.59.364.795.23.204.51.306.842.306.338 0 .587-.073.747-.22.16-.147.28-.31.364-.488l.986.517a3.08 3.08 0 0 1-.393.546c-.165.191-.389.357-.67.498-.28.134-.638.2-1.072.2M4.23 9.454h2.222a.94.94 0 0 0-.335-.66c-.192-.166-.444-.25-.757-.25-.325 0-.584.084-.775.25a1.07 1.07 0 0 0-.355.66M10.533 12.509c-.62 0-1.127-.134-1.522-.402-.396-.269-.636-.652-.719-1.15l1.111-.287c.045.224.118.4.22.527.109.128.24.22.393.278.16.05.332.076.517.076.28 0 .488-.048.622-.143a.456.456 0 0 0 .202-.374.368.368 0 0 0-.192-.335c-.128-.083-.332-.15-.613-.201l-.268-.048a5.083 5.083 0 0 1-.91-.258 1.7 1.7 0 0 1-.66-.47c-.166-.198-.25-.453-.25-.766 0-.472.173-.833.518-1.082.345-.255.798-.383 1.36-.383.53 0 .97.118 1.32.355.352.236.582.545.69.928l-1.12.345c-.051-.242-.156-.415-.316-.517a1.014 1.014 0 0 0-.575-.153c-.23 0-.405.041-.526.124a.364.364 0 0 0-.182.326c0 .153.064.268.191.345.128.07.3.124.518.162l.268.048c.357.064.68.15.967.259.293.102.523.252.69.45.172.191.258.453.258.785 0 .498-.182.884-.546 1.159-.358.268-.84.402-1.446.402M15.621 12.509c-.46 0-.877-.096-1.254-.288a2.17 2.17 0 0 1-.88-.833c-.218-.364-.326-.804-.326-1.321v-.134c0-.517.108-.958.325-1.321.217-.364.51-.642.881-.833a2.727 2.727 0 0 1 1.254-.288c.454 0 .843.08 1.168.24.326.16.588.38.786.66.204.275.338.588.402.939l-1.168.249a1.374 1.374 0 0 0-.173-.517.958.958 0 0 0-.383-.364c-.16-.09-.36-.134-.603-.134-.242 0-.463.054-.66.163a1.124 1.124 0 0 0-.46.469c-.109.204-.163.456-.163.756v.096c0 .3.054.555.163.766.115.204.268.36.46.469.197.102.418.153.66.153.364 0 .638-.092.824-.277.191-.192.312-.44.363-.747l1.169.277a2.63 2.63 0 0 1-.431.93c-.198.274-.46.49-.785.65-.326.16-.715.24-1.169.24"/></svg>