<svg width="112" height="112" viewBox="0 0 112 112" fill="none" xmlns="http://www.w3.org/2000/svg">
<path d="M96.3 15H15.7C11.7 15 8.5 18.2 8.5 22.2V89.8C8.5 93.8 11.7 97 15.7 97H96.3C100.3 97 103.5 93.8 103.5 89.8V22.2C103.5 18.2 100.3 15 96.3 15ZM39.3 22.4C41 22.4 42.4 23.8 42.4 25.5C42.4 27.2 41 28.6 39.3 28.6C37.6 28.6 36.2 27.2 36.2 25.5C36.2 23.8 37.6 22.4 39.3 22.4ZM29.9 22.4C31.6 22.4 33 23.8 33 25.5C33 27.2 31.6 28.6 29.9 28.6C28.2 28.6 26.8 27.2 26.8 25.5C26.8 23.8 28.2 22.4 29.9 22.4ZM20.5 22.4C22.2 22.4 23.6 23.8 23.6 25.5C23.6 27.2 22.2 28.6 20.5 28.6C18.8 28.6 17.4 27.2 17.4 25.5C17.4 23.8 18.7 22.4 20.5 22.4ZM96.8 89.8C96.8 90.1 96.6 90.3 96.3 90.3H15.7C15.4 90.3 15.2 90.1 15.2 89.8V36.1H96.8V89.8Z" fill="#636363"/>
<g filter="url(#filter0_f_1386_2419)">
<path d="M29.6004 80.4C30.4004 81.4 31.6004 81.8 32.7004 81.8C33.6004 81.8 34.6004 81.5 35.4004 80.8L52.5004 66.3C53.4004 65.5 53.9004 64.4 53.9004 63.2C53.9004 62 53.4004 60.9 52.5004 60.1L35.3004 45.6C33.6004 44.1 31.0004 44.3 29.5004 46.1C28.0004 47.8 28.2004 50.4 30.0004 51.9L43.4004 63.3L30.0004 74.6C28.3004 76.1 28.1004 78.7 29.6004 80.4Z" fill="#FDEA2E"/>
</g>
<path d="M29.5995 80.4C30.3995 81.4 31.5995 81.8 32.6995 81.8C33.5995 81.8 34.5995 81.5 35.3995 80.8L52.4995 66.3C53.3995 65.5 53.8995 64.4 53.8995 63.2C53.8995 62 53.3995 60.9 52.4995 60.1L35.2995 45.6C33.5995 44.1 30.9995 44.3 29.4995 46.1C27.9995 47.8 28.1995 50.4 29.9995 51.9L43.3995 63.3L29.9995 74.6C28.2995 76.1 28.0995 78.7 29.5995 80.4Z" fill="#FDEA2E"/>
<g filter="url(#filter1_f_1386_2419)">
<path d="M58.5002 81.1H79.3002C81.4002 81.1 83.1002 79.4 83.1002 77.3C83.1002 75.2 81.4002 73.5 79.3002 73.5H58.5002C56.4002 73.5 54.7002 75.2 54.7002 77.3C54.7002 79.4 56.4002 81.1 58.5002 81.1Z" fill="#FDEA2E"/>
</g>
<path d="M58.4992 81.1H79.2992C81.3992 81.1 83.0992 79.4 83.0992 77.3C83.0992 75.2 81.3992 73.5 79.2992 73.5H58.4992C56.3992 73.5 54.6992 75.2 54.6992 77.3C54.6992 79.4 56.3992 81.1 58.4992 81.1Z" fill="#FDEA2E"/>
<defs>
<filter id="filter0_f_1386_2419" x="14.499" y="30.5986" width="53.4014" height="65.2014" filterUnits="userSpaceOnUse" color-interpolation-filters="sRGB">
<feFlood flood-opacity="0" result="BackgroundImageFix"/>
<feBlend mode="normal" in="SourceGraphic" in2="BackgroundImageFix" result="shape"/>
<feGaussianBlur stdDeviation="7" result="effect1_foregroundBlur_1386_2419"/>
</filter>
<filter id="filter1_f_1386_2419" x="40.7002" y="59.5" width="56.4004" height="35.6001" filterUnits="userSpaceOnUse" color-interpolation-filters="sRGB">
<feFlood flood-opacity="0" result="BackgroundImageFix"/>
<feBlend mode="normal" in="SourceGraphic" in2="BackgroundImageFix" result="shape"/>
<feGaussianBlur stdDeviation="7" result="effect1_foregroundBlur_1386_2419"/>
</filter>
</defs>
</svg>
