<svg width="32" height="32" viewBox="0 0 32 32" fill="none" xmlns="http://www.w3.org/2000/svg">
<g clip-path="url(#clip0_1386_2239)">
<path d="M11.7065 4.33291H1.06512C0.782888 4.33291 0.51222 4.44502 0.312656 4.64458C0.113091 4.84415 0.000976563 5.11482 0.000976562 5.39704V16.0384C0.000976563 16.3206 0.113091 16.5913 0.312656 16.7909C0.51222 16.9904 0.782888 17.1026 1.06512 17.1026H11.7065C11.9887 17.1026 12.2594 16.9904 12.459 16.7909C12.6585 16.5913 12.7706 16.3206 12.7706 16.0384V5.39704C12.7706 5.11482 12.6585 4.84415 12.459 4.64458C12.2594 4.44502 11.9887 4.33291 11.7065 4.33291ZM10.6424 14.9743H2.12925V6.46118H10.6424V14.9743ZM31.6892 7.83711L24.1644 0.312253C24.0656 0.213415 23.9483 0.135009 23.8192 0.0815154C23.6901 0.0280217 23.5517 0.000488281 23.412 0.000488281C23.2723 0.000488281 23.1339 0.0280217 23.0048 0.0815154C22.8757 0.135009 22.7584 0.213415 22.6596 0.312253L15.1348 7.83711C15.036 7.9359 14.9576 8.05319 14.9041 8.18228C14.8506 8.31138 14.8231 8.44975 14.8231 8.58949C14.8231 8.72923 14.8506 8.8676 14.9041 8.9967C14.9576 9.12579 15.036 9.24308 15.1348 9.34187L22.6597 16.8667C22.7585 16.9655 22.8758 17.0439 23.0049 17.0974C23.134 17.1509 23.2723 17.1784 23.4121 17.1784C23.5518 17.1784 23.6902 17.1509 23.8193 17.0974C23.9484 17.0439 24.0657 16.9655 24.1644 16.8667L31.6892 9.3418C31.7881 9.24302 31.8665 9.12573 31.92 8.99664C31.9734 8.86755 32.001 8.72919 32.001 8.58946C32.001 8.44973 31.9734 8.31136 31.92 8.18227C31.8665 8.05318 31.7881 7.93589 31.6892 7.83711ZM23.412 14.6095L17.392 8.58946L23.412 2.56939L29.4321 8.58946L23.412 14.6095ZM11.7065 19.2308H1.06512C0.782888 19.2308 0.51222 19.3429 0.312656 19.5425C0.113091 19.7421 0.000976563 20.0127 0.000976562 20.295V30.9364C0.000976563 31.2186 0.113091 31.4892 0.312656 31.6888C0.51222 31.8884 0.782888 32.0005 1.06512 32.0005H11.7065C11.9887 32.0005 12.2594 31.8884 12.459 31.6888C12.6585 31.4892 12.7706 31.2186 12.7706 30.9364V20.295C12.7706 20.0127 12.6585 19.7421 12.459 19.5425C12.2594 19.3429 11.9887 19.2308 11.7065 19.2308ZM10.6424 29.8722H2.12925V21.3591H10.6424V29.8722ZM26.6044 19.2308H15.9631C15.6808 19.2308 15.4102 19.3429 15.2106 19.5425C15.011 19.7421 14.8989 20.0127 14.8989 20.295V30.9364C14.8989 31.2186 15.011 31.4892 15.2106 31.6888C15.4102 31.8884 15.6808 32.0005 15.9631 32.0005H26.6044C26.8867 32.0005 27.1573 31.8884 27.3569 31.6888C27.5565 31.4892 27.6686 31.2186 27.6686 30.9364V20.295C27.6686 20.0127 27.5565 19.7421 27.3569 19.5425C27.1573 19.3429 26.8867 19.2308 26.6044 19.2308ZM25.5403 29.8722H17.0272V21.3591H25.5403V29.8722Z" fill="#121212"/>
</g>
<defs>
<clipPath id="clip0_1386_2239">
<rect width="32" height="32" fill="white"/>
</clipPath>
</defs>
</svg>
