<svg xmlns="http://www.w3.org/2000/svg" width="28" height="28" fill="none"><path stroke="#121315" stroke-linecap="round" stroke-linejoin="round" stroke-width="2.667" d="M9.2 2H4.133c-.746 0-1.12 0-1.405.145a1.34 1.34 0 0 0-.583.583C2 3.013 2 3.387 2 4.133V9.2c0 .747 0 1.12.145 1.405.128.251.332.455.583.583.285.145.659.145 1.405.145H9.2c.747 0 1.12 0 1.405-.145.251-.128.455-.332.583-.583.145-.285.145-.658.145-1.405V4.133c0-.746 0-1.12-.145-1.405a1.333 1.333 0 0 0-.583-.583C10.32 2 9.947 2 9.2 2m14.667 0H18.8c-.747 0-1.12 0-1.405.145a1.335 1.335 0 0 0-.583.583c-.145.285-.145.659-.145 1.405V9.2c0 .747 0 1.12.145 1.405.128.251.332.455.583.583.285.145.658.145 1.405.145h5.067c.746 0 1.12 0 1.405-.145a1.34 1.34 0 0 0 .583-.583C26 10.32 26 9.947 26 9.2V4.133c0-.746 0-1.12-.145-1.405a1.334 1.334 0 0 0-.583-.583C24.987 2 24.613 2 23.867 2m0 14.667H18.8c-.747 0-1.12 0-1.405.145a1.335 1.335 0 0 0-.583.583c-.145.285-.145.658-.145 1.405v5.067c0 .746 0 1.12.145 1.405.128.25.332.455.583.583.285.145.658.145 1.405.145h5.067c.746 0 1.12 0 1.405-.145a1.34 1.34 0 0 0 .583-.583c.145-.285.145-.659.145-1.405V18.8c0-.747 0-1.12-.145-1.405a1.333 1.333 0 0 0-.583-.583c-.285-.145-.659-.145-1.405-.145m-14.667 0H4.133c-.746 0-1.12 0-1.405.145a1.34 1.34 0 0 0-.583.583C2 17.68 2 18.053 2 18.8v5.067c0 .746 0 1.12.145 1.405.128.25.332.455.583.583.285.145.659.145 1.405.145H9.2c.747 0 1.12 0 1.405-.145.251-.128.455-.332.583-.583.145-.285.145-.659.145-1.405V18.8c0-.747 0-1.12-.145-1.405a1.333 1.333 0 0 0-.583-.583c-.285-.145-.658-.145-1.405-.145"/></svg>