<svg xmlns="http://www.w3.org/2000/svg" width="32" height="32" fill="none"><g clip-path="url(#a)"><path fill="#121212" d="M18.274 19.768v10.82A1.414 1.414 0 0 1 16.864 32a1.409 1.409 0 0 1-1.41-1.413v-10.82a1.414 1.414 0 0 1 1.41-1.412 1.409 1.409 0 0 1 1.41 1.413M6.994 21.18a1.409 1.409 0 0 0-1.41 1.413v7.994A1.414 1.414 0 0 0 6.994 32a1.409 1.409 0 0 0 1.41-1.413v-7.994a1.414 1.414 0 0 0-1.41-1.413m19.74-7.062a1.409 1.409 0 0 0-1.41 1.412v15.058A1.414 1.414 0 0 0 26.734 32a1.409 1.409 0 0 0 1.41-1.413V15.53a1.414 1.414 0 0 0-1.41-1.412m4.724-12.826a1.414 1.414 0 0 0-.494-.96 1.41 1.41 0 0 0-1.043-.325l-5.513.522a1.41 1.41 0 0 0-1.27 1.526 1.413 1.413 0 0 0 1.495 1.229l2.158-.212C20.727 9.598 11.28 13.44 1.41 13.44A1.409 1.409 0 0 0 0 14.852a1.414 1.414 0 0 0 1.41 1.413c10.984 0 20.939-4.125 27.594-11.3l.184 2.132a1.413 1.413 0 0 0 1.41 1.286h.127a1.41 1.41 0 0 0 1.269-1.54z"/><path fill="#fff" fill-rule="evenodd" d="M31.308 1.304a1.263 1.263 0 0 0-.44-.858 1.26 1.26 0 0 0-.933-.29l-5.513.523a1.26 1.26 0 0 0-1.134 1.36 1.262 1.262 0 0 0 1.333 1.095l2.55-.25-.27.29C20.806 9.734 11.317 13.59 1.41 13.59a1.259 1.259 0 0 0-1.26 1.262 1.264 1.264 0 0 0 1.26 1.263c10.947 0 20.86-4.11 27.484-11.253l.23-.248.213 2.47a1.264 1.264 0 0 0 1.26 1.149h.12a1.26 1.26 0 0 0 1.127-1.376zm-.583 7.079h-.127a1.409 1.409 0 0 1-1.41-1.286l-.184-2.133c-.045.05-.091.1-.138.148C22.213 12.197 12.32 16.265 1.41 16.265A1.409 1.409 0 0 1 0 14.852a1.414 1.414 0 0 1 1.41-1.412c9.786 0 19.157-3.777 25.225-10.202a30.5 30.5 0 0 0 .156-.166l-2.158.212a1.408 1.408 0 0 1-1.494-1.23A1.414 1.414 0 0 1 24.408.53L29.92.007a1.407 1.407 0 0 1 1.537 1.285l.536 5.551a1.415 1.415 0 0 1-1.27 1.54M18.124 30.588v-10.82a1.264 1.264 0 0 0-1.26-1.263 1.259 1.259 0 0 0-1.26 1.263v10.82a1.264 1.264 0 0 0 1.26 1.262 1.259 1.259 0 0 0 1.26-1.263M6.994 21.33a1.259 1.259 0 0 0-1.26 1.263v7.994a1.264 1.264 0 0 0 1.26 1.263 1.259 1.259 0 0 0 1.26-1.263v-7.994a1.264 1.264 0 0 0-1.26-1.263m19.74-7.062a1.259 1.259 0 0 0-1.26 1.262v15.058a1.263 1.263 0 0 0 1.26 1.262 1.258 1.258 0 0 0 1.26-1.263V15.53a1.263 1.263 0 0 0-1.26-1.262m-8.46 16.32v-10.82a1.414 1.414 0 0 0-1.41-1.413 1.409 1.409 0 0 0-1.41 1.413v10.82A1.414 1.414 0 0 0 16.864 32a1.409 1.409 0 0 0 1.41-1.413M5.997 21.594a1.409 1.409 0 0 1 2.407.999v7.994A1.414 1.414 0 0 1 6.994 32a1.409 1.409 0 0 1-1.41-1.413v-7.994c0-.375.148-.734.413-1m19.74-7.063a1.409 1.409 0 0 1 2.407 1v15.056A1.414 1.414 0 0 1 26.734 32a1.409 1.409 0 0 1-1.41-1.413V15.53c0-.374.149-.734.413-.999" clip-rule="evenodd"/></g><defs><clipPath id="a"><path fill="#fff" d="M0 0h32v32H0z"/></clipPath></defs></svg>