<svg width="32" height="32" viewBox="0 0 32 32" fill="none" xmlns="http://www.w3.org/2000/svg">
<g clip-path="url(#clip0_1386_2260)">
<path d="M18.274 19.7676V30.5875C18.274 30.9621 18.1255 31.3214 17.8611 31.5863C17.5966 31.8512 17.238 32 16.864 32C16.49 32 16.1314 31.8512 15.867 31.5863C15.6025 31.3214 15.454 30.9621 15.454 30.5875V19.7676C15.454 19.393 15.6025 19.0337 15.867 18.7688C16.1314 18.5039 16.49 18.3551 16.864 18.3551C17.238 18.3551 17.5966 18.5039 17.8611 18.7688C18.1255 19.0337 18.274 19.393 18.274 19.7676ZM6.99377 21.1801C6.61981 21.1801 6.26116 21.329 5.99673 21.5939C5.73229 21.8588 5.58373 22.218 5.58373 22.5927V30.5875C5.58373 30.9621 5.73229 31.3214 5.99673 31.5863C6.26116 31.8512 6.61981 32 6.99377 32C7.36773 32 7.72638 31.8512 7.99082 31.5863C8.25525 31.3214 8.4038 30.9621 8.4038 30.5875V22.5927C8.4038 22.218 8.25525 21.8588 7.99082 21.5939C7.72638 21.329 7.36773 21.1801 6.99377 21.1801ZM26.7343 14.1176C26.3603 14.1176 26.0016 14.2664 25.7372 14.5313C25.4728 14.7962 25.3242 15.1555 25.3242 15.5301V30.5875C25.3242 30.9621 25.4728 31.3214 25.7372 31.5863C26.0016 31.8512 26.3603 32 26.7343 32C27.1082 32 27.4669 31.8512 27.7313 31.5863C27.9957 31.3214 28.1443 30.9621 28.1443 30.5875V15.5301C28.1443 15.1555 27.9957 14.7962 27.7313 14.5313C27.4669 14.2664 27.1082 14.1176 26.7343 14.1176ZM31.4579 1.29196C31.4269 0.918936 31.2494 0.573471 30.9644 0.331454C30.8208 0.210482 30.6545 0.119437 30.4753 0.0636508C30.2962 0.00786492 30.1077 -0.0115392 29.9209 0.00657578L24.4077 0.529206C24.0383 0.565045 23.698 0.745295 23.4604 1.03087C23.2229 1.31644 23.1072 1.68432 23.1387 2.05472C23.1845 2.41179 23.3648 2.73783 23.6426 2.96623C23.9204 3.19463 24.2748 3.30815 24.6333 3.28361L26.7907 3.07173C20.7275 9.59754 11.2803 13.4396 1.41003 13.4396C1.03607 13.4396 0.677423 13.5884 0.41299 13.8533C0.148557 14.1182 0 14.4775 0 14.8521C0 15.2267 0.148557 15.586 0.41299 15.8509C0.677423 16.1158 1.03607 16.2646 1.41003 16.2646C12.3942 16.2646 22.349 12.1401 29.0044 4.9645L29.1877 7.09739C29.2195 7.44956 29.3819 7.77699 29.643 8.01498C29.9041 8.25297 30.2448 8.38421 30.5977 8.38278H30.7246C31.0967 8.34702 31.4393 8.16477 31.6773 7.87607C31.9152 7.58737 32.029 7.21585 31.9937 6.84314L31.4579 1.29196Z" fill="#121212"/>
<path fill-rule="evenodd" clip-rule="evenodd" d="M31.3084 1.30437C31.2807 0.970984 31.1221 0.662288 30.8675 0.446012C30.7392 0.337984 30.5907 0.256688 30.4307 0.206869C30.2707 0.157026 30.1023 0.139691 29.9354 0.155875L24.4222 0.678505C24.4221 0.678509 24.4222 0.678502 24.4222 0.678505C24.0922 0.710549 23.788 0.871593 23.5757 1.1268C23.3641 1.38121 23.2607 1.70876 23.2879 2.03882C23.3295 2.35678 23.4904 2.64693 23.7379 2.85036C23.9855 3.05401 24.3013 3.15543 24.6209 3.1341L27.1701 2.88375L26.9005 3.17383C20.8056 9.73387 11.3167 13.5896 1.41003 13.5896C1.07594 13.5896 0.755472 13.7225 0.519149 13.9593C0.282817 14.196 0.15 14.5172 0.15 14.8521C0.15 15.187 0.282817 15.5082 0.519149 15.7449C0.755472 15.9817 1.07594 16.1146 1.41003 16.1146C12.3573 16.1146 22.2706 12.0041 28.8944 4.86249L29.1248 4.61407L29.3371 7.08392C29.3371 7.08384 29.3371 7.084 29.3371 7.08392C29.3656 7.39867 29.5108 7.69149 29.7441 7.90413C29.9774 8.11681 30.2818 8.23406 30.5971 8.23278L30.7172 8.23278C31.0469 8.19924 31.3503 8.03689 31.5615 7.78067C31.7742 7.52263 31.8759 7.19052 31.8443 6.8573L31.3084 1.30437ZM30.7246 8.38278H30.5977C30.2448 8.38421 29.9041 8.25297 29.643 8.01498C29.3819 7.77699 29.2195 7.44956 29.1877 7.09739L29.0044 4.9645C28.9586 5.01387 28.9127 5.06311 28.8665 5.11219C22.212 12.1966 12.3186 16.2646 1.41003 16.2646C1.03607 16.2646 0.677423 16.1158 0.41299 15.8509C0.148557 15.586 0 15.2267 0 14.8521C0 14.4775 0.148557 14.1182 0.41299 13.8533C0.677423 13.5884 1.03607 13.4396 1.41003 13.4396C11.1963 13.4396 20.5667 9.66264 26.6352 3.23772C26.6872 3.18259 26.7391 3.12726 26.7907 3.07173L24.6333 3.28361C24.2748 3.30815 23.9204 3.19463 23.6426 2.96623C23.3648 2.73783 23.1845 2.41179 23.1387 2.05472C23.1072 1.68432 23.2229 1.31644 23.4604 1.03087C23.698 0.745295 24.0383 0.565045 24.4077 0.529206L29.9209 0.00657578C30.1077 -0.0115392 30.2962 0.00786492 30.4753 0.0636508C30.6545 0.119437 30.8208 0.210482 30.9644 0.331454C31.2494 0.573471 31.4269 0.918936 31.4579 1.29196L31.9937 6.84314C32.029 7.21585 31.9152 7.58737 31.6773 7.87607C31.4393 8.16477 31.0967 8.34702 30.7246 8.38278ZM18.124 30.5875V19.7676C18.124 19.4327 17.9912 19.1116 17.7549 18.8748C17.5186 18.6381 17.1981 18.5051 16.864 18.5051C16.5299 18.5051 16.2094 18.6381 15.9731 18.8748C15.7368 19.1116 15.604 19.4327 15.604 19.7676V30.5875C15.604 30.9224 15.7368 31.2436 15.9731 31.4803C16.2094 31.7171 16.5299 31.85 16.864 31.85C17.1981 31.85 17.5186 31.7171 17.7549 31.4803C17.9912 31.2436 18.124 30.9224 18.124 30.5875ZM6.99377 21.3302C6.65967 21.3302 6.33921 21.4631 6.10288 21.6998C5.86655 21.9366 5.73374 22.2577 5.73374 22.5927V30.5875C5.73374 30.9224 5.86655 31.2436 6.10288 31.4803C6.33921 31.7171 6.65967 31.85 6.99377 31.85C7.32787 31.85 7.64833 31.7171 7.88466 31.4803C8.12099 31.2436 8.2538 30.9224 8.2538 30.5875V22.5927C8.2538 22.2577 8.12099 21.9366 7.88466 21.6998C7.64833 21.4631 7.32787 21.3302 6.99377 21.3302ZM26.7343 14.2676C26.4002 14.2676 26.0797 14.4005 25.8434 14.6373C25.607 14.874 25.4742 15.1952 25.4742 15.5301V30.5875C25.4742 30.9224 25.607 31.2436 25.8434 31.4803C26.0797 31.7171 26.4002 31.85 26.7343 31.85C27.0683 31.85 27.3888 31.7171 27.6251 31.4803C27.8615 31.2436 27.9943 30.9224 27.9943 30.5875V15.5301C27.9943 15.1952 27.8615 14.874 27.6251 14.6373C27.3888 14.4005 27.0683 14.2676 26.7343 14.2676ZM18.274 30.5875V19.7676C18.274 19.393 18.1255 19.0337 17.8611 18.7688C17.5966 18.5039 17.238 18.3551 16.864 18.3551C16.49 18.3551 16.1314 18.5039 15.867 18.7688C15.6025 19.0337 15.454 19.393 15.454 19.7676V30.5875C15.454 30.9621 15.6025 31.3214 15.867 31.5863C16.1314 31.8512 16.49 32 16.864 32C17.238 32 17.5966 31.8512 17.8611 31.5863C18.1255 31.3214 18.274 30.9621 18.274 30.5875ZM5.99673 21.5939C6.26116 21.329 6.61981 21.1801 6.99377 21.1801C7.36773 21.1801 7.72638 21.329 7.99082 21.5939C8.25525 21.8588 8.4038 22.218 8.4038 22.5927V30.5875C8.4038 30.9621 8.25525 31.3214 7.99082 31.5863C7.72638 31.8512 7.36773 32 6.99377 32C6.61981 32 6.26116 31.8512 5.99673 31.5863C5.73229 31.3214 5.58373 30.9621 5.58373 30.5875V22.5927C5.58373 22.218 5.73229 21.8588 5.99673 21.5939ZM25.7372 14.5313C26.0016 14.2664 26.3603 14.1176 26.7343 14.1176C27.1082 14.1176 27.4669 14.2664 27.7313 14.5313C27.9957 14.7962 28.1443 15.1555 28.1443 15.5301V30.5875C28.1443 30.9621 27.9957 31.3214 27.7313 31.5863C27.4669 31.8512 27.1082 32 26.7343 32C26.3603 32 26.0016 31.8512 25.7372 31.5863C25.4728 31.3214 25.3242 30.9621 25.3242 30.5875V15.5301C25.3242 15.1555 25.4728 14.7962 25.7372 14.5313Z" fill="white"/>
</g>
<defs>
<clipPath id="clip0_1386_2260">
<rect width="32" height="32" fill="white"/>
</clipPath>
</defs>
</svg>
