<svg width="27" height="17" viewBox="0 0 27 17" fill="none" xmlns="http://www.w3.org/2000/svg">
<path fill-rule="evenodd" clip-rule="evenodd" d="M0.376757 0.874963C0.879099 0.375012 1.69356 0.375012 2.1959 0.874963L8.91873 7.56578C9.42107 8.06573 9.42107 8.87631 8.91873 9.37626L2.1959 16.0671C1.69356 16.567 0.879099 16.567 0.376757 16.0671C-0.125586 15.5671 -0.125586 14.7565 0.376757 14.2566L6.19001 8.47102L0.376757 2.68545C-0.125586 2.18549 -0.125586 1.37491 0.376757 0.874963Z" fill="#858586"/>
<path d="M12.6468 15.2C12.6468 14.4902 13.2249 13.9148 13.9381 13.9148H24.9869C25.7042 13.9148 26.2857 14.4935 26.2857 15.2074C26.2857 15.9213 25.7042 16.5 24.9869 16.5H19.4662L13.9346 16.4851C13.2228 16.4832 12.6468 15.9084 12.6468 15.2Z" fill="#858586"/>
</svg>
