<svg xmlns="http://www.w3.org/2000/svg" width="53" height="32" fill="none"><path fill="#121315" fill-rule="evenodd" d="M.76.75c1.013-1 2.655-1 3.668 0l13.555 13.382a2.537 2.537 0 0 1 0 3.62L4.428 31.135c-1.013 1-2.655 1-3.668 0a2.537 2.537 0 0 1 0-3.62l11.72-11.572L.76 4.371A2.537 2.537 0 0 1 .76.75" clip-rule="evenodd"/><path fill="#121315" d="M25.5 29.4c0-1.42 1.166-2.57 2.603-2.57h22.278c1.447 0 2.619 1.157 2.619 2.585S51.828 32 50.381 32H39.25l-11.154-.03c-1.435-.004-2.596-1.153-2.596-2.57"/></svg>