<svg xmlns="http://www.w3.org/2000/svg" width="27" height="17" fill="none"><path fill="#858586" fill-rule="evenodd" d="M.377.875a1.29 1.29 0 0 1 1.819 0l6.723 6.69c.502.5.502 1.311 0 1.811l-6.723 6.691c-.502.5-1.317.5-1.82 0a1.276 1.276 0 0 1 0-1.81L6.19 8.47.377 2.685a1.276 1.276 0 0 1 0-1.81" clip-rule="evenodd"/><path fill="#858586" d="M12.647 15.2c0-.71.578-1.285 1.291-1.285h11.049c.717 0 1.299.579 1.299 1.292 0 .714-.582 1.293-1.3 1.293h-5.52l-5.531-.015a1.288 1.288 0 0 1-1.288-1.285"/></svg>