<svg xmlns="http://www.w3.org/2000/svg" width="32" height="32" fill="none"><path stroke="#121315" stroke-linecap="round" stroke-linejoin="round" stroke-width="2.667" d="M12 9.333H6.133c-.746 0-1.12 0-1.405.146-.25.127-.455.331-.583.582C4 10.347 4 10.72 4 11.467v14.4c0 .746 0 1.12.145 1.405.128.25.332.455.583.583.285.145.659.145 1.405.145H12m0 0h8m-8 0V6.133c0-.746 0-1.12.145-1.405.128-.25.332-.455.583-.583C13.013 4 13.387 4 14.133 4h3.734c.746 0 1.12 0 1.405.145.25.128.455.332.583.583.145.285.145.659.145 1.405V28m0-13.333h5.867c.746 0 1.12 0 1.405.145.25.128.455.332.583.583.145.285.145.658.145 1.405v9.067c0 .746 0 1.12-.145 1.405-.128.25-.332.455-.583.583-.285.145-.659.145-1.405.145H20"/></svg>