<svg xmlns="http://www.w3.org/2000/svg" width="28" height="28" fill="none"><path stroke="#121315" stroke-linecap="round" stroke-linejoin="round" stroke-width="2.667" d="M26 26H4.133c-.746 0-1.12 0-1.405-.145a1.334 1.334 0 0 1-.583-.583C2 24.987 2 24.613 2 23.867V2m24 5.333-7.246 7.246c-.264.264-.396.396-.548.446a.667.667 0 0 1-.412 0c-.152-.05-.284-.182-.548-.446l-2.492-2.491c-.264-.264-.396-.396-.548-.446a.667.667 0 0 0-.412 0c-.152.05-.284.182-.548.446L7.333 18M26 7.333h-5.333m5.333 0v5.334"/></svg>