<svg width="32" height="32" viewBox="0 0 32 32" fill="none" xmlns="http://www.w3.org/2000/svg">
<path d="M16.0156 31.5C9.66323 31.5 4.5 26.2753 4.5 19.8473V13.9893H27.4999V19.8473C27.5312 26.2753 22.3679 31.5 16.0156 31.5ZM6.534 16.0475V19.8473C6.534 25.1353 10.7898 29.4418 16.0156 29.4418C21.2414 29.4418 25.4972 25.1353 25.4972 19.8473V16.0475H6.534ZM16.0156 26.6553C14.4197 26.6553 13.1054 25.357 13.1054 23.7104V21.7472C13.1054 20.1323 14.4197 18.8024 16.0156 18.8024C17.6115 18.8024 18.9258 20.1323 18.9258 21.7472V23.7104C18.9258 25.357 17.6428 26.6553 16.0156 26.6553ZM15.1394 23.7104C15.1394 24.2171 15.5462 24.6287 16.0469 24.6287C16.5475 24.6287 16.9231 24.2171 16.9231 23.7104V21.7789C16.9231 21.2722 16.5163 20.8606 16.0156 20.8606C15.5149 20.8606 15.1081 21.2722 15.1081 21.7789V23.7104H15.1394ZM23.7135 12.121H21.6795V7.97293C21.6795 4.99642 19.1448 2.55822 16.0156 2.55822C12.8863 2.55822 10.3517 4.96476 10.3517 7.97293V12.1527H8.31766V7.97293C8.31766 3.85649 11.7598 0.499999 16.0156 0.499999C20.2713 0.499999 23.7135 3.85649 23.7135 7.97293V12.121Z" fill="#121212"/>
<path fill-rule="evenodd" clip-rule="evenodd" d="M4.25781 13.7471H27.742V19.8469C27.7736 26.4067 22.5039 31.7422 16.0156 31.7422C9.52678 31.7422 4.25781 26.4063 4.25781 19.8473V13.7471ZM27.4999 19.8473V13.9893H4.5V19.8473C4.5 26.2753 9.66323 31.5 16.0156 31.5C22.3679 31.5 27.5312 26.2753 27.4999 19.8473ZM15.3816 23.4682V23.7104C15.3816 24.086 15.6826 24.3865 16.0469 24.3865C16.4002 24.3865 16.6809 24.0973 16.6809 23.7104V21.7789C16.6809 21.4033 16.3798 21.1028 16.0156 21.1028C15.6513 21.1028 15.3503 21.4033 15.3503 21.7789V23.4682H15.3816ZM15.1394 23.7104C15.1394 24.2171 15.5462 24.6287 16.0469 24.6287C16.5475 24.6287 16.9231 24.2171 16.9231 23.7104V21.7789C16.9231 21.2722 16.5163 20.8606 16.0156 20.8606C15.5149 20.8606 15.1081 21.2722 15.1081 21.7789V23.7104H15.1394ZM23.9557 12.3632H21.4373V7.97293C21.4373 5.13991 19.021 2.80041 16.0156 2.80041C13.0092 2.80041 10.5939 5.10914 10.5939 7.97293V12.3949H8.07548V7.97293C8.07548 3.71632 11.6326 0.257812 16.0156 0.257812C20.3986 0.257812 23.9557 3.71632 23.9557 7.97293V12.3632ZM6.77619 16.2897V19.8473C6.77619 25.0043 10.9262 29.1996 16.0156 29.1996C21.1049 29.1996 25.255 25.0043 25.255 19.8473V16.2897H6.77619ZM6.534 19.8473C6.534 25.1353 10.7898 29.4418 16.0156 29.4418C21.2414 29.4418 25.4972 25.1353 25.4972 19.8473V16.0475H6.534V19.8473ZM16.0156 26.8974C14.2849 26.8974 12.8632 25.4897 12.8632 23.7104V21.7472C12.8632 20.0012 14.2832 18.5602 16.0156 18.5602C17.7479 18.5602 19.1679 20.0012 19.1679 21.7472V23.7104C19.1679 25.488 17.7792 26.8974 16.0156 26.8974ZM13.1054 23.7104C13.1054 25.357 14.4197 26.6553 16.0156 26.6553C17.6428 26.6553 18.9258 25.357 18.9258 23.7104V21.7472C18.9258 20.1323 17.6115 18.8024 16.0156 18.8024C14.4197 18.8024 13.1054 20.1323 13.1054 21.7472V23.7104ZM23.7135 12.121V7.97293C23.7135 3.85649 20.2713 0.499999 16.0156 0.499999C11.7598 0.499999 8.31766 3.85649 8.31766 7.97293V12.1527H10.3517V7.97293C10.3517 4.96476 12.8863 2.55822 16.0156 2.55822C19.1448 2.55822 21.6795 4.99642 21.6795 7.97293V12.121H23.7135Z" fill="#121212"/>
</svg>
