<svg xmlns="http://www.w3.org/2000/svg" width="625" height="279" fill="none"><g stroke="#E7E7E7" stroke-linecap="round" stroke-linejoin="round" stroke-width=".227" clip-path="url(#a)"><path d="M603.79-10.694v377.73M579.723-10.694v377.73M555.655-10.694v377.73M531.586-10.694v377.73M507.518-10.694v377.73M483.45-10.694v377.73M459.381-10.694v377.73M435.315-10.694v377.73M411.247-10.694v377.73M387.178-10.694v377.73M363.11-10.694v377.73M339.042-10.694v377.73M314.973-10.694v377.73M290.907-10.694v377.73M266.838-10.694v377.73M242.77-10.694v377.73M218.702-10.694v377.73M194.633-10.694v377.73M170.565-10.694v377.73M146.499-10.694v377.73M122.43-10.694v377.73M98.362-10.694v377.73M74.294-10.694v377.73M50.225-10.694v377.73M26.157-10.694v377.73M2.088-10.694v377.73M-4.523 18.833h784.051M-4.523 43.27h784.051M-4.523 67.71h784.051M-4.523 92.147h784.051M-4.523 116.585h784.051M-4.523 141.022h784.051M-4.523 165.461h784.051M-4.523 189.898h784.051M-4.523 214.337h784.051M-4.523 238.776h784.051M-4.523 263.213h784.051"/></g><defs><clipPath id="a"><path fill="#fff" d="M-5 0h630v279H-5z"/></clipPath></defs></svg>