<svg width="37" height="32" viewBox="0 0 37 32" fill="none" xmlns="http://www.w3.org/2000/svg">
<mask id="path-1-outside-1_1386_2269" maskUnits="userSpaceOnUse" x="-3.40542" y="-7.71497" width="48.0833" height="48.0833" fill="black">
<rect fill="white" x="-3.40542" y="-7.71497" width="48.0833" height="48.0833"/>
<path d="M30.9181 8.31643C31.4016 7.65839 31.613 6.83941 31.5086 6.02956C31.4041 5.21971 30.9917 4.4812 30.3571 3.96739C29.9854 3.66707 29.5512 3.45386 29.0863 3.34342C28.6214 3.23298 28.1377 3.22813 27.6707 3.32921C27.1534 3.44241 26.6726 3.68312 26.2721 4.02947C25.8715 4.37581 25.5639 4.8168 25.3772 5.31232C25.1905 5.80784 25.1306 6.34218 25.203 6.86674C25.2754 7.3913 25.4778 7.88943 25.7918 8.31584L20.9969 8.31542L16.2014 8.31485C16.685 7.65682 16.8966 6.8378 16.7922 6.02789C16.6877 5.21797 16.2753 4.4794 15.6406 3.96556C15.269 3.66526 14.8348 3.45207 14.3699 3.34165C13.9051 3.23124 13.4214 3.2264 12.9544 3.32751C12.4371 3.4407 11.9563 3.68142 11.5558 4.02777C11.1552 4.37411 10.8476 4.8151 10.6609 5.31062C10.4742 5.80614 10.4143 6.34048 10.4867 6.86504C10.5591 7.38959 10.7615 7.88773 11.0755 8.31414L6.28025 8.31385C6.10934 8.31866 5.94675 8.3887 5.82586 8.50959C5.70496 8.63049 5.63492 8.79308 5.63012 8.96399L5.63066 13.759C5.20428 13.445 4.70618 13.2426 4.18166 13.1702C3.65714 13.0978 3.12283 13.1576 2.62733 13.3443C2.13183 13.5309 1.69085 13.8385 1.3445 14.239C0.998141 14.6395 0.757399 15.1203 0.644161 15.6375C0.542463 16.1023 0.54621 16.5839 0.655126 17.047C0.764042 17.5101 0.975358 17.9429 1.27354 18.3136C1.57172 18.6843 1.94919 18.9834 2.37819 19.1891C2.8072 19.3947 3.27683 19.5016 3.75257 19.5018C4.42861 19.5026 5.08705 19.2864 5.63114 18.8851L5.63196 23.6804C5.63197 23.8529 5.70051 24.0184 5.8225 24.1404C5.9445 24.2624 6.10996 24.3309 6.28248 24.3309L11.077 24.3315C10.7632 24.7581 10.5611 25.2563 10.4889 25.7809C10.4167 26.3055 10.4767 26.8398 10.6636 27.3353C10.8504 27.8307 11.1581 28.2717 11.5587 28.618C11.9592 28.9643 12.44 29.2051 12.9573 29.3183C13.4219 29.4202 13.9034 29.4166 14.3664 29.3078C14.8295 29.199 15.2622 28.9878 15.6328 28.6897C16.0035 28.3916 16.3026 28.0142 16.5081 27.5853C16.7136 27.1563 16.8204 26.6868 16.8205 26.2111C16.8211 25.5349 16.6048 24.8764 16.2034 24.3322L20.9987 24.3326L25.7947 24.3332C25.5217 24.7074 25.3329 25.1362 25.2414 25.5903C25.15 26.0444 25.1579 26.5129 25.2648 26.9636C25.4017 27.5444 25.7008 28.0743 26.1273 28.4915C26.5539 28.9087 27.0902 29.1962 27.6738 29.3202C28.1384 29.422 28.6199 29.4184 29.0829 29.3096C29.5459 29.2008 29.9786 28.9895 30.3493 28.6915C30.7199 28.3934 31.0189 28.016 31.2245 27.5871C31.43 27.1581 31.5368 26.6886 31.5369 26.213C31.5375 25.5367 31.3211 24.878 30.9196 24.3338L35.7154 24.3342C35.8878 24.3342 36.0532 24.2657 36.1751 24.1437C36.297 24.0218 36.3655 23.8565 36.3655 23.6841L36.3648 18.1654C36.3648 17.9929 36.2962 17.8274 36.1742 17.7054C36.0522 17.5834 35.8868 17.5149 35.7143 17.5149L34.9173 17.5148C34.7516 17.5147 34.5921 17.578 34.4715 17.6916C34.2046 17.9437 33.8698 18.112 33.5083 18.1759C33.1468 18.2398 32.7745 18.1964 32.4374 18.0511C32.1003 17.9058 31.8132 17.6649 31.6114 17.3583C31.4097 17.0516 31.3022 16.6925 31.3022 16.3255C31.3022 15.9584 31.4097 15.5993 31.6115 15.2927C31.8132 14.986 32.1004 14.7452 32.4375 14.5999C32.7746 14.4546 33.1469 14.4112 33.5083 14.4751C33.8698 14.539 34.2047 14.7074 34.4715 14.9594C34.5922 15.073 34.7517 15.1363 34.9174 15.1364L35.7144 15.1365C35.8853 15.1316 36.0478 15.0616 36.1687 14.9407C36.2896 14.8198 36.3597 14.6572 36.3645 14.4863L36.3637 8.96765C36.3637 8.79512 36.2952 8.62967 36.1732 8.50767C36.0512 8.38568 35.8857 8.31713 35.7132 8.31712L30.9181 8.31643ZM15.4798 23.0313C15.3074 23.0313 15.142 23.0998 15.0201 23.2218C14.8982 23.3437 14.8297 23.509 14.8297 23.6815L14.8298 24.4784C14.8296 24.6443 14.893 24.8039 15.007 24.9245C15.2593 25.1915 15.4279 25.5265 15.4919 25.8883C15.5559 26.25 15.5125 26.6226 15.3671 26.9599C15.2218 27.2973 14.9808 27.5846 14.6739 27.7865C14.367 27.9884 14.0077 28.096 13.6403 28.096C13.273 28.0959 12.9137 27.9883 12.6068 27.7863C12.3 27.5843 12.059 27.2969 11.9138 26.9595C11.7685 26.6221 11.7252 26.2496 11.7893 25.8878C11.8534 25.5261 12.022 25.1911 12.2744 24.9242C12.388 24.8036 12.4513 24.6441 12.4512 24.4784L12.4512 23.6814C12.4511 23.5089 12.3826 23.3434 12.2606 23.2215C12.1386 23.0995 11.9732 23.0309 11.8006 23.0309L6.93268 23.0302L6.93187 18.1621C6.93185 17.9896 6.86331 17.8242 6.74132 17.7022C6.61932 17.5802 6.45386 17.5116 6.28133 17.5116L5.48441 17.5115C5.31868 17.5115 5.15919 17.5747 5.03856 17.6884C4.77159 17.941 4.43644 18.1098 4.07455 18.174C3.71266 18.2383 3.33989 18.195 3.0023 18.0497C2.66471 17.9044 2.3771 17.6633 2.17501 17.3563C1.97293 17.0493 1.86522 16.6898 1.86522 16.3223C1.86521 15.9547 1.97289 15.5952 2.17496 15.2882C2.37704 14.9812 2.66463 14.7401 3.00222 14.5948C3.3398 14.4495 3.71258 14.4062 4.07447 14.4704C4.43636 14.5346 4.77151 14.7034 5.0385 14.956C5.15912 15.0698 5.31869 15.1332 5.4845 15.1331L6.28142 15.1332C6.45233 15.1284 6.61492 15.0584 6.73582 14.9375C6.85671 14.8166 6.92675 14.654 6.93156 14.4831L6.93088 9.61462L11.7996 9.61504C11.885 9.61505 11.9695 9.59824 12.0484 9.56557C12.1273 9.5329 12.1989 9.48501 12.2593 9.42464C12.3197 9.36427 12.3676 9.29259 12.4002 9.21371C12.4329 9.13483 12.4497 9.05029 12.4497 8.96491L12.4496 8.16799C12.4497 8.00217 12.3863 7.84261 12.2726 7.72199C12.0206 7.45511 11.8522 7.12026 11.7884 6.7588C11.7246 6.39734 11.768 6.0251 11.9133 5.68804C12.0587 5.35098 12.2995 5.06387 12.6062 4.86217C12.9129 4.66046 13.2719 4.55299 13.639 4.55303C14.006 4.55308 14.365 4.66063 14.6716 4.8624C14.9783 5.06418 15.2191 5.35134 15.3643 5.68843C15.5096 6.02552 15.5529 6.39778 15.489 6.75922C15.4251 7.12067 15.2567 7.45548 15.0046 7.7223C14.891 7.84293 14.8277 8.00242 14.8278 8.16815L14.8279 8.96507C14.8279 9.1376 14.8964 9.30306 15.0184 9.42505C15.1404 9.54705 15.3059 9.61559 15.4784 9.6156L20.3467 9.61617L20.3471 13.7613C19.6892 13.2776 18.8704 13.0659 18.0605 13.1702C17.2507 13.2744 16.5121 13.6866 15.9982 14.3211C15.6978 14.6927 15.4847 15.127 15.3743 15.592C15.264 16.0569 15.2594 16.5407 15.3607 17.0076C15.474 17.5249 15.7148 18.0057 16.0611 18.4063C16.4075 18.8069 16.8485 19.1145 17.344 19.3013C17.8396 19.4881 18.3739 19.548 18.8985 19.4757C19.4231 19.4035 19.9213 19.2012 20.3479 18.8874L20.348 21.071L20.3481 23.0319L15.4798 23.0313ZM35.0637 13.7629C34.4058 13.2792 33.5868 13.0676 32.777 13.1719C31.9671 13.2761 31.2285 13.6883 30.7144 14.3227C30.4141 14.6944 30.2009 15.1287 30.0906 15.5937C29.9803 16.0586 29.9757 16.5424 30.077 17.0093C30.1903 17.5266 30.4311 18.0074 30.7775 18.4079C31.1239 18.8085 31.5649 19.1161 32.0604 19.3029C32.5559 19.4897 33.0902 19.5496 33.6148 19.4774C34.1394 19.4051 34.6376 19.2029 35.0642 18.8891L35.0648 23.0335L30.1961 23.0331C30.1107 23.033 30.0262 23.0499 29.9473 23.0825C29.8684 23.1152 29.7968 23.1631 29.7364 23.2235C29.676 23.2838 29.6281 23.3555 29.5955 23.4344C29.5628 23.5133 29.546 23.5978 29.546 23.6832L29.546 24.4801C29.5459 24.646 29.6093 24.8056 29.7232 24.9262C29.9756 25.1932 30.1443 25.5282 30.2083 25.89C30.2724 26.2518 30.229 26.6244 30.0836 26.9618C29.9383 27.2992 29.6972 27.5866 29.3903 27.7885C29.0834 27.9904 28.724 28.098 28.3566 28.098C27.9892 28.0979 27.6299 27.9902 27.3231 27.7882C27.0162 27.5862 26.7753 27.2987 26.63 26.9612C26.4847 26.6238 26.4415 26.2512 26.5057 25.8894C26.5698 25.5277 26.7386 25.1927 26.991 24.9258C27.1046 24.8051 27.1679 24.6456 27.1679 24.4799L27.1678 23.683C27.1678 23.5105 27.0993 23.345 26.9773 23.223C26.8553 23.101 26.6898 23.0325 26.5173 23.0325L21.6489 23.0319L21.6485 18.1637C21.6485 17.9912 21.58 17.8257 21.458 17.7037C21.336 17.5817 21.1705 17.5132 20.998 17.5132L20.201 17.5131C20.0353 17.513 19.8758 17.5763 19.7552 17.6899C19.4884 17.9421 19.1535 18.1106 18.792 18.1746C18.4305 18.2386 18.0581 18.1953 17.7209 18.05C17.3837 17.9048 17.0965 17.664 16.8946 17.3573C16.6928 17.0506 16.5852 16.6916 16.5851 16.3244C16.585 15.9573 16.6925 15.5982 16.8942 15.2914C17.0959 14.9846 17.3831 14.7437 17.7202 14.5983C18.0573 14.4529 18.4297 14.4095 18.7912 14.4733C19.1528 14.5372 19.4877 14.7055 19.7546 14.9576C19.8752 15.0716 20.0349 15.135 20.2008 15.1348L20.9977 15.1349C21.0831 15.1349 21.1676 15.1181 21.2465 15.0854C21.3254 15.0527 21.397 15.0048 21.4574 14.9445C21.5178 14.8841 21.5657 14.8124 21.5983 14.7336C21.631 14.6547 21.6478 14.5701 21.6478 14.4848L21.6475 9.61617L26.5159 9.61672C26.6883 9.61665 26.8536 9.54813 26.9755 9.42622C27.0974 9.30431 27.1659 9.13899 27.166 8.96659L27.1659 8.16967C27.166 8.00386 27.1026 7.84429 26.9888 7.72367C26.7369 7.45679 26.5687 7.12197 26.5049 6.76056C26.4411 6.39915 26.4846 6.02697 26.6299 5.68998C26.7752 5.35298 27.0161 5.06593 27.3227 4.86426C27.6293 4.66259 27.9883 4.55514 28.3553 4.55516C28.7223 4.55519 29.0812 4.66269 29.3878 4.8644C29.6944 5.06612 29.9352 5.3532 30.0805 5.69022C30.2258 6.02723 30.2692 6.39941 30.2053 6.76082C30.1415 7.12222 29.9732 7.45701 29.7213 7.72386C29.6076 7.84448 29.5444 8.00397 29.5444 8.1697L29.5445 8.96662C29.5445 9.13915 29.6131 9.30461 29.7351 9.4266C29.8571 9.54859 30.0225 9.61713 30.195 9.61714L35.063 9.61782L35.0637 13.7629Z"/>
</mask>
<path d="M30.9181 8.31643C31.4016 7.65839 31.613 6.83941 31.5086 6.02956C31.4041 5.21971 30.9917 4.4812 30.3571 3.96739C29.9854 3.66707 29.5512 3.45386 29.0863 3.34342C28.6214 3.23298 28.1377 3.22813 27.6707 3.32921C27.1534 3.44241 26.6726 3.68312 26.2721 4.02947C25.8715 4.37581 25.5639 4.8168 25.3772 5.31232C25.1905 5.80784 25.1306 6.34218 25.203 6.86674C25.2754 7.3913 25.4778 7.88943 25.7918 8.31584L20.9969 8.31542L16.2014 8.31485C16.685 7.65682 16.8966 6.8378 16.7922 6.02789C16.6877 5.21797 16.2753 4.4794 15.6406 3.96556C15.269 3.66526 14.8348 3.45207 14.3699 3.34165C13.9051 3.23124 13.4214 3.2264 12.9544 3.32751C12.4371 3.4407 11.9563 3.68142 11.5558 4.02777C11.1552 4.37411 10.8476 4.8151 10.6609 5.31062C10.4742 5.80614 10.4143 6.34048 10.4867 6.86504C10.5591 7.38959 10.7615 7.88773 11.0755 8.31414L6.28025 8.31385C6.10934 8.31866 5.94675 8.3887 5.82586 8.50959C5.70496 8.63049 5.63492 8.79308 5.63012 8.96399L5.63066 13.759C5.20428 13.445 4.70618 13.2426 4.18166 13.1702C3.65714 13.0978 3.12283 13.1576 2.62733 13.3443C2.13183 13.5309 1.69085 13.8385 1.3445 14.239C0.998141 14.6395 0.757399 15.1203 0.644161 15.6375C0.542463 16.1023 0.54621 16.5839 0.655126 17.047C0.764042 17.5101 0.975358 17.9429 1.27354 18.3136C1.57172 18.6843 1.94919 18.9834 2.37819 19.1891C2.8072 19.3947 3.27683 19.5016 3.75257 19.5018C4.42861 19.5026 5.08705 19.2864 5.63114 18.8851L5.63196 23.6804C5.63197 23.8529 5.70051 24.0184 5.8225 24.1404C5.9445 24.2624 6.10996 24.3309 6.28248 24.3309L11.077 24.3315C10.7632 24.7581 10.5611 25.2563 10.4889 25.7809C10.4167 26.3055 10.4767 26.8398 10.6636 27.3353C10.8504 27.8307 11.1581 28.2717 11.5587 28.618C11.9592 28.9643 12.44 29.2051 12.9573 29.3183C13.4219 29.4202 13.9034 29.4166 14.3664 29.3078C14.8295 29.199 15.2622 28.9878 15.6328 28.6897C16.0035 28.3916 16.3026 28.0142 16.5081 27.5853C16.7136 27.1563 16.8204 26.6868 16.8205 26.2111C16.8211 25.5349 16.6048 24.8764 16.2034 24.3322L20.9987 24.3326L25.7947 24.3332C25.5217 24.7074 25.3329 25.1362 25.2414 25.5903C25.15 26.0444 25.1579 26.5129 25.2648 26.9636C25.4017 27.5444 25.7008 28.0743 26.1273 28.4915C26.5539 28.9087 27.0902 29.1962 27.6738 29.3202C28.1384 29.422 28.6199 29.4184 29.0829 29.3096C29.5459 29.2008 29.9786 28.9895 30.3493 28.6915C30.7199 28.3934 31.0189 28.016 31.2245 27.5871C31.43 27.1581 31.5368 26.6886 31.5369 26.213C31.5375 25.5367 31.3211 24.878 30.9196 24.3338L35.7154 24.3342C35.8878 24.3342 36.0532 24.2657 36.1751 24.1437C36.297 24.0218 36.3655 23.8565 36.3655 23.6841L36.3648 18.1654C36.3648 17.9929 36.2962 17.8274 36.1742 17.7054C36.0522 17.5834 35.8868 17.5149 35.7143 17.5149L34.9173 17.5148C34.7516 17.5147 34.5921 17.578 34.4715 17.6916C34.2046 17.9437 33.8698 18.112 33.5083 18.1759C33.1468 18.2398 32.7745 18.1964 32.4374 18.0511C32.1003 17.9058 31.8132 17.6649 31.6114 17.3583C31.4097 17.0516 31.3022 16.6925 31.3022 16.3255C31.3022 15.9584 31.4097 15.5993 31.6115 15.2927C31.8132 14.986 32.1004 14.7452 32.4375 14.5999C32.7746 14.4546 33.1469 14.4112 33.5083 14.4751C33.8698 14.539 34.2047 14.7074 34.4715 14.9594C34.5922 15.073 34.7517 15.1363 34.9174 15.1364L35.7144 15.1365C35.8853 15.1316 36.0478 15.0616 36.1687 14.9407C36.2896 14.8198 36.3597 14.6572 36.3645 14.4863L36.3637 8.96765C36.3637 8.79512 36.2952 8.62967 36.1732 8.50767C36.0512 8.38568 35.8857 8.31713 35.7132 8.31712L30.9181 8.31643ZM15.4798 23.0313C15.3074 23.0313 15.142 23.0998 15.0201 23.2218C14.8982 23.3437 14.8297 23.509 14.8297 23.6815L14.8298 24.4784C14.8296 24.6443 14.893 24.8039 15.007 24.9245C15.2593 25.1915 15.4279 25.5265 15.4919 25.8883C15.5559 26.25 15.5125 26.6226 15.3671 26.9599C15.2218 27.2973 14.9808 27.5846 14.6739 27.7865C14.367 27.9884 14.0077 28.096 13.6403 28.096C13.273 28.0959 12.9137 27.9883 12.6068 27.7863C12.3 27.5843 12.059 27.2969 11.9138 26.9595C11.7685 26.6221 11.7252 26.2496 11.7893 25.8878C11.8534 25.5261 12.022 25.1911 12.2744 24.9242C12.388 24.8036 12.4513 24.6441 12.4512 24.4784L12.4512 23.6814C12.4511 23.5089 12.3826 23.3434 12.2606 23.2215C12.1386 23.0995 11.9732 23.0309 11.8006 23.0309L6.93268 23.0302L6.93187 18.1621C6.93185 17.9896 6.86331 17.8242 6.74132 17.7022C6.61932 17.5802 6.45386 17.5116 6.28133 17.5116L5.48441 17.5115C5.31868 17.5115 5.15919 17.5747 5.03856 17.6884C4.77159 17.941 4.43644 18.1098 4.07455 18.174C3.71266 18.2383 3.33989 18.195 3.0023 18.0497C2.66471 17.9044 2.3771 17.6633 2.17501 17.3563C1.97293 17.0493 1.86522 16.6898 1.86522 16.3223C1.86521 15.9547 1.97289 15.5952 2.17496 15.2882C2.37704 14.9812 2.66463 14.7401 3.00222 14.5948C3.3398 14.4495 3.71258 14.4062 4.07447 14.4704C4.43636 14.5346 4.77151 14.7034 5.0385 14.956C5.15912 15.0698 5.31869 15.1332 5.4845 15.1331L6.28142 15.1332C6.45233 15.1284 6.61492 15.0584 6.73582 14.9375C6.85671 14.8166 6.92675 14.654 6.93156 14.4831L6.93088 9.61462L11.7996 9.61504C11.885 9.61505 11.9695 9.59824 12.0484 9.56557C12.1273 9.5329 12.1989 9.48501 12.2593 9.42464C12.3197 9.36427 12.3676 9.29259 12.4002 9.21371C12.4329 9.13483 12.4497 9.05029 12.4497 8.96491L12.4496 8.16799C12.4497 8.00217 12.3863 7.84261 12.2726 7.72199C12.0206 7.45511 11.8522 7.12026 11.7884 6.7588C11.7246 6.39734 11.768 6.0251 11.9133 5.68804C12.0587 5.35098 12.2995 5.06387 12.6062 4.86217C12.9129 4.66046 13.2719 4.55299 13.639 4.55303C14.006 4.55308 14.365 4.66063 14.6716 4.8624C14.9783 5.06418 15.2191 5.35134 15.3643 5.68843C15.5096 6.02552 15.5529 6.39778 15.489 6.75922C15.4251 7.12067 15.2567 7.45548 15.0046 7.7223C14.891 7.84293 14.8277 8.00242 14.8278 8.16815L14.8279 8.96507C14.8279 9.1376 14.8964 9.30306 15.0184 9.42505C15.1404 9.54705 15.3059 9.61559 15.4784 9.6156L20.3467 9.61617L20.3471 13.7613C19.6892 13.2776 18.8704 13.0659 18.0605 13.1702C17.2507 13.2744 16.5121 13.6866 15.9982 14.3211C15.6978 14.6927 15.4847 15.127 15.3743 15.592C15.264 16.0569 15.2594 16.5407 15.3607 17.0076C15.474 17.5249 15.7148 18.0057 16.0611 18.4063C16.4075 18.8069 16.8485 19.1145 17.344 19.3013C17.8396 19.4881 18.3739 19.548 18.8985 19.4757C19.4231 19.4035 19.9213 19.2012 20.3479 18.8874L20.348 21.071L20.3481 23.0319L15.4798 23.0313ZM35.0637 13.7629C34.4058 13.2792 33.5868 13.0676 32.777 13.1719C31.9671 13.2761 31.2285 13.6883 30.7144 14.3227C30.4141 14.6944 30.2009 15.1287 30.0906 15.5937C29.9803 16.0586 29.9757 16.5424 30.077 17.0093C30.1903 17.5266 30.4311 18.0074 30.7775 18.4079C31.1239 18.8085 31.5649 19.1161 32.0604 19.3029C32.5559 19.4897 33.0902 19.5496 33.6148 19.4774C34.1394 19.4051 34.6376 19.2029 35.0642 18.8891L35.0648 23.0335L30.1961 23.0331C30.1107 23.033 30.0262 23.0499 29.9473 23.0825C29.8684 23.1152 29.7968 23.1631 29.7364 23.2235C29.676 23.2838 29.6281 23.3555 29.5955 23.4344C29.5628 23.5133 29.546 23.5978 29.546 23.6832L29.546 24.4801C29.5459 24.646 29.6093 24.8056 29.7232 24.9262C29.9756 25.1932 30.1443 25.5282 30.2083 25.89C30.2724 26.2518 30.229 26.6244 30.0836 26.9618C29.9383 27.2992 29.6972 27.5866 29.3903 27.7885C29.0834 27.9904 28.724 28.098 28.3566 28.098C27.9892 28.0979 27.6299 27.9902 27.3231 27.7882C27.0162 27.5862 26.7753 27.2987 26.63 26.9612C26.4847 26.6238 26.4415 26.2512 26.5057 25.8894C26.5698 25.5277 26.7386 25.1927 26.991 24.9258C27.1046 24.8051 27.1679 24.6456 27.1679 24.4799L27.1678 23.683C27.1678 23.5105 27.0993 23.345 26.9773 23.223C26.8553 23.101 26.6898 23.0325 26.5173 23.0325L21.6489 23.0319L21.6485 18.1637C21.6485 17.9912 21.58 17.8257 21.458 17.7037C21.336 17.5817 21.1705 17.5132 20.998 17.5132L20.201 17.5131C20.0353 17.513 19.8758 17.5763 19.7552 17.6899C19.4884 17.9421 19.1535 18.1106 18.792 18.1746C18.4305 18.2386 18.0581 18.1953 17.7209 18.05C17.3837 17.9048 17.0965 17.664 16.8946 17.3573C16.6928 17.0506 16.5852 16.6916 16.5851 16.3244C16.585 15.9573 16.6925 15.5982 16.8942 15.2914C17.0959 14.9846 17.3831 14.7437 17.7202 14.5983C18.0573 14.4529 18.4297 14.4095 18.7912 14.4733C19.1528 14.5372 19.4877 14.7055 19.7546 14.9576C19.8752 15.0716 20.0349 15.135 20.2008 15.1348L20.9977 15.1349C21.0831 15.1349 21.1676 15.1181 21.2465 15.0854C21.3254 15.0527 21.397 15.0048 21.4574 14.9445C21.5178 14.8841 21.5657 14.8124 21.5983 14.7336C21.631 14.6547 21.6478 14.5701 21.6478 14.4848L21.6475 9.61617L26.5159 9.61672C26.6883 9.61665 26.8536 9.54813 26.9755 9.42622C27.0974 9.30431 27.1659 9.13899 27.166 8.96659L27.1659 8.16967C27.166 8.00386 27.1026 7.84429 26.9888 7.72367C26.7369 7.45679 26.5687 7.12197 26.5049 6.76056C26.4411 6.39915 26.4846 6.02697 26.6299 5.68998C26.7752 5.35298 27.0161 5.06593 27.3227 4.86426C27.6293 4.66259 27.9883 4.55514 28.3553 4.55516C28.7223 4.55519 29.0812 4.66269 29.3878 4.8644C29.6944 5.06612 29.9352 5.3532 30.0805 5.69022C30.2258 6.02723 30.2692 6.39941 30.2053 6.76082C30.1415 7.12222 29.9732 7.45701 29.7213 7.72386C29.6076 7.84448 29.5444 8.00397 29.5444 8.1697L29.5445 8.96662C29.5445 9.13915 29.6131 9.30461 29.7351 9.4266C29.8571 9.54859 30.0225 9.61713 30.195 9.61714L35.063 9.61782L35.0637 13.7629Z" fill="#121212"/>
<path d="M30.9181 8.31643C31.4016 7.65839 31.613 6.83941 31.5086 6.02956C31.4041 5.21971 30.9917 4.4812 30.3571 3.96739C29.9854 3.66707 29.5512 3.45386 29.0863 3.34342C28.6214 3.23298 28.1377 3.22813 27.6707 3.32921C27.1534 3.44241 26.6726 3.68312 26.2721 4.02947C25.8715 4.37581 25.5639 4.8168 25.3772 5.31232C25.1905 5.80784 25.1306 6.34218 25.203 6.86674C25.2754 7.3913 25.4778 7.88943 25.7918 8.31584L20.9969 8.31542L16.2014 8.31485C16.685 7.65682 16.8966 6.8378 16.7922 6.02789C16.6877 5.21797 16.2753 4.4794 15.6406 3.96556C15.269 3.66526 14.8348 3.45207 14.3699 3.34165C13.9051 3.23124 13.4214 3.2264 12.9544 3.32751C12.4371 3.4407 11.9563 3.68142 11.5558 4.02777C11.1552 4.37411 10.8476 4.8151 10.6609 5.31062C10.4742 5.80614 10.4143 6.34048 10.4867 6.86504C10.5591 7.38959 10.7615 7.88773 11.0755 8.31414L6.28025 8.31385C6.10934 8.31866 5.94675 8.3887 5.82586 8.50959C5.70496 8.63049 5.63492 8.79308 5.63012 8.96399L5.63066 13.759C5.20428 13.445 4.70618 13.2426 4.18166 13.1702C3.65714 13.0978 3.12283 13.1576 2.62733 13.3443C2.13183 13.5309 1.69085 13.8385 1.3445 14.239C0.998141 14.6395 0.757399 15.1203 0.644161 15.6375C0.542463 16.1023 0.54621 16.5839 0.655126 17.047C0.764042 17.5101 0.975358 17.9429 1.27354 18.3136C1.57172 18.6843 1.94919 18.9834 2.37819 19.1891C2.8072 19.3947 3.27683 19.5016 3.75257 19.5018C4.42861 19.5026 5.08705 19.2864 5.63114 18.8851L5.63196 23.6804C5.63197 23.8529 5.70051 24.0184 5.8225 24.1404C5.9445 24.2624 6.10996 24.3309 6.28248 24.3309L11.077 24.3315C10.7632 24.7581 10.5611 25.2563 10.4889 25.7809C10.4167 26.3055 10.4767 26.8398 10.6636 27.3353C10.8504 27.8307 11.1581 28.2717 11.5587 28.618C11.9592 28.9643 12.44 29.2051 12.9573 29.3183C13.4219 29.4202 13.9034 29.4166 14.3664 29.3078C14.8295 29.199 15.2622 28.9878 15.6328 28.6897C16.0035 28.3916 16.3026 28.0142 16.5081 27.5853C16.7136 27.1563 16.8204 26.6868 16.8205 26.2111C16.8211 25.5349 16.6048 24.8764 16.2034 24.3322L20.9987 24.3326L25.7947 24.3332C25.5217 24.7074 25.3329 25.1362 25.2414 25.5903C25.15 26.0444 25.1579 26.5129 25.2648 26.9636C25.4017 27.5444 25.7008 28.0743 26.1273 28.4915C26.5539 28.9087 27.0902 29.1962 27.6738 29.3202C28.1384 29.422 28.6199 29.4184 29.0829 29.3096C29.5459 29.2008 29.9786 28.9895 30.3493 28.6915C30.7199 28.3934 31.0189 28.016 31.2245 27.5871C31.43 27.1581 31.5368 26.6886 31.5369 26.213C31.5375 25.5367 31.3211 24.878 30.9196 24.3338L35.7154 24.3342C35.8878 24.3342 36.0532 24.2657 36.1751 24.1437C36.297 24.0218 36.3655 23.8565 36.3655 23.6841L36.3648 18.1654C36.3648 17.9929 36.2962 17.8274 36.1742 17.7054C36.0522 17.5834 35.8868 17.5149 35.7143 17.5149L34.9173 17.5148C34.7516 17.5147 34.5921 17.578 34.4715 17.6916C34.2046 17.9437 33.8698 18.112 33.5083 18.1759C33.1468 18.2398 32.7745 18.1964 32.4374 18.0511C32.1003 17.9058 31.8132 17.6649 31.6114 17.3583C31.4097 17.0516 31.3022 16.6925 31.3022 16.3255C31.3022 15.9584 31.4097 15.5993 31.6115 15.2927C31.8132 14.986 32.1004 14.7452 32.4375 14.5999C32.7746 14.4546 33.1469 14.4112 33.5083 14.4751C33.8698 14.539 34.2047 14.7074 34.4715 14.9594C34.5922 15.073 34.7517 15.1363 34.9174 15.1364L35.7144 15.1365C35.8853 15.1316 36.0478 15.0616 36.1687 14.9407C36.2896 14.8198 36.3597 14.6572 36.3645 14.4863L36.3637 8.96765C36.3637 8.79512 36.2952 8.62967 36.1732 8.50767C36.0512 8.38568 35.8857 8.31713 35.7132 8.31712L30.9181 8.31643ZM15.4798 23.0313C15.3074 23.0313 15.142 23.0998 15.0201 23.2218C14.8982 23.3437 14.8297 23.509 14.8297 23.6815L14.8298 24.4784C14.8296 24.6443 14.893 24.8039 15.007 24.9245C15.2593 25.1915 15.4279 25.5265 15.4919 25.8883C15.5559 26.25 15.5125 26.6226 15.3671 26.9599C15.2218 27.2973 14.9808 27.5846 14.6739 27.7865C14.367 27.9884 14.0077 28.096 13.6403 28.096C13.273 28.0959 12.9137 27.9883 12.6068 27.7863C12.3 27.5843 12.059 27.2969 11.9138 26.9595C11.7685 26.6221 11.7252 26.2496 11.7893 25.8878C11.8534 25.5261 12.022 25.1911 12.2744 24.9242C12.388 24.8036 12.4513 24.6441 12.4512 24.4784L12.4512 23.6814C12.4511 23.5089 12.3826 23.3434 12.2606 23.2215C12.1386 23.0995 11.9732 23.0309 11.8006 23.0309L6.93268 23.0302L6.93187 18.1621C6.93185 17.9896 6.86331 17.8242 6.74132 17.7022C6.61932 17.5802 6.45386 17.5116 6.28133 17.5116L5.48441 17.5115C5.31868 17.5115 5.15919 17.5747 5.03856 17.6884C4.77159 17.941 4.43644 18.1098 4.07455 18.174C3.71266 18.2383 3.33989 18.195 3.0023 18.0497C2.66471 17.9044 2.3771 17.6633 2.17501 17.3563C1.97293 17.0493 1.86522 16.6898 1.86522 16.3223C1.86521 15.9547 1.97289 15.5952 2.17496 15.2882C2.37704 14.9812 2.66463 14.7401 3.00222 14.5948C3.3398 14.4495 3.71258 14.4062 4.07447 14.4704C4.43636 14.5346 4.77151 14.7034 5.0385 14.956C5.15912 15.0698 5.31869 15.1332 5.4845 15.1331L6.28142 15.1332C6.45233 15.1284 6.61492 15.0584 6.73582 14.9375C6.85671 14.8166 6.92675 14.654 6.93156 14.4831L6.93088 9.61462L11.7996 9.61504C11.885 9.61505 11.9695 9.59824 12.0484 9.56557C12.1273 9.5329 12.1989 9.48501 12.2593 9.42464C12.3197 9.36427 12.3676 9.29259 12.4002 9.21371C12.4329 9.13483 12.4497 9.05029 12.4497 8.96491L12.4496 8.16799C12.4497 8.00217 12.3863 7.84261 12.2726 7.72199C12.0206 7.45511 11.8522 7.12026 11.7884 6.7588C11.7246 6.39734 11.768 6.0251 11.9133 5.68804C12.0587 5.35098 12.2995 5.06387 12.6062 4.86217C12.9129 4.66046 13.2719 4.55299 13.639 4.55303C14.006 4.55308 14.365 4.66063 14.6716 4.8624C14.9783 5.06418 15.2191 5.35134 15.3643 5.68843C15.5096 6.02552 15.5529 6.39778 15.489 6.75922C15.4251 7.12067 15.2567 7.45548 15.0046 7.7223C14.891 7.84293 14.8277 8.00242 14.8278 8.16815L14.8279 8.96507C14.8279 9.1376 14.8964 9.30306 15.0184 9.42505C15.1404 9.54705 15.3059 9.61559 15.4784 9.6156L20.3467 9.61617L20.3471 13.7613C19.6892 13.2776 18.8704 13.0659 18.0605 13.1702C17.2507 13.2744 16.5121 13.6866 15.9982 14.3211C15.6978 14.6927 15.4847 15.127 15.3743 15.592C15.264 16.0569 15.2594 16.5407 15.3607 17.0076C15.474 17.5249 15.7148 18.0057 16.0611 18.4063C16.4075 18.8069 16.8485 19.1145 17.344 19.3013C17.8396 19.4881 18.3739 19.548 18.8985 19.4757C19.4231 19.4035 19.9213 19.2012 20.3479 18.8874L20.348 21.071L20.3481 23.0319L15.4798 23.0313ZM35.0637 13.7629C34.4058 13.2792 33.5868 13.0676 32.777 13.1719C31.9671 13.2761 31.2285 13.6883 30.7144 14.3227C30.4141 14.6944 30.2009 15.1287 30.0906 15.5937C29.9803 16.0586 29.9757 16.5424 30.077 17.0093C30.1903 17.5266 30.4311 18.0074 30.7775 18.4079C31.1239 18.8085 31.5649 19.1161 32.0604 19.3029C32.5559 19.4897 33.0902 19.5496 33.6148 19.4774C34.1394 19.4051 34.6376 19.2029 35.0642 18.8891L35.0648 23.0335L30.1961 23.0331C30.1107 23.033 30.0262 23.0499 29.9473 23.0825C29.8684 23.1152 29.7968 23.1631 29.7364 23.2235C29.676 23.2838 29.6281 23.3555 29.5955 23.4344C29.5628 23.5133 29.546 23.5978 29.546 23.6832L29.546 24.4801C29.5459 24.646 29.6093 24.8056 29.7232 24.9262C29.9756 25.1932 30.1443 25.5282 30.2083 25.89C30.2724 26.2518 30.229 26.6244 30.0836 26.9618C29.9383 27.2992 29.6972 27.5866 29.3903 27.7885C29.0834 27.9904 28.724 28.098 28.3566 28.098C27.9892 28.0979 27.6299 27.9902 27.3231 27.7882C27.0162 27.5862 26.7753 27.2987 26.63 26.9612C26.4847 26.6238 26.4415 26.2512 26.5057 25.8894C26.5698 25.5277 26.7386 25.1927 26.991 24.9258C27.1046 24.8051 27.1679 24.6456 27.1679 24.4799L27.1678 23.683C27.1678 23.5105 27.0993 23.345 26.9773 23.223C26.8553 23.101 26.6898 23.0325 26.5173 23.0325L21.6489 23.0319L21.6485 18.1637C21.6485 17.9912 21.58 17.8257 21.458 17.7037C21.336 17.5817 21.1705 17.5132 20.998 17.5132L20.201 17.5131C20.0353 17.513 19.8758 17.5763 19.7552 17.6899C19.4884 17.9421 19.1535 18.1106 18.792 18.1746C18.4305 18.2386 18.0581 18.1953 17.7209 18.05C17.3837 17.9048 17.0965 17.664 16.8946 17.3573C16.6928 17.0506 16.5852 16.6916 16.5851 16.3244C16.585 15.9573 16.6925 15.5982 16.8942 15.2914C17.0959 14.9846 17.3831 14.7437 17.7202 14.5983C18.0573 14.4529 18.4297 14.4095 18.7912 14.4733C19.1528 14.5372 19.4877 14.7055 19.7546 14.9576C19.8752 15.0716 20.0349 15.135 20.2008 15.1348L20.9977 15.1349C21.0831 15.1349 21.1676 15.1181 21.2465 15.0854C21.3254 15.0527 21.397 15.0048 21.4574 14.9445C21.5178 14.8841 21.5657 14.8124 21.5983 14.7336C21.631 14.6547 21.6478 14.5701 21.6478 14.4848L21.6475 9.61617L26.5159 9.61672C26.6883 9.61665 26.8536 9.54813 26.9755 9.42622C27.0974 9.30431 27.1659 9.13899 27.166 8.96659L27.1659 8.16967C27.166 8.00386 27.1026 7.84429 26.9888 7.72367C26.7369 7.45679 26.5687 7.12197 26.5049 6.76056C26.4411 6.39915 26.4846 6.02697 26.6299 5.68998C26.7752 5.35298 27.0161 5.06593 27.3227 4.86426C27.6293 4.66259 27.9883 4.55514 28.3553 4.55516C28.7223 4.55519 29.0812 4.66269 29.3878 4.8644C29.6944 5.06612 29.9352 5.3532 30.0805 5.69022C30.2258 6.02723 30.2692 6.39941 30.2053 6.76082C30.1415 7.12222 29.9732 7.45701 29.7213 7.72386C29.6076 7.84448 29.5444 8.00397 29.5444 8.1697L29.5445 8.96662C29.5445 9.13915 29.6131 9.30461 29.7351 9.4266C29.8571 9.54859 30.0225 9.61713 30.195 9.61714L35.063 9.61782L35.0637 13.7629Z" stroke="#121212" stroke-width="0.5" mask="url(#path-1-outside-1_1386_2269)"/>
</svg>
