<svg xmlns="http://www.w3.org/2000/svg" width="30" height="30" fill="none"><path stroke="#121315" stroke-linecap="round" stroke-linejoin="round" stroke-width="2.667" d="M9 5a3.333 3.333 0 1 1 6.667 0v2H17c1.864 0 2.796 0 3.531.305a4 4 0 0 1 2.165 2.164C23 10.204 23 11.136 23 13h2a3.333 3.333 0 1 1 0 6.667h-2v2.266c0 2.24 0 3.36-.436 4.216a4 4 0 0 1-1.748 1.748c-.855.436-1.976.436-4.216.436h-.933V26a3 3 0 0 0-6 0v2.333h-1.6c-2.24 0-3.36 0-4.216-.436a4 4 0 0 1-1.748-1.748c-.436-.855-.436-1.975-.436-4.216v-2.266h2a3.333 3.333 0 1 0 0-6.667h-2c0-1.864 0-2.796.304-3.53a4 4 0 0 1 2.165-2.165C4.871 7 5.803 7 7.667 7H9z"/></svg>