<svg xmlns="http://www.w3.org/2000/svg" width="32" height="32" fill="none"><path stroke="#121315" stroke-linecap="round" stroke-linejoin="round" stroke-width="2.667" d="M16 4v4m0 6v4m0 6v4M4.382 10.654l5.85 4.5c.375.288.562.432.629.607a.666.666 0 0 1 0 .478c-.067.175-.254.319-.628.607l-5.851 4.5c-.551.424-.827.636-1.058.633a.667.667 0 0 1-.516-.253c-.143-.182-.143-.53-.143-1.226v-9c0-.696 0-1.044.143-1.226a.667.667 0 0 1 .516-.253c.23-.003.507.209 1.058.633m23.233 0-5.85 4.5c-.375.288-.562.432-.63.607a.666.666 0 0 0 0 .478c.068.175.255.319.63.607l5.85 4.5c.551.424.827.636 1.058.633a.667.667 0 0 0 .515-.253c.144-.182.144-.53.144-1.226v-9c0-.696 0-1.044-.144-1.226a.667.667 0 0 0-.515-.253c-.231-.003-.507.209-1.058.633"/></svg>