<svg width="112" height="122" viewBox="0 0 112 122" fill="none" xmlns="http://www.w3.org/2000/svg">
<path d="M26.1912 58.384L13.4404 74.6546V97.808L31.3604 88.848" stroke="#646463" stroke-width="7.168" stroke-miterlimit="10" stroke-linecap="round" stroke-linejoin="round"/>
<path d="M86.7053 58.384L99.4561 74.6546V97.808L81.5361 88.848" stroke="#646463" stroke-width="7.168" stroke-miterlimit="10" stroke-linecap="round" stroke-linejoin="round"/>
<g filter="url(#filter0_f_1593_117)">
<path d="M55.5518 17.168C49.5785 23.4618 37.6318 39.7559 37.6318 54.5814C37.6318 69.407 40.738 83.6031 42.291 88.848H55.5518" stroke="#FAEA5A" stroke-width="8.064" stroke-linecap="round" stroke-linejoin="round"/>
<path d="M55.5522 17.168C61.2268 23.4618 72.5762 39.7559 72.5762 54.5814C72.5762 69.407 69.6253 83.6031 68.1499 88.848H55.5522" stroke="#FAEA5A" stroke-width="8.064" stroke-linecap="round" stroke-linejoin="round"/>
</g>
<path d="M55.5518 17.168C49.5785 23.4618 37.6318 39.7559 37.6318 54.5814C37.6318 69.407 40.738 83.6031 42.291 88.848H55.5518" stroke="#FAEA5A" stroke-width="8.064" stroke-linecap="round" stroke-linejoin="round"/>
<path d="M55.5522 17.168C61.2268 23.4618 72.5762 39.7559 72.5762 54.5814C72.5762 69.407 69.6253 83.6031 68.1499 88.848H55.5522" stroke="#FAEA5A" stroke-width="8.064" stroke-linecap="round" stroke-linejoin="round"/>
<path d="M68.9922 108.56L68.9922 102.288" stroke="#646463" stroke-width="7.168" stroke-miterlimit="10" stroke-linecap="round" stroke-linejoin="round"/>
<path d="M55.5518 108.56L55.5518 102.288" stroke="#646463" stroke-width="7.168" stroke-miterlimit="10" stroke-linecap="round" stroke-linejoin="round"/>
<path d="M42.1123 108.56L42.1123 102.288" stroke="#646463" stroke-width="7.168" stroke-miterlimit="10" stroke-linecap="round" stroke-linejoin="round"/>
<defs>
<filter id="filter0_f_1593_117" x="21.2348" y="0.771188" width="67.7384" height="104.473" filterUnits="userSpaceOnUse" color-interpolation-filters="sRGB">
<feFlood flood-opacity="0" result="BackgroundImageFix"/>
<feBlend mode="normal" in="SourceGraphic" in2="BackgroundImageFix" result="shape"/>
<feGaussianBlur stdDeviation="6.1824" result="effect1_foregroundBlur_1593_117"/>
</filter>
</defs>
</svg>
