<svg xmlns="http://www.w3.org/2000/svg" width="32" height="32" fill="none"><path stroke="#121315" stroke-linecap="round" stroke-linejoin="round" stroke-width="2.667" d="m16 20-4-4m4 4a29.801 29.801 0 0 0 5.333-2.667M16 20v6.667s4.04-.734 5.333-2.667c1.44-2.16 0-6.667 0-6.667M12 16a29.334 29.334 0 0 1 2.666-5.267 17.174 17.174 0 0 1 14.667-8.066c0 3.626-1.04 10-8 14.666M12 16H5.333S6.066 11.96 8 10.667c2.16-1.44 6.666 0 6.666 0M6 22c-2 1.68-2.667 6.667-2.667 6.667S8.32 28 10 26c.946-1.12.933-2.84-.12-3.88A2.907 2.907 0 0 0 6 22"/></svg>