<svg width="125" height="125" viewBox="0 0 125 125" fill="none" xmlns="http://www.w3.org/2000/svg">
<g clip-path="url(#clip0_1547_110593)">
<path d="M35.2949 36.6377V25.6697" stroke="#646463" stroke-width="8" stroke-miterlimit="10" stroke-linecap="round" stroke-linejoin="round"/>
<path d="M55.3848 36.6377V25.6697" stroke="#646463" stroke-width="8" stroke-miterlimit="10" stroke-linecap="round" stroke-linejoin="round"/>
<path d="M21.013 71.0105H10.0449" stroke="#646463" stroke-width="8" stroke-miterlimit="10" stroke-linecap="round" stroke-linejoin="round"/>
<path d="M21.013 50.9163H10.0449" stroke="#646463" stroke-width="8" stroke-miterlimit="10" stroke-linecap="round" stroke-linejoin="round"/>
<path d="M64.2859 99.3303H98.6175C100.446 99.3303 101.928 97.8484 101.928 96.0203C101.928 96.0203 101.928 74.0072 101.928 58.472M21.3242 79.328L21.3242 40.0452C21.3242 38.2171 22.8062 36.7351 24.6343 36.7351H68.6253" stroke="#646463" stroke-width="8" stroke-miterlimit="10" stroke-linecap="round" stroke-linejoin="round"/>
<g filter="url(#filter0_f_1547_110593)">
<path d="M15.5938 99.2724C66.0521 99.2724 71.9629 35.4753 109.368 35.4753" stroke="#FAEA5A" stroke-width="9" stroke-linecap="round" stroke-linejoin="round"/>
</g>
<path d="M15.5938 99.2724C66.0521 99.2724 71.9629 35.4753 109.368 35.4753" stroke="#FAEA5A" stroke-width="9" stroke-linecap="round" stroke-linejoin="round"/>
</g>
<defs>
<filter id="filter0_f_1547_110593" x="-0.90625" y="18.9753" width="126.774" height="96.7971" filterUnits="userSpaceOnUse" color-interpolation-filters="sRGB">
<feFlood flood-opacity="0" result="BackgroundImageFix"/>
<feBlend mode="normal" in="SourceGraphic" in2="BackgroundImageFix" result="shape"/>
<feGaussianBlur stdDeviation="6" result="effect1_foregroundBlur_1547_110593"/>
</filter>
<clipPath id="clip0_1547_110593">
<rect width="125" height="125" fill="white"/>
</clipPath>
</defs>
</svg>
