<svg xmlns="http://www.w3.org/2000/svg" width="24" height="28" fill="none"><path stroke="#121315" stroke-linecap="round" stroke-linejoin="round" stroke-width="2.667" d="M18.666 11.333V8.667a6.667 6.667 0 1 0-13.333 0v2.666m6.667 6V20m-4.267 6h8.533c2.24 0 3.36 0 4.216-.436a4 4 0 0 0 1.748-1.748c.436-.856.436-1.976.436-4.216v-1.867c0-2.24 0-3.36-.436-4.216a4 4 0 0 0-1.748-1.748c-.855-.436-1.975-.436-4.216-.436H7.733c-2.24 0-3.36 0-4.216.436a4 4 0 0 0-1.748 1.748c-.436.856-.436 1.976-.436 4.216V19.6c0 2.24 0 3.36.436 4.216a4 4 0 0 0 1.748 1.748C4.373 26 5.493 26 7.733 26"/></svg>