<svg width="32" height="32" viewBox="0 0 32 32" fill="none" xmlns="http://www.w3.org/2000/svg">
<g clip-path="url(#clip0_1386_2249)">
<path d="M25.7318 4.17182C24.2341 4.03176 22.7613 3.69518 21.3515 3.17075C19.6509 2.53474 18.0624 1.63209 16.6455 0.496661C16.2465 0.175558 15.7498 0.000488281 15.2376 0.000488281C14.7255 0.000488281 14.2287 0.175558 13.8297 0.496661C12.4129 1.63209 10.8244 2.53474 9.12375 3.17075C7.71417 3.69713 6.24142 4.03564 4.74347 4.17753C4.1766 4.22805 3.64916 4.48886 3.2649 4.90865C2.88063 5.32844 2.66736 5.87683 2.66704 6.44594V15.9881C2.66172 18.0451 3.12151 20.0767 4.01203 21.9309C4.90255 23.7852 6.20075 25.4141 7.80955 26.6959L13.8057 31.4955C14.2101 31.8223 14.7143 32.0005 15.2342 32.0005C15.7541 32.0005 16.2583 31.8223 16.6627 31.4955L22.6588 26.6959C24.2676 25.4141 25.5658 23.7852 26.4564 21.9309C27.3469 20.0767 27.8067 18.0451 27.8014 15.9881V6.44594C27.8026 5.87693 27.5909 5.32803 27.208 4.9072C26.825 4.48636 26.2984 4.22404 25.7318 4.17182ZM25.5226 15.9881C25.5267 17.7027 25.143 19.3959 24.4003 20.9413C23.6576 22.4866 22.5751 23.844 21.2338 24.912L15.2376 29.7082L9.24145 24.9086C7.90058 23.841 6.81836 22.4841 6.07569 20.9394C5.33301 19.3947 4.94908 17.7021 4.9526 15.9881L4.9606 6.44708C6.65775 6.28444 8.32631 5.90025 9.92369 5.30431C11.8421 4.59275 13.6311 3.57168 15.2193 2.28167C16.8257 3.56553 18.6254 4.58651 20.5516 5.30659C22.1513 5.90397 23.8227 6.28819 25.5226 6.44937V15.9881ZM20.1413 10.5919C20.3553 10.377 20.6458 10.256 20.9491 10.2553C21.0993 10.255 21.248 10.2843 21.3869 10.3414C21.5257 10.3986 21.6519 10.4825 21.7583 10.5885C21.8647 10.6944 21.9492 10.8203 22.007 10.9589C22.0647 11.0975 22.0946 11.2461 22.0949 11.3963C22.0953 11.5465 22.066 11.6952 22.0088 11.834C21.9517 11.9729 21.8677 12.0991 21.7618 12.2055L14.9051 19.0896C14.7988 19.1962 14.6725 19.2807 14.5335 19.3384C14.3944 19.3961 14.2454 19.4257 14.0948 19.4256C13.944 19.4246 13.7949 19.3939 13.656 19.335C13.5172 19.2762 13.3913 19.1904 13.2858 19.0827L8.71463 14.4842C8.60582 14.3785 8.51916 14.2521 8.4597 14.1125C8.40023 13.973 8.36916 13.8229 8.36829 13.6712C8.36741 13.5195 8.39676 13.3691 8.45462 13.2289C8.51248 13.0886 8.59768 12.9613 8.70527 12.8543C8.81286 12.7473 8.94067 12.6629 9.08125 12.6058C9.22183 12.5487 9.37237 12.5202 9.52408 12.522C9.67579 12.5237 9.82564 12.5556 9.96488 12.6159C10.1041 12.6761 10.23 12.7635 10.3351 12.8729L14.0948 16.6623L20.1413 10.5919Z" fill="#121212"/>
</g>
<defs>
<clipPath id="clip0_1386_2249">
<rect width="32" height="32" fill="white"/>
</clipPath>
</defs>
</svg>
