<svg xmlns="http://www.w3.org/2000/svg" width="24" height="30" fill="none"><path stroke="#121315" stroke-linecap="round" stroke-linejoin="round" stroke-width="2.667" d="M8 14.334 10.666 17l6-6m6 4c0 6.545-7.138 11.305-9.736 12.82-.295.172-.442.258-.65.303a1.519 1.519 0 0 1-.56 0c-.208-.045-.356-.13-.651-.303C8.472 26.305 1.333 21.545 1.333 15V8.624c0-1.066 0-1.6.174-2.057.154-.405.405-.766.73-1.053.367-.324.866-.511 1.865-.885l7.149-2.681c.277-.104.415-.156.558-.177.127-.018.255-.018.381 0 .143.02.282.073.559.177l7.149 2.68c.998.375 1.497.562 1.865.886.325.287.575.648.729 1.053.174.458.174.99.174 2.057z"/></svg>