<svg width="700" height="700" viewBox="0 0 700 700" fill="none" xmlns="http://www.w3.org/2000/svg">
<g clip-path="url(#clip0_1387_4443)">
<path d="M38.3047 199.014H260.355V388.132H349.463" stroke="url(#paint0_linear_1387_4443)" stroke-width="2"/>
<path d="M82.7832 529.796H304.83V362.131L349.465 362.131" stroke="url(#paint1_linear_1387_4443)" stroke-width="2"/>
<path d="M38.4648 152.021H203.961C210.588 152.021 215.961 157.393 215.961 164.021V336.832C215.961 339.041 217.752 340.832 219.961 340.832H349.312" stroke="url(#paint2_linear_1387_4443)" stroke-width="4"/>
<g filter="url(#filter0_f_1387_4443)">
<rect x="350.484" y="295.039" width="256.211" height="138.922" rx="22.5" stroke="#FDEA2E" stroke-width="3"/>
</g>
<g filter="url(#filter1_biiii_1387_4443)">
<rect x="348.984" y="293.539" width="259.211" height="141.922" rx="24" fill="#121315" fill-opacity="0.1"/>
<rect x="349.484" y="294.039" width="258.211" height="140.922" rx="23.5" stroke="#FDEA2E"/>
</g>
<g filter="url(#filter2_f_1387_4443)">
<path d="M508.053 402.958H508.056H533.782C537.677 402.958 540.834 399.801 540.834 395.906C540.834 392.011 537.677 388.854 533.782 388.854H482.295C478.419 388.854 475.277 391.996 475.277 395.871C475.277 399.739 478.408 402.878 482.276 402.889L508.053 402.958ZM428.284 328.091C425.552 325.359 421.124 325.359 418.392 328.091C415.661 330.822 415.661 335.251 418.392 337.982L444.775 364.365L418.392 390.747C415.661 393.479 415.661 397.907 418.392 400.638C421.124 403.37 425.552 403.37 428.284 400.638L459.612 369.31C462.343 366.579 462.343 362.15 459.612 359.419L428.284 328.091Z" stroke="#FDEA2E" stroke-width="2"/>
</g>
<path d="M508.054 402.458H508.056H533.782C537.401 402.458 540.334 399.525 540.334 395.906C540.334 392.287 537.401 389.354 533.782 389.354H482.295C478.695 389.354 475.777 392.272 475.777 395.871C475.777 399.464 478.685 402.379 482.277 402.389L508.054 402.458ZM427.93 328.444C425.394 325.908 421.282 325.908 418.746 328.444C416.21 330.981 416.21 335.092 418.746 337.629L445.482 364.365L418.746 391.101C416.21 393.637 416.21 397.749 418.746 400.285C421.282 402.821 425.394 402.821 427.93 400.285L459.258 368.957C461.794 366.421 461.794 362.309 459.258 359.772L427.93 328.444Z" stroke="#FDEA2E"/>
<g opacity="0.8" filter="url(#filter3_f_1387_4443)">
<path d="M607.75 340.923H700.293" stroke="#FDEA2E" stroke-width="4"/>
</g>
<path d="M607.75 340.923H700.293" stroke="#FDEA2E"/>
<g opacity="0.8" filter="url(#filter4_f_1387_4443)">
<path d="M607.75 387.923H700.293" stroke="#FDEA2E" stroke-width="4"/>
</g>
<path d="M607.75 387.923H700.293" stroke="#FDEA2E"/>
<path d="M82.6836 246.578H171.574V412.387H350.359" stroke="url(#paint3_linear_1387_4443)" stroke-width="2"/>
<path d="M38.4961 482.693H349.5V412.41" stroke="url(#paint4_linear_1387_4443)" stroke-width="2"/>
<path d="M37.9766 577.135H260.293V401.086H349.81" stroke="url(#paint5_linear_1387_4443)" stroke-width="2"/>
<path d="M38.3281 104.787H304.766V351.475H349.529" stroke="url(#paint6_linear_1387_4443)" stroke-width="2"/>
</g>
<defs>
<filter id="filter0_f_1387_4443" x="324.984" y="269.539" width="307.211" height="189.922" filterUnits="userSpaceOnUse" color-interpolation-filters="sRGB">
<feFlood flood-opacity="0" result="BackgroundImageFix"/>
<feBlend mode="normal" in="SourceGraphic" in2="BackgroundImageFix" result="shape"/>
<feGaussianBlur stdDeviation="12" result="effect1_foregroundBlur_1387_4443"/>
</filter>
<filter id="filter1_biiii_1387_4443" x="340.984" y="285.539" width="275.211" height="157.922" filterUnits="userSpaceOnUse" color-interpolation-filters="sRGB">
<feFlood flood-opacity="0" result="BackgroundImageFix"/>
<feGaussianBlur in="BackgroundImageFix" stdDeviation="2"/>
<feComposite in2="SourceAlpha" operator="in" result="effect1_backgroundBlur_1387_4443"/>
<feBlend mode="normal" in="SourceGraphic" in2="effect1_backgroundBlur_1387_4443" result="shape"/>
<feColorMatrix in="SourceAlpha" type="matrix" values="0 0 0 0 0 0 0 0 0 0 0 0 0 0 0 0 0 0 127 0" result="hardAlpha"/>
<feOffset dy="8"/>
<feGaussianBlur stdDeviation="4"/>
<feComposite in2="hardAlpha" operator="arithmetic" k2="-1" k3="1"/>
<feColorMatrix type="matrix" values="0 0 0 0 0.992157 0 0 0 0 0.917647 0 0 0 0 0.180392 0 0 0 0.12 0"/>
<feBlend mode="normal" in2="shape" result="effect2_innerShadow_1387_4443"/>
<feColorMatrix in="SourceAlpha" type="matrix" values="0 0 0 0 0 0 0 0 0 0 0 0 0 0 0 0 0 0 127 0" result="hardAlpha"/>
<feOffset dy="-8"/>
<feGaussianBlur stdDeviation="4"/>
<feComposite in2="hardAlpha" operator="arithmetic" k2="-1" k3="1"/>
<feColorMatrix type="matrix" values="0 0 0 0 0.992157 0 0 0 0 0.917647 0 0 0 0 0.180392 0 0 0 0.12 0"/>
<feBlend mode="normal" in2="effect2_innerShadow_1387_4443" result="effect3_innerShadow_1387_4443"/>
<feColorMatrix in="SourceAlpha" type="matrix" values="0 0 0 0 0 0 0 0 0 0 0 0 0 0 0 0 0 0 127 0" result="hardAlpha"/>
<feOffset dx="8"/>
<feGaussianBlur stdDeviation="4"/>
<feComposite in2="hardAlpha" operator="arithmetic" k2="-1" k3="1"/>
<feColorMatrix type="matrix" values="0 0 0 0 0.992157 0 0 0 0 0.917647 0 0 0 0 0.180392 0 0 0 0.12 0"/>
<feBlend mode="normal" in2="effect3_innerShadow_1387_4443" result="effect4_innerShadow_1387_4443"/>
<feColorMatrix in="SourceAlpha" type="matrix" values="0 0 0 0 0 0 0 0 0 0 0 0 0 0 0 0 0 0 127 0" result="hardAlpha"/>
<feOffset dx="-8"/>
<feGaussianBlur stdDeviation="4"/>
<feComposite in2="hardAlpha" operator="arithmetic" k2="-1" k3="1"/>
<feColorMatrix type="matrix" values="0 0 0 0 0.992157 0 0 0 0 0.917647 0 0 0 0 0.180392 0 0 0 0.12 0"/>
<feBlend mode="normal" in2="effect4_innerShadow_1387_4443" result="effect5_innerShadow_1387_4443"/>
</filter>
<filter id="filter2_f_1387_4443" x="391.344" y="301.042" width="174.49" height="126.916" filterUnits="userSpaceOnUse" color-interpolation-filters="sRGB">
<feFlood flood-opacity="0" result="BackgroundImageFix"/>
<feBlend mode="normal" in="SourceGraphic" in2="BackgroundImageFix" result="shape"/>
<feGaussianBlur stdDeviation="12" result="effect1_foregroundBlur_1387_4443"/>
</filter>
<filter id="filter3_f_1387_4443" x="595.75" y="326.923" width="116.543" height="28" filterUnits="userSpaceOnUse" color-interpolation-filters="sRGB">
<feFlood flood-opacity="0" result="BackgroundImageFix"/>
<feBlend mode="normal" in="SourceGraphic" in2="BackgroundImageFix" result="shape"/>
<feGaussianBlur stdDeviation="6" result="effect1_foregroundBlur_1387_4443"/>
</filter>
<filter id="filter4_f_1387_4443" x="595.75" y="373.923" width="116.543" height="28" filterUnits="userSpaceOnUse" color-interpolation-filters="sRGB">
<feFlood flood-opacity="0" result="BackgroundImageFix"/>
<feBlend mode="normal" in="SourceGraphic" in2="BackgroundImageFix" result="shape"/>
<feGaussianBlur stdDeviation="6" result="effect1_foregroundBlur_1387_4443"/>
</filter>
<linearGradient id="paint0_linear_1387_4443" x1="41.1637" y1="199.014" x2="349.463" y2="199.014" gradientUnits="userSpaceOnUse">
<stop stop-color="#A7A7A7" stop-opacity="0"/>
<stop offset="1" stop-color="#A7A7A7"/>
</linearGradient>
<linearGradient id="paint1_linear_1387_4443" x1="85.2336" y1="362.131" x2="349.465" y2="362.131" gradientUnits="userSpaceOnUse">
<stop stop-color="#A7A7A7" stop-opacity="0"/>
<stop offset="1" stop-color="#A7A7A7"/>
</linearGradient>
<linearGradient id="paint2_linear_1387_4443" x1="41.321" y1="152.021" x2="349.312" y2="152.021" gradientUnits="userSpaceOnUse">
<stop stop-color="#A7A7A7" stop-opacity="0"/>
<stop offset="1" stop-color="#A7A7A7"/>
</linearGradient>
<linearGradient id="paint3_linear_1387_4443" x1="85.1431" y1="246.578" x2="449.059" y2="252.872" gradientUnits="userSpaceOnUse">
<stop stop-color="#FFFAC5" stop-opacity="0"/>
<stop offset="1" stop-color="#FFFAC5"/>
</linearGradient>
<linearGradient id="paint4_linear_1387_4443" x1="41.3537" y1="412.41" x2="580.232" y2="412.41" gradientUnits="userSpaceOnUse">
<stop stop-color="#FFFAC5" stop-opacity="0"/>
<stop offset="1" stop-color="#FFFAC5"/>
</linearGradient>
<linearGradient id="paint5_linear_1387_4443" x1="40.8418" y1="317.086" x2="349.81" y2="317.086" gradientUnits="userSpaceOnUse">
<stop stop-color="#A7A7A7" stop-opacity="0"/>
<stop offset="1" stop-color="#A7A7A7"/>
</linearGradient>
<linearGradient id="paint6_linear_1387_4443" x1="41.1875" y1="104.787" x2="431.067" y2="104.787" gradientUnits="userSpaceOnUse">
<stop stop-color="#FFFAC5" stop-opacity="0"/>
<stop offset="1" stop-color="#FFFAC5"/>
</linearGradient>
<clipPath id="clip0_1387_4443">
<rect width="700" height="700" fill="white"/>
</clipPath>
</defs>
</svg>
