<svg xmlns="http://www.w3.org/2000/svg" width="1469" height="1079" fill="none" viewBox="0 0 1469 1079">
  <g stroke="#E7E7E7" stroke-linecap="round" stroke-linejoin="round" stroke-width=".5" clip-path="url(#a)">
    <path d="M1446.61.675V1079M1393.61.675V1079M1340.61.675V1079M1287.61.675V1079M1234.61.675V1079M1181.61.675V1079M1128.61.675V1079M1075.61.675V1079M1022.61.675V1079M969.611.675V1079M916.611.675V1079M863.611.675V1079M810.611.675V1079M757.611.675V1079M704.611.675V1079M651.611.675V1079M598.611.675V1079M545.611.675V1079M492.611.675V1079M439.611.675V1079M386.611.675V1079M333.611.675V1079M280.611.675V1079M227.611.675V1079M174.611.675V1079M121.611.675V1079M68.611.675V1079M15.611.675V1079M1.049 11.88H1727.6M1.049 65.695H1727.6M1.049 119.509H1727.6M1.049 173.325H1727.6M1.049 227.138H1727.6M1.049 280.954H1727.6M1.049 334.767H1727.6M1.049 388.583H1727.6M1.049 442.396H1727.6M1.049 496.212H1727.6M1.049 550.028H1727.6M1.049 603.841H1727.6m-1726.551 54H1727.6M1.049 712.583H1727.6M1.049 766.396H1727.6M1.049 820.212H1727.6m-1726.551 54H1727.6m-1726.551 54H1727.6m-1726.551 56H1727.6M1.049 1040.21H1727.6"/>
  </g>
  <defs>
    <clipPath id="a">
      <path fill="#fff" d="M0 0h1469v1079H0z"/>
    </clipPath>
  </defs>
</svg>
