<svg version="1.1" xmlns="http://www.w3.org/2000/svg" viewBox="0 0 1004.5187570103226 753.35605780617" width="3013.5562710309678" height="2260.06817341851">
  <!-- svg-source:excalidraw -->
  
  <defs>
    <style class="style-fonts">
      @font-face {
        font-family: "Virgil";
        src: url("https://excalidraw.com/Virgil.woff2");
      }
      @font-face {
        font-family: "Cascadia";
        src: url("https://excalidraw.com/Cascadia.woff2");
      }
    </style>
  </defs>
  <rect x="0" y="0" width="1004.5187570103226" height="753.35605780617" fill="#fff"></rect><g stroke-linecap="round"><g transform="translate(230 330.64912614149785) rotate(0 382.2593785051613 46.02890276158712)" fill-rule="evenodd"><path d="M0 0 L7.49 -21.45 L24.87 -87.42 L36.37 -126.49 L50.83 -166.01 L69.04 -203.24 L79.82 -220.16 L91.83 -235.49 L105.19 -248.89 L120 -260.02 L136.86 -269.48 L156.11 -278.12 L177.43 -285.93 L200.49 -292.93 L250.6 -304.51 L303.9 -312.93 L357.83 -318.25 L409.86 -320.54 L457.44 -319.87 L478.77 -318.44 L498.04 -316.3 L532.68 -309.46 L564.23 -299.13 L592.91 -285.61 L618.9 -269.17 L642.4 -250.11 L663.62 -228.71 L682.75 -205.25 L700 -180.02 L715.81 -151.92 L730.18 -120.21 L742.65 -85.71 L752.75 -49.23 L760 -11.61 L763.93 26.35 L764.09 63.82 L760 99.98 L752.81 137.37 L743.46 177.86 L731.17 219.62 L715.15 260.83 L694.61 299.66 L682.4 317.62 L668.77 334.3 L653.61 349.48 L636.84 362.92 L618.34 374.41 L598.04 383.7 L574.64 391.28 L547.33 397.75 L516.69 403.09 L483.3 407.27 L447.74 410.28 L410.6 412.1 L333.9 412.07 L295.49 410.19 L257.83 407.02 L221.49 402.55 L187.05 396.76 L155.11 389.63 L126.23 381.14 L101 371.26 L80 359.98 L62.82 346.06 L48.49 328.62 L36.75 308.16 L27.33 285.19 L19.96 260.24 L14.4 233.8 L7.62 178.51 L4.89 123.4 L3.18 30.07 L2 13.23 L0 0" stroke="none" stroke-width="0" fill="#7950f233" fill-rule="evenodd"></path><path d="M0 0 C20 -43.34, 36.99 -207.3, 120 -260.02 C203.01 -312.73, 401.37 -329.63, 498.04 -316.3 C594.7 -302.96, 656.34 -249.4, 700 -180.02 C743.66 -110.64, 776.99 6.03, 760 99.98 C743.01 193.94, 711.37 340.37, 598.04 383.7 C484.7 427.04, 179.67 423.93, 80 359.98 C-19.67 296.03, 13.33 60, 0 0" stroke="#000000" stroke-width="1.5" fill="none" stroke-dasharray="1.5 7"></path></g></g><mask></mask><g stroke-linecap="round" transform="translate(28.035757410782253 294.36926519104395) rotate(0 30 50)"><path d="M13.54 0.52 L48.03 -3.31 L53.38 1.79 L61.48 8.53 L56.04 85.49 L55.48 90.65 L50.96 96.87 L8.43 96.96 L9.73 95.95 L1.23 92.28 L-2.79 7.8 L3.16 0.44 L14.97 -3.76" stroke="none" stroke-width="0" fill="#e64980"></path><path d="M15 0 M15 0 C25.06 -0.29, 29.83 2.2, 45 0 M15 0 C25.58 1.03, 35.91 0.19, 45 0 M45 0 C58.21 -1.07, 58.97 7.66, 60 15 M45 0 C57.22 -0.91, 55.73 8.43, 60 15 M60 15 C61.37 40.68, 57.1 65.52, 60 85 M60 15 C59.45 40.83, 60.79 65.54, 60 85 M60 85 C57.76 91.59, 53.18 99.1, 45 100 M60 85 C61.19 95.76, 52.09 98.27, 45 100 M45 100 C34 98.3, 25.09 97.45, 15 100 M45 100 C34.99 101.42, 27.18 101.8, 15 100 M15 100 C3.82 96.14, 0.93 92.98, 0 85 M15 100 C1.38 103.29, 4.39 92.43, 0 85 M0 85 C1.55 63.12, 0.83 34.12, 0 15 M0 85 C-2.42 63.6, 0.03 39.79, 0 15 M0 15 C-2.37 5.12, 8.99 -0.4, 15 0 M0 15 C-2.22 9.07, 3.06 -0.57, 15 0" stroke="#343a40" stroke-width="2" fill="none"></path></g><g stroke-linecap="round" transform="translate(48.03575741078225 366.36926519104395) rotate(0 10 10)"><path d="M8.36 -0.42 C10.65 -0.36, 14.69 1.01, 16.36 2.22 C18.04 3.42, 17.96 4.81, 18.43 6.79 C18.9 8.78, 20.21 12.21, 19.2 14.12 C18.2 16.04, 14.48 17.46, 12.4 18.27 C10.31 19.08, 8.63 19.41, 6.69 18.97 C4.74 18.53, 1.89 17.06, 0.71 15.61 C-0.46 14.16, -0.58 12.25, -0.37 10.29 C-0.15 8.33, -0.93 4.86, 2 3.86 C4.92 2.86, 14.32 3.5, 17.19 4.31 C20.05 5.12, 19.25 9, 19.19 8.71 M1.24 4.59 C2.73 3.03, 9.3 2.82, 12.08 2.73 C14.86 2.63, 16.38 3.39, 17.92 4.02 C19.46 4.65, 20.96 4.65, 21.31 6.5 C21.67 8.35, 21.03 13.52, 20.04 15.12 C19.04 16.71, 16.97 15.19, 15.33 16.06 C13.69 16.93, 12.14 20.69, 10.21 20.34 C8.28 20, 5.44 15.34, 3.77 13.97 C2.09 12.6, 0.32 14.22, 0.13 12.14 C-0.06 10.06, 1.69 3.21, 2.62 1.5 C3.55 -0.22, 5.61 1, 5.71 1.82" stroke="none" stroke-width="0" fill="#fff"></path><path d="M3.43 -0.33 C4.76 -1.7, 8.51 -2.04, 10.86 -1.53 C13.22 -1.02, 16.3 0.99, 17.57 2.74 C18.84 4.48, 18.17 6.77, 18.47 8.93 C18.77 11.1, 20.53 13.82, 19.37 15.71 C18.22 17.6, 14.25 20.1, 11.55 20.26 C8.86 20.41, 5.09 18.11, 3.2 16.65 C1.31 15.18, 0.62 13.49, 0.2 11.45 C-0.22 9.41, -0.2 6.05, 0.71 4.39 C1.61 2.73, 4.4 1.95, 5.62 1.5 C6.85 1.04, 7.86 1.68, 8.06 1.67 M16.4 2.69 C18.39 4.47, 20.79 6.64, 21.38 8.87 C21.97 11.1, 21.17 14.56, 19.93 16.09 C18.69 17.62, 15.61 17.16, 13.95 18.02 C12.3 18.88, 12.04 22.01, 9.98 21.24 C7.92 20.48, 2.86 15.02, 1.57 13.43 C0.28 11.84, 1.91 13.12, 2.24 11.69 C2.57 10.26, 2.42 6.78, 3.58 4.86 C4.74 2.94, 7.68 0.82, 9.2 0.17 C10.72 -0.47, 11.4 0.86, 12.7 0.99 C13.99 1.12, 17.04 0.78, 17 0.95" stroke="#343a40" stroke-width="2" fill="none"></path></g><g stroke-linecap="round" transform="translate(548.0357574107823 114.36926519104395) rotate(0 50 50)"><path d="M0.79 1.27 L98.53 -1.69 L101.14 99.01 L1.19 101.12" stroke="none" stroke-width="0" fill="#fab005"></path><path d="M-1.33 0.4 C24.39 1.22, 47.76 -0.57, 100.96 -0.35 M-0.31 0.11 C20.35 -0.74, 41.48 0.25, 100.44 -0.64 M98.39 -1.41 C99.29 39.35, 100.12 79.73, 101.7 98.84 M100.14 -0.65 C100.53 29.81, 99.44 57.92, 99.19 99.16 M98.2 100.25 C78.39 102.35, 56.45 100.16, -0.77 100.21 M99.49 99.01 C66.6 99.99, 31.84 99.1, -0.73 100.19 M-1.2 98.47 C-1.05 69.76, -0.2 37.64, -1.82 -0.12 M0.33 100.74 C-0.31 74.94, 1.27 49.03, -0.63 -0.24" stroke="#000000" stroke-width="1" fill="none"></path></g><g stroke-linecap="round" transform="translate(568.0357574107823 134.36926519104395) rotate(0 50 50)"><path d="M-0.36 -0.4 L101.05 -1.24 L99.98 100.28 L1.44 101.68" stroke="none" stroke-width="0" fill="#fab005"></path><path d="M-1.7 -0.08 C30.98 1.38, 58.66 0.67, 101.22 0.56 M-0.75 -0.19 C22.87 -0.93, 44.25 -0.02, 99.93 0.26 M98.05 -0.71 C101.59 31.2, 100.45 60.45, 99.21 100.62 M99.58 0.62 C98.21 20.14, 99.48 42, 99.77 100.1 M99.28 98.66 C61.77 98.9, 25.3 99.86, -0.3 100 M99.63 100.57 C70.97 99.79, 41.14 99.94, 0.25 99.44 M0.44 100.82 C-0.35 73.88, -0.96 50.57, 1.48 -1.87 M-0.46 100.55 C1.38 72.8, -0.07 43.61, 0.41 -0.98" stroke="#000000" stroke-width="1" fill="none"></path></g><g stroke-linecap="round" transform="translate(588.0357574107823 154.36926519104395) rotate(0 50 50)"><path d="M1.68 0.3 L101.04 -1.14 L99.97 98.1 L1.67 100.21" stroke="none" stroke-width="0" fill="#fab005"></path><path d="M0.45 -1.5 C32.4 1.21, 64.15 -0.38, 100.4 -0.13 M0.95 -0.98 C32.21 0.13, 65.68 -0.44, 100.12 -0.4 M101.09 -0.85 C100.31 31.47, 97.85 67.08, 100.97 99.54 M99.12 -0.36 C100.16 31.02, 100.72 62.93, 100.37 99.85 M100.51 99.26 C71.12 100.13, 39.03 99.57, -0.64 100.5 M99.8 100.22 C76.04 100.08, 50.66 99.78, 0.22 100.74 M-1.02 99.08 C1.28 80.96, 2.15 57.37, -0.02 0.82 M0.52 99.38 C0.17 79.95, 0.9 60.46, -0.31 0.64" stroke="#000000" stroke-width="1" fill="none"></path></g><g transform="translate(595.0357574107823 194.36926519104395) rotate(0 43 10)"><text x="43" y="16" font-family="Cascadia, Segoe UI Emoji" font-size="16px" fill="#000000" text-anchor="middle" style="white-space: pre;" direction="ltr">Service A</text></g><g stroke-linecap="round" transform="translate(548.0357574107823 314.36926519104395) rotate(0 50 50)"><path d="M1.25 1.63 L98.04 -1.33 L101.9 101.69 L0.8 98.92" stroke="none" stroke-width="0" fill="#fab005"></path><path d="M-0.98 -0.63 C34.41 -1.2, 68.22 -0.76, 101.93 0.41 M-0.81 -0.06 C27.91 -0.23, 57.32 -0.28, 100.66 0.82 M101.79 -1.98 C98.46 28.59, 98.29 59.73, 101.46 101.48 M99.87 -0.4 C99.73 19.78, 99.05 41.58, 99.43 100.83 M101.78 100.38 C80.25 98.26, 58.64 97.7, -1.68 98.31 M99.73 99.95 C67.64 99.95, 36.57 100.25, 0.83 100.9 M-0.04 100.14 C-2.09 65.07, -1.33 26.48, 1.58 -1.95 M-0.56 100.7 C0.62 63.14, 1.36 25.92, 0.2 0.11" stroke="#000000" stroke-width="1" fill="none"></path></g><g stroke-linecap="round" transform="translate(568.0357574107823 334.36926519104395) rotate(0 50 50)"><path d="M1.63 -1.96 L98.67 1.9 L101.69 100.8 L-1.08 101.55" stroke="none" stroke-width="0" fill="#fab005"></path><path d="M-0.63 0.64 C31.49 1.19, 65.27 2.42, 100.41 -0.36 M-0.06 -0.27 C37.93 1.77, 75.76 1.48, 100.82 -0.07 M98.02 -1.11 C99.45 24.41, 101.31 52.83, 101.48 98.12 M99.6 0.2 C98.93 24.84, 100.12 50.07, 100.83 99.14 M100.38 101.7 C73.98 102.42, 48.69 99.21, -1.69 100.27 M99.95 99.01 C66.91 99.05, 35.02 100.56, 0.9 100.69 M0.14 98.91 C1.95 59.69, 0.29 21.61, -1.95 1.46 M0.7 99.81 C1.17 78.7, 1.27 56.51, 0.11 0.63" stroke="#000000" stroke-width="1" fill="none"></path></g><g stroke-linecap="round" transform="translate(588.0357574107823 354.36926519104395) rotate(0 50 50)"><path d="M-1.96 -1.33 L101.9 1.69 L100.8 98.92 L1.55 99.46" stroke="none" stroke-width="0" fill="#fab005"></path><path d="M0.64 -1.84 C24.25 -1.09, 49.05 0.72, 99.64 1.58 M-0.27 0.05 C33.78 0.07, 66.31 0.88, 99.93 -0.43 M98.89 -0.68 C99.62 32.51, 102.35 64.16, 98.12 99.06 M100.2 -0.83 C99.39 28, 99.3 56.11, 99.14 99.47 M101.7 98.71 C76.09 98.34, 47.44 98.5, 0.27 100.44 M99.01 99.1 C60.88 99.36, 23.95 100.85, 0.69 101 M-1.09 102 C-0.31 69.87, 1.6 37.13, 1.46 -1.63 M-0.19 100.44 C1.1 77.82, 0.76 54.66, 0.63 0.81" stroke="#000000" stroke-width="1" fill="none"></path></g><g transform="translate(595.0357574107823 394.36926519104395) rotate(0 43 10)"><text x="43" y="16" font-family="Cascadia, Segoe UI Emoji" font-size="16px" fill="#000000" text-anchor="middle" style="white-space: pre;" direction="ltr">Service B</text></g><g stroke-linecap="round" transform="translate(768.0357574107823 214.36926519104395) rotate(0 50 50)"><path d="M1.55 -0.54 L101.92 -1.82 L100.68 98.66 L1.63 98.16" stroke="none" stroke-width="0" fill="#fab005"></path><path d="M-0.36 1.58 C23.53 -1.83, 45.82 -0.75, 100.1 1.91 M-0.07 -0.43 C30.2 0.08, 59.14 -1.37, 99.66 -0.64 M98.12 -0.94 C100.26 35.62, 99.93 72.15, 98.34 99.04 M99.14 -0.53 C98.97 34.48, 99.62 68.04, 99.36 100.77 M100.27 100.44 C80.92 98.61, 58.37 97.18, -1.8 98.64 M100.69 101 C75.95 100.88, 51.87 100.36, 1 99.83 M1.46 98.37 C-2.24 67.21, 0.61 36.28, 0.89 1.09 M0.63 100.81 C-1.18 63.93, 0.75 30.03, 0.4 -0.54" stroke="#000000" stroke-width="1" fill="none"></path></g><g stroke-linecap="round" transform="translate(788.0357574107823 234.36926519104395) rotate(0 50 50)"><path d="M-0.54 1.92 L98.18 0.68 L98.66 101.63 L-1.84 99.72" stroke="none" stroke-width="0" fill="#fab005"></path><path d="M1.58 0.57 C38.04 0.06, 78.79 0.28, 101.91 0.01 M-0.43 0.13 C37.52 -0.92, 72.7 -0.27, 99.36 0.59 M99.06 -0.47 C100.48 36.49, 101.14 72.91, 99.04 100.72 M99.47 -0.46 C101.72 24.47, 101.68 47.92, 100.77 99.08 M100.44 101.69 C77.84 100.03, 54.8 98.34, -1.36 98.82 M101 100.05 C61.65 100.76, 22.8 101.69, -0.17 100.17 M-1.63 98.55 C-0.15 63.51, 0.59 25.1, 1.09 1.08 M0.81 99.02 C-0.77 68.95, 0.74 36.41, -0.54 0.78" stroke="#000000" stroke-width="1" fill="none"></path></g><g stroke-linecap="round" transform="translate(808.0357574107823 254.36926519104395) rotate(0 50 50)"><path d="M1.92 -1.82 L100.68 -1.34 L101.63 98.16 L-0.28 98.53" stroke="none" stroke-width="0" fill="#fab005"></path><path d="M0.57 -1.63 C31.93 -1.34, 64.2 1.12, 100.01 1.33 M0.13 0.89 C37.18 -0.12, 76 -0.21, 100.59 0.73 M99.53 -0.26 C98.27 37.81, 97.4 73.87, 100.72 98.86 M99.54 0.89 C99.33 39.14, 98.5 77.35, 99.08 99.16 M101.69 99.45 C78.32 98.24, 55.05 98.86, -1.18 101.67 M100.05 99.98 C61.05 100.45, 22.96 100.83, 0.17 100.79 M-1.45 98.88 C0.67 79.36, 0.16 60.59, 1.08 0.4 M-0.98 99.34 C0.33 69.76, -0.23 37.29, 0.78 -0.27" stroke="#000000" stroke-width="1" fill="none"></path></g><g transform="translate(815.0357574107823 294.36926519104395) rotate(0 43 10)"><text x="43" y="16" font-family="Cascadia, Segoe UI Emoji" font-size="16px" fill="#000000" text-anchor="middle" style="white-space: pre;" direction="ltr">Service A</text></g><g stroke-linecap="round" transform="translate(270 310.64912614149785) rotate(0 70 30)"><path d="M14.39 -0.9 L131.94 1.66 L134.53 2.14 L140.17 12.9 L139.84 49.76 L135.25 56.11 L126.66 60.18 L6.69 57.09 L4.93 57.26 L0.38 48.26 L-0.59 9.77 L5.35 3.95 L9.4 1.54 L16.98 0.24" stroke="none" stroke-width="0" fill="#228be6"></path><path d="M15 0 M15 0 C43.57 1.45, 76.42 0.07, 125 0 M15 0 C37.95 0.74, 59.99 0.95, 125 0 M125 0 C133.56 -0.58, 141.24 5.15, 140 15 M125 0 C133.34 0.61, 139.8 4.17, 140 15 M140 15 C138.9 25.52, 139.1 34.22, 140 45 M140 15 C139.13 22.33, 140.29 28.68, 140 45 M140 45 C138.63 55.7, 136.61 59.28, 125 60 M140 45 C138.72 55.27, 137.09 62.12, 125 60 M125 60 C99.62 60.02, 74.87 59.79, 15 60 M125 60 C101.2 60.73, 77.2 59.91, 15 60 M15 60 C5.66 59.92, -1.43 55.63, 0 45 M15 60 C2.92 59.12, 0.43 56.25, 0 45 M0 45 C0.59 35.55, 0.16 29.83, 0 15 M0 45 C-0.11 35.34, 0.5 23.98, 0 15 M0 15 C-0.1 3.18, 4.86 -0.32, 15 0 M0 15 C0.6 5.59, 6.94 -1.48, 15 0" stroke="#000000" stroke-width="1" fill="none"></path></g><g stroke-linecap="round" transform="translate(290 330.64912614149785) rotate(0 70 30)"><path d="M16.49 -1.49 L130.24 1.27 L135.13 2.61 L138.45 12.29 L140.35 49.58 L134.74 58.23 L124.25 58.63 L9.14 60.67 L3.03 55.13 L0.47 50.33 L2.07 9.99 L3.16 2.44 L7.82 1.67 L14.4 0.51" stroke="none" stroke-width="0" fill="#228be6"></path><path d="M15 0 M15 0 C38.88 0.86, 62.34 -0.79, 125 0 M15 0 C51.95 -0.12, 87.89 0.97, 125 0 M125 0 C136.09 -0.98, 141.3 5, 140 15 M125 0 C135.91 -2.2, 140.41 4.89, 140 15 M140 15 C140.16 26, 141.38 33.58, 140 45 M140 15 C139.57 24.11, 139.98 33.53, 140 45 M140 45 C138.71 53.48, 135.74 58.32, 125 60 M140 45 C139.5 54.83, 133.52 62.15, 125 60 M125 60 C100.23 60.58, 78.38 57.63, 15 60 M125 60 C87.5 59.66, 50.15 58.62, 15 60 M15 60 C5.62 58, 0.62 53.47, 0 45 M15 60 C5.86 60.41, 0.94 52.78, 0 45 M0 45 C-1.6 34.96, 0.86 25.17, 0 15 M0 45 C-0.78 38.04, -0.54 31.6, 0 15 M0 15 C-1.36 6.04, 5.77 1.53, 15 0 M0 15 C-0.72 2.84, 2.86 -1.98, 15 0" stroke="#000000" stroke-width="1" fill="none"></path></g><g stroke-linecap="round" transform="translate(310 350.64912614149785) rotate(0 70 30)"><path d="M13.01 0.6 L131.9 0.19 L134.88 4.45 L141.38 10.76 L137.95 51.8 L135.96 59.73 L123.5 59.41 L7.13 58.45 L4.49 55.65 L0.74 46.85 L-1.4 11.85 L3.8 4.81 L8.13 0.35 L15.66 -0.08" stroke="none" stroke-width="0" fill="#228be6"></path><path d="M15 0 M15 0 C39.38 1.37, 66.37 0.02, 125 0 M15 0 C54.17 -0.25, 95.2 -0.07, 125 0 M125 0 C135.84 0.65, 140.03 5.89, 140 15 M125 0 C136.45 -1.88, 139.88 2.91, 140 15 M140 15 C140.46 25.47, 138.66 31.06, 140 45 M140 15 C139.68 24.46, 140.69 34.38, 140 45 M140 45 C138.27 54.23, 133.98 61.01, 125 60 M140 45 C141.03 52.77, 135.94 61.89, 125 60 M125 60 C101.01 59.6, 77.26 58.6, 15 60 M125 60 C88.79 60.82, 51.25 60.39, 15 60 M15 60 C6.44 58.69, -1.38 53.91, 0 45 M15 60 C6.23 57.78, -1.77 56.33, 0 45 M0 45 C-0.55 36.54, -1.18 29.19, 0 15 M0 45 C-1.17 33.92, -1.09 25.06, 0 15 M0 15 C-0.82 3.85, 5.68 -1.62, 15 0 M0 15 C0.24 4.24, 7.02 -2.29, 15 0" stroke="#000000" stroke-width="1" fill="none"></path></g><g transform="translate(327.5 370.64912614149785) rotate(0 52.5 10)"><text x="52.5" y="16" font-family="Cascadia, Segoe UI Emoji" font-size="16px" fill="#000000" text-anchor="middle" style="white-space: pre;" direction="ltr">API Gateway</text></g><g stroke-linecap="round"><g transform="translate(130 350.64912614149785) rotate(0 30 0)"><path d="M0 0 C6 0, 26 0, 36 0 C46 0, 56 0, 60 0 M0 0 C6 0, 26 0, 36 0 C46 0, 56 0, 60 0" stroke="#000000" stroke-width="1" fill="none"></path></g><g transform="translate(130 350.64912614149785) rotate(0 30 0)"><path d="M60 0 L46.41 6.34 L46.41 -6.34 L60 0" stroke="none" stroke-width="0" fill="#000000" fill-rule="evenodd"></path><path d="M60 0 C55.91 1.91, 51.83 3.81, 46.41 6.34 M60 0 C54.62 2.51, 49.23 5.02, 46.41 6.34 M46.41 6.34 C46.41 1.47, 46.41 -3.4, 46.41 -6.34 M46.41 6.34 C46.41 2.97, 46.41 -0.41, 46.41 -6.34 M46.41 -6.34 C49.81 -4.75, 53.22 -3.16, 60 0 M46.41 -6.34 C49.49 -4.9, 52.58 -3.46, 60 0 M60 0 C60 0, 60 0, 60 0 M60 0 C60 0, 60 0, 60 0" stroke="#000000" stroke-width="1" fill="none"></path></g></g><mask></mask><g stroke-linecap="round"><g transform="translate(688.0357574107823 194.36926519104395) rotate(0 40 40)"><path d="M0 0 C13.33 13.33, 66.67 66.67, 80 80" stroke="#000000" stroke-width="1.5" fill="none" stroke-dasharray="8 9"></path></g></g><mask></mask><g stroke-linecap="round" transform="translate(768.0357574107823 414.36926519104395) rotate(0 50 50)"><path d="M-1.88 -0.87 L101 0.47 L98.76 101.85 L0.25 101.84" stroke="none" stroke-width="0" fill="#fab005"></path><path d="M0.26 -0.35 C39.78 1.97, 78.34 -1.28, 101.02 1.68 M-0.8 -0.32 C33.73 -0.47, 68.06 -1.31, 100.32 -0.37 M98.85 1.49 C101.02 21.1, 99.08 44.93, 100.65 101.74 M99.31 0.95 C98.28 32.07, 99.11 62.52, 100.18 100.21 M101.81 101.03 C75.31 100.52, 49.6 101.05, -0.18 99.19 M100.63 99.1 C61.08 98.53, 23.41 99.76, -0.74 100.41 M0.52 101.37 C1.09 75.75, -0.66 53.36, -1.96 -1.01 M0.09 100.31 C1.04 60.43, -0.59 21.42, -0.99 0.17" stroke="#000000" stroke-width="1" fill="none"></path></g><g stroke-linecap="round" transform="translate(788.0357574107823 434.36926519104395) rotate(0 50 50)"><path d="M-0.87 1 L100.47 -1.24 L101.85 100.25 L1.84 99.97" stroke="none" stroke-width="0" fill="#fab005"></path><path d="M-0.35 0.33 C32.8 -0.68, 60.55 0.89, 101.68 0.88 M-0.32 -0.66 C26.23 0.09, 51.4 1.12, 99.63 -0.81 M101.49 0.15 C99.82 36.94, 101.75 78.13, 101.74 100.25 M100.95 -0.74 C100.29 20.32, 99.49 40.65, 100.21 99.59 M101.03 101.2 C63.34 102.3, 26.16 100.72, -0.81 101.7 M99.1 99.56 C62.91 100.99, 27.59 99.89, 0.41 99.29 M1.37 100.41 C-2.11 75.44, -1.61 51.6, -1.01 1.84 M0.31 100.79 C-1.33 71.63, -1.16 43.93, 0.17 -0.94" stroke="#000000" stroke-width="1" fill="none"></path></g><g stroke-linecap="round" transform="translate(808.0357574107823 454.36926519104395) rotate(0 50 50)"><path d="M1 0.47 L98.76 1.85 L100.25 101.84 L-0.03 98.15" stroke="none" stroke-width="0" fill="#fab005"></path><path d="M0.33 1.81 C27.85 -1.26, 57.82 1.85, 100.88 -0.8 M-0.66 0.21 C36.09 -0.32, 73.93 -0.06, 99.19 0.87 M100.15 -0.8 C97.63 37.33, 100.08 74.14, 100.25 98.05 M99.26 0.83 C99.4 24.71, 99.49 49.57, 99.59 100.77 M101.2 101.06 C76.82 102.11, 50.66 99.7, 1.7 101.31 M99.56 99.46 C79.65 99.79, 57.83 99.51, -0.71 99.32 M0.41 98.64 C-1.6 61.62, -2.22 23.94, 1.84 -0.49 M0.79 99.61 C-0.92 60.4, -1.08 21.42, -0.94 -0.43" stroke="#000000" stroke-width="1" fill="none"></path></g><g transform="translate(815.0357574107823 494.36926519104395) rotate(0 43 10)"><text x="43" y="16" font-family="Cascadia, Segoe UI Emoji" font-size="16px" fill="#000000" text-anchor="middle" style="white-space: pre;" direction="ltr">Service B</text></g><g stroke-linecap="round" transform="translate(548.0357574107823 514.369265191044) rotate(0 50 50)"><path d="M-0.57 -1.92 L100.46 -0.79 L101.86 99.27 L-0.52 98.31" stroke="none" stroke-width="0" fill="#fab005"></path><path d="M-1.06 -1.37 C40.59 -0.5, 79.02 1.14, 100.05 0.36 M-0.54 0.9 C32.58 -0.17, 64.66 -0.07, 100.8 -0.09 M98.14 1.26 C99.05 25.08, 99.76 52.64, 101.37 98.52 M100.75 0.26 C99.97 34.28, 98.61 67.48, 99.57 99.02 M101.87 100.18 C75.66 101.33, 49.29 98.08, -0.45 98.01 M100.5 100.24 C67.73 100.49, 36.82 100.49, -0.01 99.07 M0.43 98.1 C0.17 66.61, 1.28 31.54, -1.98 -1.61 M-0.06 99.46 C-0.02 77.78, -0.67 54.49, -0.71 0.95" stroke="#000000" stroke-width="1" fill="none"></path></g><g stroke-linecap="round" transform="translate(568.0357574107823 534.369265191044) rotate(0 50 50)"><path d="M-1.92 0.46 L99.21 1.86 L99.27 99.48 L-1.69 101.86" stroke="none" stroke-width="0" fill="#fab005"></path><path d="M-1.37 1.9 C29.77 2.18, 62.66 0.58, 100.36 0.41 M0.9 0.51 C26.5 1.07, 52.49 1.34, 99.91 -0.4 M101.26 -1.8 C99.78 37.39, 101.37 78.33, 98.52 100.81 M100.26 0.68 C99.53 22.21, 98.65 45.35, 99.02 99.5 M100.18 100.62 C62.4 100.15, 19.97 100.49, -1.99 100.33 M100.24 99.38 C80.32 100.62, 59.7 100.49, -0.93 100.51 M-1.9 99.98 C1.71 72.93, 1.76 41.69, -1.61 -1.51 M-0.54 99.94 C0.31 69.7, -0.56 40.1, 0.95 -0.29" stroke="#000000" stroke-width="1" fill="none"></path></g><g stroke-linecap="round" transform="translate(588.0357574107823 554.369265191044) rotate(0 50 50)"><path d="M0.46 -0.79 L101.86 -0.73 L99.48 98.31 L1.86 100.49" stroke="none" stroke-width="0" fill="#fab005"></path><path d="M1.9 -1.48 C21.88 0.85, 40.52 1.05, 100.41 -0.82 M0.51 0.6 C38.25 -0.21, 76.24 -1, 99.6 0.85 M98.2 -0.88 C97.98 37.27, 100.45 71.61, 100.81 98.58 M100.68 0.21 C100.07 22.55, 100.33 45.46, 99.5 100.92 M100.62 101.58 C71.68 98.42, 44.48 98.1, 0.33 98.12 M99.38 100.93 C74.46 101.16, 48.65 99.31, 0.51 99.82 M-0.02 101.73 C0.88 71.62, -2.2 38.08, -1.51 -0.08 M-0.06 100.22 C-0.65 70.28, -0.65 42.81, -0.29 -0.96" stroke="#000000" stroke-width="1" fill="none"></path></g><g transform="translate(595.0357574107823 594.369265191044) rotate(0 43 10)"><text x="43" y="16" font-family="Cascadia, Segoe UI Emoji" font-size="16px" fill="#000000" text-anchor="middle" style="white-space: pre;" direction="ltr">Service B</text></g><g stroke-linecap="round"><g transform="translate(688.0357574107823 254.36926519104395) rotate(0 50 80)"><path d="M0 0 C16.67 26.67, 83.33 133.33, 100 160" stroke="#000000" stroke-width="1.5" fill="none" stroke-dasharray="8 9"></path></g></g><mask></mask><g stroke-linecap="round"><g transform="translate(868.0357574107823 354.36926519104395) rotate(0 -20 30)"><path d="M0 0 C-6.67 10, -33.33 50, -40 60" stroke="#000000" stroke-width="1.5" fill="none" stroke-dasharray="8 9"></path></g></g><mask></mask><g stroke-linecap="round"><g transform="translate(788.0357574107823 334.36926519104395) rotate(0 -60 100)"><path d="M0 0 C-20 33.33, -100 166.67, -120 200" stroke="#000000" stroke-width="1.5" fill="none" stroke-dasharray="8 9"></path></g></g><mask></mask><g stroke-linecap="round"><g transform="translate(768.0357574107823 214.36926519104395) rotate(0 -60 50)"><path d="M0 0 C-20 16.67, -100 83.33, -120 100" stroke="#000000" stroke-width="1.5" fill="none" stroke-dasharray="8 9"></path></g></g><mask></mask><g stroke-linecap="round"><g transform="translate(688.0357574107823 634.369265191044) rotate(0 100 -40)"><path d="M0 0 C33.33 -13.33, 166.67 -66.67, 200 -80" stroke="#000000" stroke-width="1.5" fill="none" stroke-dasharray="8 9"></path></g></g><mask></mask><g stroke-linecap="round"><g transform="translate(608.0357574107823 514.369265191044) rotate(0 20 -30)"><path d="M0 0 C6.67 -10, 33.33 -50, 40 -60" stroke="#000000" stroke-width="1.5" fill="none" stroke-dasharray="8 9"></path></g></g><mask></mask><g transform="translate(10 403.0645463062257) rotate(0 48 10)"><text x="48" y="16" font-family="Cascadia, Segoe UI Emoji" font-size="16px" fill="#000000" text-anchor="middle" style="white-space: pre;" direction="ltr">Mobile/Web</text></g><g stroke-linecap="round"><g transform="translate(470 370.64912614149785) rotate(0 30 0)"><path d="M0 0 C6 0, 26 0, 36 0 C46 0, 56 0, 60 0 M0 0 C6 0, 26 0, 36 0 C46 0, 56 0, 60 0" stroke="#000000" stroke-width="1" fill="none"></path></g><g transform="translate(470 370.64912614149785) rotate(0 30 0)"><path d="M60 0 L46.41 6.34 L46.41 -6.34 L60 0" stroke="none" stroke-width="0" fill="#000000" fill-rule="evenodd"></path><path d="M60 0 C57.28 1.27, 54.55 2.54, 46.41 6.34 M60 0 C55.86 1.93, 51.72 3.86, 46.41 6.34 M46.41 6.34 C46.41 2.13, 46.41 -2.08, 46.41 -6.34 M46.41 6.34 C46.41 2.18, 46.41 -1.98, 46.41 -6.34 M46.41 -6.34 C49.42 -4.93, 52.43 -3.53, 60 0 M46.41 -6.34 C49.97 -4.68, 53.54 -3.01, 60 0 M60 0 C60 0, 60 0, 60 0 M60 0 C60 0, 60 0, 60 0" stroke="#000000" stroke-width="1" fill="none"></path></g></g><mask></mask><g stroke-linecap="round"><g transform="translate(450 330.64912614149785) rotate(0 50 -40)"><path d="M0 0 C16.67 -13.33, 83.33 -66.67, 100 -80 M0 0 C16.67 -13.33, 83.33 -66.67, 100 -80" stroke="#000000" stroke-width="1" fill="none"></path></g><g transform="translate(450 330.64912614149785) rotate(0 50 -40)"><path d="M100 -80 L93.34 -66.56 L85.42 -76.46 L100 -80" stroke="none" stroke-width="0" fill="#000000" fill-rule="evenodd"></path><path d="M100 -80 C98.32 -76.61, 96.65 -73.23, 93.34 -66.56 M100 -80 C98.54 -77.05, 97.08 -74.1, 93.34 -66.56 M93.34 -66.56 C90.76 -69.79, 88.17 -73.03, 85.42 -76.46 M93.34 -66.56 C90.64 -69.93, 87.94 -73.31, 85.42 -76.46 M85.42 -76.46 C90.72 -77.74, 96.01 -79.03, 100 -80 M85.42 -76.46 C90.48 -77.69, 95.53 -78.91, 100 -80 M100 -80 C100 -80, 100 -80, 100 -80 M100 -80 C100 -80, 100 -80, 100 -80" stroke="#000000" stroke-width="1" fill="none"></path></g></g><mask></mask><g stroke-linecap="round"><g transform="translate(450 430.64912614149785) rotate(0 40 40)"><path d="M0 0 C13.33 13.33, 66.67 66.67, 80 80 M0 0 C13.33 13.33, 66.67 66.67, 80 80" stroke="#000000" stroke-width="1" fill="none"></path></g><g transform="translate(450 430.64912614149785) rotate(0 40 40)"><path d="M80 80 L65.9 74.87 L74.87 65.9 L80 80" stroke="none" stroke-width="0" fill="#000000" fill-rule="evenodd"></path><path d="M80 80 C75.6 78.4, 71.21 76.8, 65.9 74.87 M80 80 C75.32 78.3, 70.63 76.59, 65.9 74.87 M65.9 74.87 C67.83 72.94, 69.76 71.01, 74.87 65.9 M65.9 74.87 C68.61 72.17, 71.31 69.46, 74.87 65.9 M74.87 65.9 C76.59 70.62, 78.3 75.34, 80 80 M74.87 65.9 C76.12 69.33, 77.36 72.75, 80 80 M80 80 C80 80, 80 80, 80 80 M80 80 C80 80, 80 80, 80 80" stroke="#000000" stroke-width="1" fill="none"></path></g></g><mask></mask><g stroke-linecap="round"><g transform="translate(130 370.64912614149785) rotate(0 30 0)"><path d="M0 0 C6 0, 26 0, 36 0 C46 0, 56 0, 60 0 M0 0 C6 0, 26 0, 36 0 C46 0, 56 0, 60 0" stroke="#000000" stroke-width="1" fill="none"></path></g><g transform="translate(130 370.64912614149785) rotate(0 30 0)"><path d="M60 0 L46.41 6.34 L46.41 -6.34 L60 0" stroke="none" stroke-width="0" fill="#000000" fill-rule="evenodd"></path><path d="M60 0 C54.93 2.36, 49.86 4.73, 46.41 6.34 M60 0 C57.12 1.34, 54.23 2.69, 46.41 6.34 M46.41 6.34 C46.41 1.28, 46.41 -3.78, 46.41 -6.34 M46.41 6.34 C46.41 1.67, 46.41 -2.99, 46.41 -6.34 M46.41 -6.34 C50.74 -4.32, 55.07 -2.3, 60 0 M46.41 -6.34 C50.67 -4.35, 54.94 -2.36, 60 0 M60 0 C60 0, 60 0, 60 0 M60 0 C60 0, 60 0, 60 0" stroke="#000000" stroke-width="1" fill="none"></path></g></g><mask></mask><g stroke-linecap="round"><g transform="translate(130 330.64912614149785) rotate(0 30 0)"><path d="M0 0 C6 0, 26 0, 36 0 C46 0, 56 0, 60 0 M0 0 C6 0, 26 0, 36 0 C46 0, 56 0, 60 0" stroke="#000000" stroke-width="1" fill="none"></path></g><g transform="translate(130 330.64912614149785) rotate(0 30 0)"><path d="M60 0 L46.41 6.34 L46.41 -6.34 L60 0" stroke="none" stroke-width="0" fill="#000000" fill-rule="evenodd"></path><path d="M60 0 C56.51 1.63, 53.02 3.25, 46.41 6.34 M60 0 C56.65 1.56, 53.31 3.12, 46.41 6.34 M46.41 6.34 C46.41 2.41, 46.41 -1.52, 46.41 -6.34 M46.41 6.34 C46.41 3.2, 46.41 0.06, 46.41 -6.34 M46.41 -6.34 C50.92 -4.23, 55.44 -2.13, 60 0 M46.41 -6.34 C50.74 -4.32, 55.08 -2.29, 60 0 M60 0 C60 0, 60 0, 60 0 M60 0 C60 0, 60 0, 60 0" stroke="#000000" stroke-width="1" fill="none"></path></g></g><mask></mask></svg>