<svg xmlns="http://www.w3.org/2000/svg" version="1.1" xmlns:xlink="http://www.w3.org/1999/xlink" xmlns:svgjs="http://svgjs.com/svgjs" width="150" height="150"><svg version="1.2" xmlns="http://www.w3.org/2000/svg" viewBox="0 0 150 150" width="150" height="150"><style>.a{fill:#121315}</style><path fill-rule="evenodd" class="a" d="m44 35h62.6c15 0 22.6 0 27.2 4.7 4.7 4.7 4.7 12.2 4.7 27.3v15.9c0 15.1 0 22.7-4.7 27.3-4.6 4.7-12.2 4.7-27.2 4.7h-62.6c-15.1 0-22.6 0-27.3-4.7-4.7-4.6-4.7-12.2-4.7-27.3v-15.9c0-15.1 0-22.6 4.7-27.3 4.7-4.7 12.2-4.7 27.3-4.7zm62.6 5.3h-62.6c-7.7 0-12.9 0-16.9 0.6-3.7 0.5-5.5 1.4-6.7 2.5-1.1 1.2-2 3-2.5 6.7-0.6 4-0.6 9.2-0.6 16.9v15.9c0 7.7 0 13 0.6 16.9 0.5 3.7 1.4 5.5 2.5 6.7 1.2 1.2 3 2 6.7 2.5 4 0.6 9.2 0.6 16.9 0.6h62.6c7.6 0 12.9 0 16.8-0.6 3.8-0.5 5.5-1.3 6.7-2.5 1.2-1.2 2.1-3 2.6-6.7 0.5-3.9 0.5-9.2 0.5-16.9v-15.9c0-7.7 0-12.9-0.5-16.9-0.5-3.7-1.4-5.5-2.6-6.7-1.2-1.1-2.9-2-6.7-2.5-3.9-0.6-9.2-0.6-16.8-0.6z"></path><path fill-rule="evenodd" class="a" d="m44.4 56.1c1.2-1.3 3.2-1.3 4.5 0l16.6 16.6c1.3 1.2 1.3 3.3 0 4.5l-16.6 16.7c-1.3 1.2-3.3 1.2-4.5 0-1.3-1.3-1.3-3.3 0-4.5l14.4-14.4-14.4-14.4c-1.3-1.3-1.3-3.3 0-4.5z"></path><path class="a" d="m74.8 91.7c0-1.8 1.4-3.2 3.2-3.2h27.3c1.8 0 3.2 1.4 3.2 3.2 0 1.8-1.4 3.2-3.2 3.2h-13.7-13.6c-1.8 0-3.2-1.4-3.2-3.2z"></path></svg><style>@media (prefers-color-scheme: light) { :root { filter: none; } }
@media (prefers-color-scheme: dark) { :root { filter: invert(100%); } }
</style></svg>